KantumruyPro-Thin.ufo
<glyph name="exclam" format="2">
	<unicode hex="0021"/>
	<advance width="182"/>
	<outline>
		<contour>
			<point x="99" y="660" type="line"/>
			<point x="83" y="660" type="line"/>
			<point x="83" y="302" type="line"/>
			<point x="83" y="170" type="line"/>
			<point x="99" y="170" type="line"/>
			<point x="99" y="302" type="line"/>
		</contour>
		<contour>
			<point x="91" y="39" type="curve" smooth="yes"/>
			<point x="78" y="39"/>
			<point x="69" y="30"/>
			<point x="69" y="17" type="curve" smooth="yes"/>
			<point x="69" y="4"/>
			<point x="78" y="-5"/>
			<point x="91" y="-5" type="curve" smooth="yes"/>
			<point x="104" y="-5"/>
			<point x="113" y="4"/>
			<point x="113" y="17" type="curve" smooth="yes"/>
			<point x="113" y="30"/>
			<point x="104" y="39"/>
		</contour>
	</outline>
</glyph>
<glyph name="numbersign" format="2">
	<advance width="632"/>
	<unicode hex="0023"/>
	<outline>
		<contour>
			<point x="478" y="660" type="line"/>
			<point x="462" y="660" type="line"/>
			<point x="362" y="0" type="line"/>
			<point x="378" y="0" type="line"/>
		</contour>
		<contour>
			<point x="559" y="227" type="line"/>
			<point x="43" y="227" type="line"/>
			<point x="43" y="213" type="line"/>
			<point x="559" y="213" type="line"/>
		</contour>
		<contour>
			<point x="265" y="660" type="line"/>
			<point x="249" y="660" type="line"/>
			<point x="149" y="0" type="line"/>
			<point x="165" y="0" type="line"/>
		</contour>
		<contour>
			<point x="589" y="457" type="line"/>
			<point x="73" y="457" type="line"/>
			<point x="73" y="443" type="line"/>
			<point x="589" y="443" type="line"/>
		</contour>
	</outline>
</glyph>
<glyph name="dollar" format="2">
	<advance width="552"/>
	<unicode hex="0024"/>
	<outline>
		<contour>
			<point x="288" y="0" type="curve" smooth="yes"/>
			<point x="407" y="0"/>
			<point x="497" y="69"/>
			<point x="497" y="172" type="curve" smooth="yes"/>
			<point x="497" y="250"/>
			<point x="451" y="296"/>
			<point x="342" y="320" type="curve" smooth="yes"/>
			<point x="237" y="343" type="line" smooth="yes"/>
			<point x="129" y="367"/>
			<point x="90" y="410"/>
			<point x="90" y="487" type="curve" smooth="yes"/>
			<point x="90" y="576"/>
			<point x="166" y="646"/>
			<point x="276" y="646" type="curve" smooth="yes"/>
			<point x="375" y="646"/>
			<point x="449" y="601"/>
			<point x="474" y="501" type="curve"/>
			<point x="486" y="511" type="line"/>
			<point x="457" y="613"/>
			<point x="382" y="660"/>
			<point x="279" y="660" type="curve" smooth="yes"/>
			<point x="153" y="660"/>
			<point x="73" y="579"/>
			<point x="73" y="487" type="curve" smooth="yes"/>
			<point x="73" y="396"/>
			<point x="125" y="352"/>
			<point x="230" y="329" type="curve" smooth="yes"/>
			<point x="336" y="306" type="line" smooth="yes"/>
			<point x="439" y="284"/>
			<point x="481" y="241"/>
			<point x="481" y="172" type="curve" smooth="yes"/>
			<point x="481" y="69"/>
			<point x="401" y="15"/>
			<point x="288" y="15" type="curve" smooth="yes"/>
			<point x="180" y="15"/>
			<point x="86" y="65"/>
			<point x="69" y="179" type="curve"/>
			<point x="55" y="171" type="line"/>
			<point x="75" y="54"/>
			<point x="173" y="0"/>
		</contour>
		<contour>
			<point x="277" y="-100" type="line"/>
			<point x="291" y="-100" type="line"/>
			<point x="291" y="760" type="line"/>
			<point x="277" y="760" type="line"/>
		</contour>
	</outline>
</glyph>
<glyph name="percent" format="2">
  <advance width="775"/>
  <unicode hex="0025"/>
  <outline>
    <contour>
      <point x="154" y="0" type="line"/>
      <point x="173" y="0" type="line"/>
      <point x="620" y="660" type="line"/>
      <point x="601" y="660" type="line"/>
    </contour>
    <contour>
      <point x="188" y="660" type="curve" smooth="yes"/>
      <point x="89" y="660"/>
      <point x="49" y="577"/>
      <point x="49" y="492" type="curve" smooth="yes"/>
      <point x="49" y="407"/>
      <point x="90" y="327"/>
      <point x="188" y="327" type="curve" smooth="yes"/>
      <point x="286" y="327"/>
      <point x="326" y="407"/>
      <point x="326" y="492" type="curve" smooth="yes"/>
      <point x="326" y="577"/>
      <point x="286" y="660"/>
    </contour>
    <contour>
      <point x="188" y="646" type="curve" smooth="yes"/>
      <point x="273" y="646"/>
      <point x="310" y="572"/>
      <point x="310" y="492" type="curve" smooth="yes"/>
      <point x="310" y="412"/>
      <point x="274" y="341"/>
      <point x="188" y="341" type="curve" smooth="yes"/>
      <point x="102" y="341"/>
      <point x="65" y="412"/>
      <point x="65" y="492" type="curve" smooth="yes"/>
      <point x="65" y="572"/>
      <point x="102" y="646"/>
    </contour>
    <contour>
      <point x="588" y="333" type="curve" smooth="yes"/>
      <point x="489" y="333"/>
      <point x="448" y="251"/>
      <point x="448" y="166" type="curve" smooth="yes"/>
      <point x="448" y="81"/>
      <point x="490" y="0"/>
      <point x="588" y="0" type="curve" smooth="yes"/>
      <point x="686" y="0"/>
      <point x="726" y="81"/>
      <point x="726" y="166" type="curve" smooth="yes"/>
      <point x="726" y="251"/>
      <point x="686" y="333"/>
    </contour>
    <contour>
      <point x="588" y="319" type="curve" smooth="yes"/>
      <point x="673" y="319"/>
      <point x="710" y="246"/>
      <point x="710" y="166" type="curve" smooth="yes"/>
      <point x="710" y="86"/>
      <point x="673" y="14"/>
      <point x="588" y="14" type="curve" smooth="yes"/>
      <point x="502" y="14"/>
      <point x="464" y="86"/>
      <point x="464" y="166" type="curve" smooth="yes"/>
      <point x="464" y="246"/>
      <point x="501" y="319"/>
    </contour>
  </outline>
</glyph>
<glyph name="ampersand" format="2">
  <advance width="544"/>
  <unicode hex="0026"/>
  <outline>
    <contour>
      <point x="224" y="-10" type="curve" smooth="yes"/>
      <point x="313" y="-10"/>
      <point x="376" y="30"/>
      <point x="416" y="90" type="curve"/>
      <point x="419" y="94" type="line"/>
      <point x="469" y="167"/>
      <point x="486" y="273"/>
      <point x="486" y="366" type="curve"/>
      <point x="471" y="366" type="line"/>
      <point x="471" y="267"/>
      <point x="452" y="171"/>
      <point x="408" y="104" type="curve"/>
      <point x="406" y="101" type="line"/>
      <point x="366" y="41"/>
      <point x="305" y="4"/>
      <point x="221" y="4" type="curve" smooth="yes"/>
      <point x="132" y="4"/>
      <point x="61" y="54"/>
      <point x="61" y="139" type="curve" smooth="yes"/>
      <point x="61" y="237"/>
      <point x="126" y="284"/>
      <point x="227" y="346" type="curve"/>
      <point x="232" y="349" type="line"/>
      <point x="324" y="406"/>
      <point x="389" y="449"/>
      <point x="389" y="548" type="curve" smooth="yes"/>
      <point x="389" y="620"/>
      <point x="338" y="666"/>
      <point x="262" y="666" type="curve" smooth="yes"/>
      <point x="182" y="666"/>
      <point x="129" y="614"/>
      <point x="129" y="533" type="curve" smooth="yes"/>
      <point x="129" y="463"/>
      <point x="165" y="423"/>
      <point x="293" y="245" type="curve" smooth="yes"/>
      <point x="435" y="47"/>
      <point x="482" y="-10"/>
      <point x="550" y="-10" type="curve"/>
      <point x="551" y="3" type="line"/>
      <point x="493" y="3"/>
      <point x="450" y="50"/>
      <point x="303" y="255" type="curve" smooth="yes"/>
      <point x="165" y="448"/>
      <point x="145" y="469"/>
      <point x="145" y="533" type="curve" smooth="yes"/>
      <point x="145" y="605"/>
      <point x="192" y="652"/>
      <point x="262" y="652" type="curve" smooth="yes"/>
      <point x="329" y="652"/>
      <point x="373" y="611"/>
      <point x="373" y="548" type="curve" smooth="yes"/>
      <point x="373" y="454"/>
      <point x="307" y="414"/>
      <point x="220" y="360" type="curve"/>
      <point x="215" y="357" type="line"/>
      <point x="115" y="294"/>
      <point x="45" y="243"/>
      <point x="45" y="139" type="curve" smooth="yes"/>
      <point x="45" y="45"/>
      <point x="123" y="-10"/>
    </contour>
  </outline>
</glyph>
<glyph name="quotesingle" format="2">
	<advance width="149"/>
	<unicode hex="0027"/>
	<outline>
		<contour>
			<point x="83" y="680" type="line"/>
			<point x="66" y="680" type="line"/>
			<point x="66" y="521" type="line"/>
			<point x="83" y="521" type="line"/>
		</contour>
	</outline>
</glyph>
<glyph name="parenleft" format="2">
	<unicode hex="0028"/>
	<advance width="253"/>
	<outline>
		<contour>
			<point x="236" y="740" type="line"/>
			<point x="111" y="634"/>
			<point x="53" y="491"/>
			<point x="53" y="285" type="curve" smooth="yes"/>
			<point x="53" y="79"/>
			<point x="111" y="-64"/>
			<point x="236" y="-170" type="curve"/>
			<point x="244" y="-160" type="line"/>
			<point x="122" y="-59"/>
			<point x="68" y="87"/>
			<point x="68" y="285" type="curve" smooth="yes"/>
			<point x="68" y="483"/>
			<point x="122" y="629"/>
			<point x="244" y="730" type="curve"/>
		</contour>
	</outline>
</glyph>
<glyph name="asterisk" format="2">
	<unicode hex="002A"/>
	<advance width="510"/>
	<outline>
		<contour>
			<point x="260" y="517" type="line"/>
			<point x="255" y="513" type="line"/>
			<point x="250" y="510" type="line"/>
			<point x="297" y="441" type="line"/>
			<point x="376" y="333" type="line"/>
			<point x="389" y="342" type="line"/>
			<point x="310" y="451" type="line"/>
		</contour>
		<contour>
			<point x="250" y="517" type="line"/>
			<point x="200" y="451" type="line"/>
			<point x="121" y="342" type="line"/>
			<point x="134" y="333" type="line"/>
			<point x="213" y="441" type="line"/>
			<point x="260" y="510" type="line"/>
			<point x="255" y="513" type="line"/>
		</contour>
		<contour>
			<point x="51" y="588" type="line"/>
			<point x="46" y="573" type="line"/>
			<point x="173" y="531" type="line"/>
			<point x="253" y="508" type="line"/>
			<point x="255" y="513" type="line"/>
			<point x="257" y="519" type="line"/>
			<point x="178" y="547" type="line"/>
		</contour>
		<contour>
			<point x="263" y="730" type="line"/>
			<point x="247" y="730" type="line"/>
			<point x="247" y="596" type="line"/>
			<point x="249" y="513" type="line"/>
			<point x="255" y="513" type="line"/>
			<point x="261" y="513" type="line"/>
			<point x="263" y="596" type="line"/>
		</contour>
		<contour>
			<point x="459" y="588" type="line"/>
			<point x="331" y="547" type="line"/>
			<point x="253" y="519" type="line"/>
			<point x="255" y="513" type="line"/>
			<point x="257" y="508" type="line"/>
			<point x="336" y="531" type="line"/>
			<point x="464" y="573" type="line"/>
		</contour>
	</outline>
</glyph>
<glyph name="plus" format="2">
	<advance width="604"/>
	<unicode hex="002B"/>
	<outline>
		<contour>
			<point x="310" y="545" type="line"/>
			<point x="294" y="545" type="line"/>
			<point x="294" y="79" type="line"/>
			<point x="310" y="79" type="line"/>
		</contour>
		<contour>
			<point x="534" y="323" type="line"/>
			<point x="70" y="323" type="line"/>
			<point x="70" y="309" type="line"/>
			<point x="534" y="309" type="line"/>
		</contour>
	</outline>
</glyph>
<glyph name="comma" format="2">
	<unicode hex="002C"/>
	<advance width="168"/>
	<outline>
		<contour>
			<point x="85" y="39" type="curve" smooth="yes"/>
			<point x="71" y="39"/>
			<point x="62" y="29"/>
			<point x="62" y="17" type="curve" smooth="yes"/>
			<point x="62" y="5"/>
			<point x="71" y="-5"/>
			<point x="83" y="-5" type="curve" smooth="yes"/>
			<point x="92" y="-5"/>
			<point x="97" y="-1"/>
			<point x="100" y="7" type="curve"/>
			<point x="102" y="7" type="line"/>
			<point x="116" y="-26"/>
			<point x="88" y="-81"/>
			<point x="47" y="-98" type="curve"/>
			<point x="59" y="-107" type="line"/>
			<point x="98" y="-86"/>
			<point x="118" y="-44"/>
			<point x="118" y="-6" type="curve" smooth="yes"/>
			<point x="118" y="20"/>
			<point x="107" y="39"/>
		</contour>
	</outline>
</glyph>
<glyph name="slash" format="2">
	<unicode hex="002F"/>
	<advance width="349"/>
	<outline>
		<contour>
			<point x="313" y="730" type="line"/>
			<point x="296" y="730" type="line"/>
			<point x="35" y="-70" type="line"/>
			<point x="52" y="-70" type="line"/>
		</contour>
	</outline>
</glyph>
<glyph name="zero" format="2">
  <advance width="562"/>
  <unicode hex="0030"/>
  <outline>
    <contour>
      <point x="281" y="-10" type="curve" smooth="yes"/>
      <point x="423" y="-10"/>
      <point x="502" y="112"/>
      <point x="502" y="330" type="curve" smooth="yes"/>
      <point x="502" y="548"/>
      <point x="423" y="670"/>
      <point x="281" y="670" type="curve" smooth="yes"/>
      <point x="139" y="670"/>
      <point x="60" y="548"/>
      <point x="60" y="330" type="curve" smooth="yes"/>
      <point x="60" y="112"/>
      <point x="139" y="-10"/>
    </contour>
    <contour>
      <point x="281" y="4" type="curve" smooth="yes"/>
      <point x="149" y="4"/>
      <point x="76" y="120"/>
      <point x="76" y="330" type="curve" smooth="yes"/>
      <point x="76" y="540"/>
      <point x="149" y="656"/>
      <point x="281" y="656" type="curve" smooth="yes"/>
      <point x="413" y="656"/>
      <point x="486" y="540"/>
      <point x="486" y="330" type="curve" smooth="yes"/>
      <point x="486" y="120"/>
      <point x="413" y="4"/>
    </contour>
  </outline>
</glyph>
<glyph name="one" format="2">
  <advance width="288"/>
  <unicode hex="0031"/>
  <outline>
    <contour>
      <point x="180" y="0" type="line"/>
      <point x="196" y="0" type="line"/>
      <point x="196" y="660" type="line"/>
      <point x="180" y="660" type="line"/>
      <point x="152" y="589"/>
      <point x="86" y="539"/>
      <point x="28" y="513" type="curve"/>
      <point x="33" y="500" type="line"/>
      <point x="89" y="521"/>
      <point x="146" y="565"/>
      <point x="180" y="630" type="curve"/>
      <point x="180" y="609"/>
      <point x="180" y="589"/>
      <point x="180" y="568" type="curve" smooth="yes"/>
    </contour>
  </outline>
</glyph>
<glyph name="two" format="2">
	<unicode hex="0032"/>
	<advance width="506"/>
	<outline>
		<contour>
			<point x="54" y="0" type="line"/>
			<point x="464" y="0" type="line"/>
			<point x="464" y="14" type="line"/>
			<point x="108" y="14" type="line" smooth="yes"/>
			<point x="99" y="14"/>
			<point x="89" y="14"/>
			<point x="80" y="14" type="curve"/>
			<point x="80" y="15" type="line"/>
			<point x="302" y="214"/>
			<point x="437" y="330"/>
			<point x="437" y="475" type="curve" smooth="yes"/>
			<point x="437" y="597"/>
			<point x="364" y="670"/>
			<point x="247" y="670" type="curve" smooth="yes"/>
			<point x="128" y="670"/>
			<point x="53" y="589"/>
			<point x="47" y="464" type="curve"/>
			<point x="62" y="458" type="line"/>
			<point x="67" y="578"/>
			<point x="137" y="656"/>
			<point x="247" y="656" type="curve" smooth="yes"/>
			<point x="354" y="656"/>
			<point x="422" y="588"/>
			<point x="422" y="475" type="curve" smooth="yes"/>
			<point x="422" y="336"/>
			<point x="275" y="211"/>
			<point x="54" y="14" type="curve"/>
		</contour>
	</outline>
</glyph>
<glyph name="three" format="2">
	<unicode hex="0033"/>
	<advance width="484"/>
	<outline>
		<contour>
			<point x="249" y="-10" type="curve" smooth="yes"/>
			<point x="361" y="-10"/>
			<point x="446" y="63"/>
			<point x="446" y="174" type="curve" smooth="yes"/>
			<point x="446" y="268"/>
			<point x="390" y="326"/>
			<point x="311" y="332" type="curve"/>
			<point x="311" y="333" type="line"/>
			<point x="388" y="347"/>
			<point x="430" y="415"/>
			<point x="430" y="495" type="curve" smooth="yes"/>
			<point x="430" y="604"/>
			<point x="361" y="670"/>
			<point x="252" y="670" type="curve" smooth="yes"/>
			<point x="157" y="670"/>
			<point x="82" y="619"/>
			<point x="55" y="535" type="curve"/>
			<point x="70" y="527" type="line"/>
			<point x="92" y="607"/>
			<point x="162" y="656"/>
			<point x="252" y="656" type="curve" smooth="yes"/>
			<point x="350" y="656"/>
			<point x="414" y="595"/>
			<point x="414" y="495" type="curve" smooth="yes"/>
			<point x="414" y="399"/>
			<point x="356" y="339"/>
			<point x="269" y="339" type="curve" smooth="yes"/>
			<point x="251" y="339"/>
			<point x="230" y="339"/>
			<point x="217" y="340" type="curve"/>
			<point x="217" y="325" type="line"/>
			<point x="227" y="326"/>
			<point x="246" y="326"/>
			<point x="272" y="326" type="curve" smooth="yes"/>
			<point x="359" y="326"/>
			<point x="430" y="278"/>
			<point x="430" y="178" type="curve" smooth="yes"/>
			<point x="430" y="66"/>
			<point x="352" y="4"/>
			<point x="247" y="4" type="curve" smooth="yes"/>
			<point x="141" y="4"/>
			<point x="69" y="62"/>
			<point x="52" y="150" type="curve"/>
			<point x="38" y="141" type="line"/>
			<point x="58" y="50"/>
			<point x="138" y="-10"/>
		</contour>
	</outline>
</glyph>
<glyph name="four" format="2">
  <advance width="522"/>
  <unicode hex="0034"/>
  <outline>
    <contour>
      <point x="352" y="0" type="line"/>
      <point x="368" y="0" type="line"/>
      <point x="368" y="205" type="line"/>
      <point x="499" y="205" type="line"/>
      <point x="499" y="219" type="line"/>
      <point x="368" y="219" type="line"/>
      <point x="368" y="660" type="line"/>
      <point x="347" y="660" type="line"/>
      <point x="38" y="219" type="line"/>
      <point x="38" y="219"/>
      <point x="38" y="219"/>
      <point x="38" y="219" type="curve"/>
      <point x="38" y="205" type="line"/>
      <point x="352" y="205" type="line"/>
    </contour>
    <contour>
      <point x="56" y="219" type="line"/>
      <point x="56" y="219"/>
      <point x="56" y="219"/>
      <point x="56" y="219" type="curve"/>
      <point x="311" y="584" type="line" smooth="yes"/>
      <point x="350" y="640"/>
      <point x="340" y="625"/>
      <point x="352" y="643" type="curve"/>
      <point x="352" y="643" type="line"/>
      <point x="352" y="623"/>
      <point x="352" y="602"/>
      <point x="352" y="582" type="curve" smooth="yes"/>
      <point x="352" y="219" type="line"/>
    </contour>
  </outline>
</glyph>
<glyph name="five" format="2">
  <advance width="507"/>
  <unicode hex="0035"/>
  <outline>
    <contour>
      <point x="260" y="-10" type="curve" smooth="yes"/>
      <point x="376" y="-10"/>
      <point x="458" y="75"/>
      <point x="458" y="196" type="curve" smooth="yes"/>
      <point x="458" y="316"/>
      <point x="378" y="400"/>
      <point x="265" y="400" type="curve" smooth="yes"/>
      <point x="171" y="400"/>
      <point x="117" y="363"/>
      <point x="86" y="318" type="curve"/>
      <point x="86" y="318" type="line"/>
      <point x="87" y="337" type="line"/>
      <point x="112" y="646" type="line"/>
      <point x="435" y="646" type="line"/>
      <point x="435" y="660" type="line"/>
      <point x="99" y="660" type="line"/>
      <point x="70" y="301" type="line"/>
      <point x="84" y="301" type="line"/>
      <point x="113" y="342"/>
      <point x="166" y="386"/>
      <point x="265" y="386" type="curve" smooth="yes"/>
      <point x="369" y="386"/>
      <point x="442" y="308"/>
      <point x="442" y="196" type="curve" smooth="yes"/>
      <point x="442" y="83"/>
      <point x="367" y="4"/>
      <point x="260" y="4" type="curve" smooth="yes"/>
      <point x="154" y="4"/>
      <point x="80" y="50"/>
      <point x="64" y="155" type="curve"/>
      <point x="50" y="149" type="line"/>
      <point x="72" y="31"/>
      <point x="154" y="-10"/>
    </contour>
  </outline>
</glyph>
<glyph name="six" format="2">
	<advance width="517"/>
	<unicode hex="0036"/>
	<outline>
		<contour>
			<point x="292" y="670" type="curve" smooth="yes"/>
			<point x="159" y="670"/>
			<point x="60" y="557"/>
			<point x="60" y="330" type="curve" smooth="yes"/>
			<point x="60" y="108"/>
			<point x="132" y="-10"/>
			<point x="273" y="-10" type="curve" smooth="yes"/>
			<point x="392" y="-10"/>
			<point x="468" y="69"/>
			<point x="468" y="192" type="curve" smooth="yes"/>
			<point x="468" y="313"/>
			<point x="397" y="395"/>
			<point x="277" y="395" type="curve" smooth="yes"/>
			<point x="180" y="395"/>
			<point x="90" y="325"/>
			<point x="86" y="194" type="curve"/>
			<point x="84" y="194" type="line"/>
			<point x="79" y="230"/>
			<point x="75" y="276"/>
			<point x="75" y="317" type="curve" smooth="yes"/>
			<point x="75" y="484"/>
			<point x="130" y="656"/>
			<point x="292" y="656" type="curve" smooth="yes"/>
			<point x="374" y="656"/>
			<point x="421" y="607"/>
			<point x="439" y="543" type="curve"/>
			<point x="454" y="550" type="line"/>
			<point x="432" y="618"/>
			<point x="382" y="670"/>
		</contour>
		<contour>
			<point x="277" y="381" type="curve" smooth="yes"/>
			<point x="383" y="381"/>
			<point x="452" y="304"/>
			<point x="452" y="194" type="curve" smooth="yes"/>
			<point x="452" y="80"/>
			<point x="383" y="4"/>
			<point x="272" y="4" type="curve" smooth="yes"/>
			<point x="170" y="4"/>
			<point x="99" y="86"/>
			<point x="99" y="191" type="curve" smooth="yes"/>
			<point x="99" y="285"/>
			<point x="170" y="381"/>
		</contour>
	</outline>
</glyph>
<glyph name="seven" format="2">
	<unicode hex="0037"/>
	<advance width="466"/>
	<outline>
		<contour>
			<point x="22" y="660" type="line"/>
			<point x="22" y="646" type="line"/>
			<point x="447" y="646" type="line"/>
			<point x="448" y="655" type="line"/>
			<point x="287" y="476"/>
			<point x="209" y="262"/>
			<point x="189" y="0" type="curve"/>
			<point x="206" y="0" type="line"/>
			<point x="225" y="265"/>
			<point x="307" y="473"/>
			<point x="457" y="646" type="curve"/>
			<point x="457" y="660" type="line"/>
		</contour>
	</outline>
</glyph>
<glyph name="eight" format="2">
	<unicode hex="0038"/>
	<advance width="534"/>
	<outline>
		<contour>
			<point x="267" y="670" type="curve" smooth="yes"/>
			<point x="154" y="670"/>
			<point x="81" y="606"/>
			<point x="81" y="508" type="curve" smooth="yes"/>
			<point x="81" y="424"/>
			<point x="132" y="366"/>
			<point x="215" y="348" type="curve"/>
			<point x="215" y="347" type="line"/>
			<point x="119" y="330"/>
			<point x="55" y="260"/>
			<point x="55" y="169" type="curve" smooth="yes"/>
			<point x="55" y="64"/>
			<point x="143" y="-10"/>
			<point x="267" y="-10" type="curve" smooth="yes"/>
			<point x="391" y="-10"/>
			<point x="479" y="64"/>
			<point x="479" y="169" type="curve" smooth="yes"/>
			<point x="479" y="256"/>
			<point x="420" y="328"/>
			<point x="319" y="347" type="curve"/>
			<point x="319" y="348" type="line"/>
			<point x="402" y="366"/>
			<point x="453" y="424"/>
			<point x="453" y="508" type="curve" smooth="yes"/>
			<point x="453" y="606"/>
			<point x="379" y="670"/>
		</contour>
		<contour>
			<point x="267" y="656" type="curve" smooth="yes"/>
			<point x="369" y="656"/>
			<point x="437" y="598"/>
			<point x="437" y="508" type="curve" smooth="yes"/>
			<point x="437" y="417"/>
			<point x="369" y="355"/>
			<point x="267" y="355" type="curve" smooth="yes"/>
			<point x="165" y="355"/>
			<point x="97" y="417"/>
			<point x="97" y="508" type="curve" smooth="yes"/>
			<point x="97" y="598"/>
			<point x="165" y="656"/>
		</contour>
		<contour>
			<point x="267" y="4" type="curve" smooth="yes"/>
			<point x="152" y="4"/>
			<point x="71" y="72"/>
			<point x="71" y="169" type="curve" smooth="yes"/>
			<point x="71" y="268"/>
			<point x="152" y="339"/>
			<point x="267" y="339" type="curve" smooth="yes"/>
			<point x="382" y="339"/>
			<point x="463" y="268"/>
			<point x="463" y="169" type="curve" smooth="yes"/>
			<point x="463" y="72"/>
			<point x="382" y="4"/>
		</contour>
	</outline>
</glyph>
<glyph name="nine" format="2">
	<unicode hex="0039"/>
	<advance width="538"/>
	<outline>
		<contour>
			<point x="258" y="670" type="curve" smooth="yes"/>
			<point x="136" y="670"/>
			<point x="57" y="591"/>
			<point x="57" y="468" type="curve" smooth="yes"/>
			<point x="57" y="346"/>
			<point x="133" y="265"/>
			<point x="255" y="265" type="curve" smooth="yes"/>
			<point x="350" y="265"/>
			<point x="450" y="334"/>
			<point x="450" y="470" type="curve"/>
			<point x="452" y="470" type="line"/>
			<point x="458" y="430"/>
			<point x="463" y="385"/>
			<point x="463" y="334" type="curve" smooth="yes"/>
			<point x="463" y="174"/>
			<point x="414" y="4"/>
			<point x="259" y="4" type="curve" smooth="yes"/>
			<point x="153" y="4"/>
			<point x="94" y="61"/>
			<point x="77" y="137" type="curve"/>
			<point x="63" y="130" type="line"/>
			<point x="80" y="47"/>
			<point x="157" y="-10"/>
			<point x="259" y="-10" type="curve" smooth="yes"/>
			<point x="385" y="-10"/>
			<point x="478" y="102"/>
			<point x="478" y="330" type="curve" smooth="yes"/>
			<point x="478" y="546"/>
			<point x="405" y="670"/>
		</contour>
		<contour>
			<point x="259" y="656" type="curve" smooth="yes"/>
			<point x="358" y="656"/>
			<point x="439" y="573"/>
			<point x="439" y="475" type="curve" smooth="yes"/>
			<point x="439" y="366"/>
			<point x="362" y="279"/>
			<point x="255" y="279" type="curve" smooth="yes"/>
			<point x="145" y="279"/>
			<point x="73" y="354"/>
			<point x="73" y="466" type="curve" smooth="yes"/>
			<point x="73" y="580"/>
			<point x="145" y="656"/>
		</contour>
	</outline>
</glyph>
<glyph name="colon" format="2">
  <advance width="192"/>
  <unicode hex="003A"/>
  <anchor x="74" y="478" name="_center"/>
  <outline>
    <contour>
      <point x="96" y="456" type="curve" smooth="yes"/>
      <point x="109" y="456"/>
      <point x="118" y="465"/>
      <point x="118" y="478" type="curve" smooth="yes"/>
      <point x="118" y="491"/>
      <point x="109" y="500"/>
      <point x="96" y="500" type="curve" smooth="yes"/>
      <point x="83" y="500"/>
      <point x="74" y="491"/>
      <point x="74" y="478" type="curve" smooth="yes"/>
      <point x="74" y="465"/>
      <point x="83" y="456"/>
    </contour>
    <contour>
      <point x="96" y="-5" type="curve" smooth="yes"/>
      <point x="109" y="-5"/>
      <point x="118" y="4"/>
      <point x="118" y="17" type="curve" smooth="yes"/>
      <point x="118" y="30"/>
      <point x="109" y="39"/>
      <point x="96" y="39" type="curve" smooth="yes"/>
      <point x="83" y="39"/>
      <point x="74" y="30"/>
      <point x="74" y="17" type="curve" smooth="yes"/>
      <point x="74" y="4"/>
      <point x="83" y="-5"/>
    </contour>
  </outline>
</glyph>
<glyph name="semicolon" format="2">
	<advance width="192"/>
	<unicode hex="003B"/>
	<outline>
		<contour>
			<point x="95" y="39" type="curve" smooth="yes"/>
			<point x="81" y="39"/>
			<point x="72" y="29"/>
			<point x="72" y="17" type="curve" smooth="yes"/>
			<point x="72" y="5"/>
			<point x="81" y="-5"/>
			<point x="93" y="-5" type="curve" smooth="yes"/>
			<point x="102" y="-5"/>
			<point x="107" y="-1"/>
			<point x="110" y="7" type="curve"/>
			<point x="112" y="7" type="line"/>
			<point x="126" y="-26"/>
			<point x="98" y="-81"/>
			<point x="57" y="-98" type="curve"/>
			<point x="69" y="-107" type="line"/>
			<point x="108" y="-86"/>
			<point x="128" y="-44"/>
			<point x="128" y="-6" type="curve" smooth="yes"/>
			<point x="128" y="20"/>
			<point x="117" y="39"/>
		</contour>
		<contour>
			<point x="96" y="456" type="curve" smooth="yes"/>
			<point x="109" y="456"/>
			<point x="118" y="465"/>
			<point x="118" y="478" type="curve" smooth="yes"/>
			<point x="118" y="491"/>
			<point x="109" y="500"/>
			<point x="96" y="500" type="curve" smooth="yes"/>
			<point x="83" y="500"/>
			<point x="74" y="491"/>
			<point x="74" y="478" type="curve" smooth="yes"/>
			<point x="74" y="465"/>
			<point x="83" y="456"/>
		</contour>
	</outline>
</glyph>
<glyph name="less" format="2">
	<unicode hex="003C"/>
	<advance width="604"/>
	<outline>
		<contour>
			<point x="533" y="58" type="line"/>
			<point x="533" y="76" type="line"/>
			<point x="105" y="300" type="line"/>
			<point x="533" y="523" type="line"/>
			<point x="533" y="541" type="line"/>
			<point x="91" y="309" type="line"/>
			<point x="91" y="290" type="line"/>
		</contour>
	</outline>
</glyph>
<glyph name="equal" format="2">
  <advance width="604"/>
  <unicode hex="003D"/>
  <outline>
    <contour>
      <point x="517" y="422" type="line"/>
      <point x="87" y="422" type="line"/>
      <point x="87" y="408" type="line"/>
      <point x="517" y="408" type="line"/>
    </contour>
    <contour>
      <point x="517" y="218" type="line"/>
      <point x="87" y="218" type="line"/>
      <point x="87" y="204" type="line"/>
      <point x="517" y="204" type="line"/>
    </contour>
  </outline>
</glyph>
<glyph name="question" format="2">
	<advance width="445"/>
	<unicode hex="003F"/>
	<anchor x="195" y="17" name="_center"/>
	<outline>
		<contour>
			<point x="204" y="150" type="line"/>
			<point x="220" y="150" type="line"/>
			<point x="220" y="281" type="line"/>
			<point x="350" y="321"/>
			<point x="404" y="374"/>
			<point x="404" y="485" type="curve" smooth="yes"/>
			<point x="404" y="591"/>
			<point x="334" y="670"/>
			<point x="222" y="670" type="curve" smooth="yes"/>
			<point x="108" y="670"/>
			<point x="46" y="607"/>
			<point x="30" y="501" type="curve"/>
			<point x="44" y="495" type="line"/>
			<point x="57" y="596"/>
			<point x="114" y="656"/>
			<point x="222" y="656" type="curve" smooth="yes"/>
			<point x="324" y="656"/>
			<point x="388" y="582"/>
			<point x="388" y="485" type="curve" smooth="yes"/>
			<point x="388" y="373"/>
			<point x="339" y="335"/>
			<point x="204" y="290" type="curve"/>
		</contour>
		<contour>
			<point x="217" y="-5" type="curve" smooth="yes"/>
			<point x="230" y="-5"/>
			<point x="239" y="4"/>
			<point x="239" y="17" type="curve" smooth="yes"/>
			<point x="239" y="30"/>
			<point x="230" y="39"/>
			<point x="217" y="39" type="curve" smooth="yes"/>
			<point x="204" y="39"/>
			<point x="195" y="30"/>
			<point x="195" y="17" type="curve" smooth="yes"/>
			<point x="195" y="4"/>
			<point x="204" y="-5"/>
		</contour>
	</outline>
</glyph>
<glyph name="at" format="2">
  <advance width="870"/>
  <unicode hex="0040"/>
  <outline>
    <contour>
      <point x="459" y="-171" type="curve" smooth="yes"/>
      <point x="553" y="-171"/>
      <point x="648" y="-137"/>
      <point x="705" y="-87" type="curve"/>
      <point x="695" y="-74" type="line"/>
      <point x="642" y="-126"/>
      <point x="548" y="-157"/>
      <point x="459" y="-157" type="curve" smooth="yes"/>
      <point x="232" y="-157"/>
      <point x="81" y="-14"/>
      <point x="81" y="224" type="curve" smooth="yes"/>
      <point x="81" y="491"/>
      <point x="261" y="636"/>
      <point x="461" y="636" type="curve" smooth="yes"/>
      <point x="694" y="636"/>
      <point x="802" y="456"/>
      <point x="802" y="278" type="curve" smooth="yes"/>
      <point x="802" y="138"/>
      <point x="733" y="16"/>
      <point x="652" y="16" type="curve" smooth="yes"/>
      <point x="620" y="16"/>
      <point x="583" y="35"/>
      <point x="583" y="94" type="curve" smooth="yes"/>
      <point x="583" y="109"/>
      <point x="584" y="122"/>
      <point x="587" y="135" type="curve" smooth="yes"/>
      <point x="663" y="466" type="line"/>
      <point x="647" y="466" type="line"/>
      <point x="608" y="289" type="line"/>
      <point x="609" y="405"/>
      <point x="547" y="476"/>
      <point x="448" y="476" type="curve" smooth="yes"/>
      <point x="326" y="476"/>
      <point x="235" y="361"/>
      <point x="235" y="214" type="curve" smooth="yes"/>
      <point x="235" y="101"/>
      <point x="298" y="12"/>
      <point x="404" y="12" type="curve" smooth="yes"/>
      <point x="485" y="12"/>
      <point x="538" y="56"/>
      <point x="568" y="114" type="curve"/>
      <point x="561" y="55"/>
      <point x="589" y="2"/>
      <point x="649" y="2" type="curve" smooth="yes"/>
      <point x="747" y="2"/>
      <point x="818" y="130"/>
      <point x="818" y="280" type="curve" smooth="yes"/>
      <point x="818" y="465"/>
      <point x="704" y="650"/>
      <point x="461" y="650" type="curve" smooth="yes"/>
      <point x="251" y="650"/>
      <point x="65" y="500"/>
      <point x="65" y="224" type="curve" smooth="yes"/>
      <point x="65" y="-23"/>
      <point x="220" y="-171"/>
    </contour>
    <contour>
      <point x="402" y="26" type="curve" smooth="yes"/>
      <point x="317" y="26"/>
      <point x="251" y="99"/>
      <point x="251" y="214" type="curve" smooth="yes"/>
      <point x="251" y="359"/>
      <point x="341" y="460"/>
      <point x="447" y="460" type="curve" smooth="yes"/>
      <point x="526" y="460"/>
      <point x="595" y="411"/>
      <point x="595" y="279" type="curve" smooth="yes"/>
      <point x="595" y="132"/>
      <point x="518" y="26"/>
    </contour>
  </outline>
</glyph>
<glyph name="A" format="2">
	<unicode hex="0041"/>
	<advance width="558"/>
	<outline>
		<contour>
			<point x="546" y="0" type="line"/>
			<point x="288" y="660" type="line"/>
			<point x="270" y="660" type="line"/>
			<point x="12" y="0" type="line"/>
			<point x="29" y="0" type="line"/>
			<point x="121" y="234" type="line"/>
			<point x="437" y="234" type="line"/>
			<point x="529" y="0" type="line"/>
		</contour>
		<contour>
			<point x="127" y="248" type="line"/>
			<point x="279" y="642" type="line"/>
			<point x="431" y="248" type="line"/>
		</contour>
	</outline>
	<anchor name="bottom" x="279" y="0"/>
	<anchor name="ogonek" x="546" y="0"/>
	<anchor name="top" x="279" y="660"/>
	<anchor name="top_ring" x="279" y="571"/>
</glyph>
<glyph name="B" format="2">
	<unicode hex="0042"/>
	<advance width="581"/>
	<outline>
		<contour>
			<point x="99" y="0" type="line"/>
			<point x="317" y="0" type="line" smooth="yes"/>
			<point x="452" y="0"/>
			<point x="524" y="58"/>
			<point x="524" y="169" type="curve" smooth="yes"/>
			<point x="524" y="262"/>
			<point x="472" y="320"/>
			<point x="383" y="333" type="curve"/>
			<point x="383" y="334" type="line"/>
			<point x="466" y="353"/>
			<point x="506" y="407"/>
			<point x="506" y="493" type="curve" smooth="yes"/>
			<point x="506" y="603"/>
			<point x="441" y="660"/>
			<point x="317" y="660" type="curve" smooth="yes"/>
			<point x="99" y="660" type="line"/>
		</contour>
		<contour>
			<point x="115" y="14" type="line"/>
			<point x="115" y="326" type="line"/>
			<point x="317" y="326" type="line" smooth="yes"/>
			<point x="442" y="326"/>
			<point x="508" y="274"/>
			<point x="508" y="170" type="curve" smooth="yes"/>
			<point x="508" y="67"/>
			<point x="442" y="14"/>
			<point x="317" y="14" type="curve" smooth="yes"/>
		</contour>
		<contour>
			<point x="115" y="340" type="line"/>
			<point x="115" y="646" type="line"/>
			<point x="317" y="646" type="line" smooth="yes"/>
			<point x="430" y="646"/>
			<point x="490" y="593"/>
			<point x="490" y="492" type="curve" smooth="yes"/>
			<point x="490" y="391"/>
			<point x="430" y="340"/>
			<point x="317" y="340" type="curve" smooth="yes"/>
		</contour>
	</outline>
	<anchor name="bottom" x="285" y="0"/>
	<anchor name="ogonek" x="317" y="0"/>
	<anchor name="top" x="285" y="660"/>
</glyph>
<glyph name="C" format="2">
	<advance width="621"/>
	<unicode hex="0043"/>
	<anchor x="415" y="0" name="ogonek"/>
	<anchor x="325" y="0" name="bottom"/>
	<anchor x="325" y="660" name="top"/>
	<outline>
		<contour>
			<point x="582" y="165" type="curve"/>
			<point x="567" y="171" type="line"/>
			<point x="538" y="65"/>
			<point x="452" y="4"/>
			<point x="334" y="4" type="curve" smooth="yes"/>
			<point x="178" y="4"/>
			<point x="72" y="130"/>
			<point x="72" y="330" type="curve" smooth="yes"/>
			<point x="72" y="529"/>
			<point x="177" y="656"/>
			<point x="334" y="656" type="curve" smooth="yes"/>
			<point x="456" y="656"/>
			<point x="531" y="601"/>
			<point x="562" y="489" type="curve"/>
			<point x="577" y="496" type="line"/>
			<point x="546" y="612"/>
			<point x="465" y="670"/>
			<point x="334" y="670" type="curve" smooth="yes"/>
			<point x="167" y="670"/>
			<point x="56" y="538"/>
			<point x="56" y="330" type="curve" smooth="yes"/>
			<point x="56" y="122"/>
			<point x="168" y="-10"/>
			<point x="334" y="-10" type="curve" smooth="yes"/>
			<point x="459" y="-10"/>
			<point x="551" y="54"/>
		</contour>
	</outline>
</glyph>
<glyph name="D" format="2">
	<unicode hex="0044"/>
	<advance width="655"/>
	<outline>
		<contour>
			<point x="291" y="660" type="curve" smooth="yes"/>
			<point x="99" y="660" type="line"/>
			<point x="99" y="0" type="line"/>
			<point x="291" y="0" type="line" smooth="yes"/>
			<point x="493" y="0"/>
			<point x="599" y="117"/>
			<point x="599" y="340" type="curve" smooth="yes"/>
			<point x="599" y="550"/>
			<point x="493" y="660"/>
		</contour>
		<contour>
			<point x="291" y="14" type="curve" smooth="yes"/>
			<point x="115" y="14" type="line"/>
			<point x="115" y="646" type="line"/>
			<point x="291" y="646" type="line" smooth="yes"/>
			<point x="482" y="646"/>
			<point x="583" y="541"/>
			<point x="583" y="340" type="curve" smooth="yes"/>
			<point x="583" y="126"/>
			<point x="482" y="14"/>
		</contour>
	</outline>
	<anchor name="bottom" x="298" y="0"/>
	<anchor name="center" x="341" y="330"/>
	<anchor name="ogonek" x="291" y="0"/>
	<anchor name="top" x="298" y="660"/>
</glyph>
<glyph name="E" format="2">
	<unicode hex="0045"/>
	<advance width="555"/>
	<outline>
		<contour>
			<point x="99" y="0" type="line"/>
			<point x="525" y="0" type="line"/>
			<point x="525" y="14" type="line"/>
			<point x="115" y="14" type="line"/>
			<point x="115" y="330" type="line"/>
			<point x="431" y="330" type="line"/>
			<point x="431" y="344" type="line"/>
			<point x="115" y="344" type="line"/>
			<point x="115" y="646" type="line"/>
			<point x="509" y="646" type="line"/>
			<point x="509" y="660" type="line"/>
			<point x="99" y="660" type="line"/>
		</contour>
	</outline>
	<anchor name="bottom" x="319" y="0"/>
	<anchor name="ogonek" x="525" y="0"/>
	<anchor name="top" x="305" y="660"/>
</glyph>
<glyph name="F" format="2">
	<unicode hex="0046"/>
	<advance width="526"/>
	<outline>
		<contour>
			<point x="507" y="646" type="line"/>
			<point x="507" y="660" type="line"/>
			<point x="99" y="660" type="line"/>
			<point x="99" y="0" type="line"/>
			<point x="115" y="0" type="line"/>
			<point x="115" y="330" type="line"/>
			<point x="430" y="330" type="line"/>
			<point x="430" y="344" type="line"/>
			<point x="115" y="344" type="line"/>
			<point x="115" y="646" type="line"/>
		</contour>
	</outline>
	<anchor name="bottom" x="107" y="0"/>
	<anchor name="ogonek" x="115" y="0"/>
	<anchor name="top" x="300" y="660"/>
</glyph>
<glyph name="G" format="2">
  <advance width="648"/>
  <unicode hex="0047"/>
  <anchor x="336" y="0" name="bottom"/>
  <anchor x="411" y="0" name="ogonek"/>
  <anchor x="329" y="660" name="top"/>
  <outline>
    <contour>
      <point x="340" y="-10" type="curve" smooth="yes"/>
      <point x="459" y="-10"/>
      <point x="541" y="59"/>
      <point x="567" y="164" type="curve"/>
      <point x="566" y="166" type="line"/>
      <point x="566" y="0" type="line"/>
      <point x="582" y="0" type="line"/>
      <point x="582" y="311" type="line"/>
      <point x="338" y="311" type="line"/>
      <point x="338" y="297" type="line"/>
      <point x="566" y="297" type="line"/>
      <point x="566" y="244" type="line" smooth="yes"/>
      <point x="566" y="157"/>
      <point x="519" y="4"/>
      <point x="340" y="4" type="curve" smooth="yes"/>
      <point x="174" y="4"/>
      <point x="72" y="131"/>
      <point x="72" y="330" type="curve" smooth="yes"/>
      <point x="72" y="529"/>
      <point x="177" y="656"/>
      <point x="334" y="656" type="curve" smooth="yes"/>
      <point x="457" y="656"/>
      <point x="532" y="601"/>
      <point x="563" y="489" type="curve"/>
      <point x="577" y="496" type="line"/>
      <point x="546" y="612"/>
      <point x="465" y="670"/>
      <point x="334" y="670" type="curve" smooth="yes"/>
      <point x="167" y="670"/>
      <point x="56" y="538"/>
      <point x="56" y="330" type="curve" smooth="yes"/>
      <point x="56" y="121"/>
      <point x="165" y="-10"/>
    </contour>
  </outline>
</glyph>
<glyph name="H" format="2">
	<unicode hex="0048"/>
	<advance width="668"/>
	<outline>
		<contour>
			<point x="569" y="660" type="line"/>
			<point x="553" y="660" type="line"/>
			<point x="553" y="0" type="line"/>
			<point x="569" y="0" type="line"/>
		</contour>
		<contour>
			<point x="115" y="660" type="line"/>
			<point x="99" y="660" type="line"/>
			<point x="99" y="0" type="line"/>
			<point x="115" y="0" type="line"/>
		</contour>
		<contour>
			<point x="562" y="344" type="line"/>
			<point x="107" y="344" type="line"/>
			<point x="107" y="330" type="line"/>
			<point x="562" y="330" type="line"/>
		</contour>
	</outline>
	<anchor name="bottom" x="334" y="0"/>
	<anchor name="ogonek" x="569" y="0"/>
	<anchor name="top" x="334" y="660"/>
</glyph>
<glyph name="I" format="2">
	<advance width="214"/>
	<unicode hex="0049"/>
	<anchor x="115" y="0" name="ogonek"/>
	<anchor x="107" y="0" name="bottom"/>
	<anchor x="107" y="660" name="top"/>
	<outline>
		<contour>
			<point x="115" y="660" type="line"/>
			<point x="99" y="660" type="line"/>
			<point x="99" y="0" type="line"/>
			<point x="115" y="0" type="line"/>
		</contour>
	</outline>
</glyph>
<glyph name="J" format="2">
	<unicode hex="004A"/>
	<advance width="470"/>
	<outline>
		<contour>
			<point x="378" y="660" type="line"/>
			<point x="362" y="660" type="line"/>
			<point x="362" y="209" type="line" smooth="yes"/>
			<point x="362" y="84"/>
			<point x="307" y="4"/>
			<point x="198" y="4" type="curve" smooth="yes"/>
			<point x="89" y="4"/>
			<point x="31" y="76"/>
			<point x="48" y="208" type="curve"/>
			<point x="32" y="200" type="line"/>
			<point x="15" y="74"/>
			<point x="77" y="-10"/>
			<point x="198" y="-10" type="curve" smooth="yes"/>
			<point x="316" y="-10"/>
			<point x="378" y="75"/>
			<point x="378" y="209" type="curve" smooth="yes"/>
		</contour>
	</outline>
	<anchor name="bottom" x="205" y="0"/>
	<anchor name="ogonek" x="256" y="0"/>
	<anchor name="top" x="370" y="660"/>
</glyph>
<glyph name="K" format="2">
	<advance width="529"/>
	<unicode hex="004B"/>
	<anchor x="516" y="0" name="ogonek"/>
	<anchor x="305" y="0" name="bottom"/>
	<anchor x="305" y="660" name="top"/>
	<outline>
		<contour>
			<point x="507" y="660" type="line"/>
			<point x="484" y="660" type="line"/>
			<point x="106" y="248" type="line"/>
			<point x="106" y="225" type="line"/>
			<point x="258" y="389" type="line"/>
			<point x="260" y="391" type="line"/>
		</contour>
		<contour>
			<point x="115" y="660" type="line"/>
			<point x="99" y="660" type="line"/>
			<point x="99" y="0" type="line"/>
			<point x="115" y="0" type="line"/>
		</contour>
		<contour>
			<point x="260" y="404" type="line"/>
			<point x="249" y="390" type="line"/>
			<point x="495" y="0" type="line"/>
			<point x="516" y="0" type="line"/>
		</contour>
	</outline>
</glyph>
<glyph name="L" format="2">
	<advance width="515"/>
	<unicode hex="004C"/>
	<anchor x="341" y="344" name="center"/>
	<anchor x="503" y="0" name="ogonek"/>
	<anchor x="107" y="660" name="top"/>
	<anchor x="306" y="660" name="topright"/>
	<anchor x="316" y="0" name="bottom"/>
	<outline>
		<contour>
			<point x="115" y="14" type="line"/>
			<point x="115" y="660" type="line"/>
			<point x="99" y="660" type="line"/>
			<point x="99" y="0" type="line"/>
			<point x="503" y="0" type="line"/>
			<point x="503" y="14" type="line"/>
		</contour>
	</outline>
</glyph>
<glyph name="M" format="2">
	<unicode hex="004D"/>
	<advance width="758"/>
	<outline>
		<contour>
			<point x="659" y="660" type="line"/>
			<point x="638" y="660" type="line"/>
			<point x="391" y="47" type="line"/>
			<point x="379" y="19" type="line"/>
			<point x="379" y="19" type="line"/>
			<point x="367" y="48" type="line"/>
			<point x="120" y="660" type="line"/>
			<point x="99" y="660" type="line"/>
			<point x="99" y="0" type="line"/>
			<point x="115" y="0" type="line"/>
			<point x="115" y="580" type="line"/>
			<point x="114" y="637" type="line"/>
			<point x="114" y="637" type="line"/>
			<point x="369" y="0" type="line"/>
			<point x="389" y="0" type="line"/>
			<point x="644" y="637" type="line"/>
			<point x="644" y="637" type="line"/>
			<point x="643" y="580" type="line"/>
			<point x="643" y="0" type="line"/>
			<point x="659" y="0" type="line"/>
		</contour>
	</outline>
	<anchor name="bottom" x="379" y="0"/>
	<anchor name="ogonek" x="659" y="0"/>
	<anchor name="top" x="379" y="660"/>
</glyph>
<glyph name="N" format="2">
  <advance width="666"/>
  <unicode hex="004E"/>
  <anchor x="333" y="0" name="bottom"/>
  <anchor x="567" y="0" name="ogonek"/>
  <anchor x="339" y="660" name="top"/>
  <outline>
    <contour>
      <point x="567" y="660" type="line"/>
      <point x="551" y="660" type="line"/>
      <point x="551" y="73" type="line"/>
      <point x="552" y="16" type="line"/>
      <point x="552" y="16" type="line"/>
      <point x="527" y="55" type="line"/>
      <point x="121" y="660" type="line"/>
      <point x="99" y="660" type="line"/>
      <point x="99" y="0" type="line"/>
      <point x="115" y="0" type="line"/>
      <point x="115" y="587" type="line"/>
      <point x="114" y="644" type="line"/>
      <point x="114" y="644" type="line"/>
      <point x="139" y="605" type="line"/>
      <point x="545" y="0" type="line"/>
      <point x="567" y="0" type="line"/>
    </contour>
  </outline>
</glyph>
<glyph name="O" format="2">
	<unicode hex="004F"/>
	<advance width="686"/>
	<outline>
		<contour>
			<point x="343" y="670" type="curve" smooth="yes"/>
			<point x="167" y="670"/>
			<point x="56" y="539"/>
			<point x="56" y="330" type="curve" smooth="yes"/>
			<point x="56" y="121"/>
			<point x="167" y="-10"/>
			<point x="343" y="-10" type="curve" smooth="yes"/>
			<point x="519" y="-10"/>
			<point x="630" y="121"/>
			<point x="630" y="330" type="curve" smooth="yes"/>
			<point x="630" y="539"/>
			<point x="519" y="670"/>
		</contour>
		<contour>
			<point x="343" y="656" type="curve" smooth="yes"/>
			<point x="509" y="656"/>
			<point x="614" y="530"/>
			<point x="614" y="330" type="curve" smooth="yes"/>
			<point x="614" y="130"/>
			<point x="509" y="4"/>
			<point x="343" y="4" type="curve" smooth="yes"/>
			<point x="177" y="4"/>
			<point x="72" y="130"/>
			<point x="72" y="330" type="curve" smooth="yes"/>
			<point x="72" y="530"/>
			<point x="177" y="656"/>
		</contour>
	</outline>
	<anchor name="bottom" x="343" y="0"/>
	<anchor name="center" x="343" y="330"/>
	<anchor name="ogonek" x="416" y="0"/>
	<anchor name="top" x="343" y="660"/>
	<anchor name="topleft" x="22" y="660"/>
	<anchor name="topright" x="506" y="660"/>
</glyph>
<glyph name="P" format="2">
	<unicode hex="0050"/>
	<advance width="533"/>
	<outline>
		<contour>
			<point x="290" y="660" type="curve" smooth="yes"/>
			<point x="99" y="660" type="line"/>
			<point x="99" y="0" type="line"/>
			<point x="115" y="0" type="line"/>
			<point x="115" y="291" type="line"/>
			<point x="290" y="291" type="line" smooth="yes"/>
			<point x="421" y="291"/>
			<point x="500" y="359"/>
			<point x="500" y="475" type="curve" smooth="yes"/>
			<point x="500" y="591"/>
			<point x="421" y="660"/>
		</contour>
		<contour>
			<point x="290" y="305" type="curve" smooth="yes"/>
			<point x="115" y="305" type="line"/>
			<point x="115" y="646" type="line"/>
			<point x="290" y="646" type="line" smooth="yes"/>
			<point x="411" y="646"/>
			<point x="484" y="582"/>
			<point x="484" y="475" type="curve" smooth="yes"/>
			<point x="484" y="368"/>
			<point x="411" y="305"/>
		</contour>
	</outline>
	<anchor name="bottom" x="107" y="0"/>
	<anchor name="ogonek" x="115" y="0"/>
	<anchor name="top" x="263" y="660"/>
</glyph>
<glyph name="Q" format="2">
	<advance width="686"/>
	<unicode hex="0051"/>
	<anchor x="321" y="-210" name="bottom"/>
	<anchor x="519" y="-191" name="ogonek"/>
	<anchor x="321" y="660" name="top"/>
	<anchor x="506" y="660" name="topright"/>
	<anchor x="22" y="660" name="topleft"/>
	<anchor x="343" y="330" name="center"/>
	<outline>
		<contour>
			<point x="482" y="-195" type="curve" smooth="yes"/>
			<point x="524" y="-195"/>
			<point x="560" y="-183"/>
			<point x="584" y="-157" type="curve"/>
			<point x="576" y="-144" type="line"/>
			<point x="553" y="-171"/>
			<point x="518" y="-181"/>
			<point x="482" y="-181" type="curve" smooth="yes"/>
			<point x="398" y="-181"/>
			<point x="334" y="-115"/>
			<point x="334" y="-4" type="curve" smooth="yes"/>
			<point x="334" y="-2"/>
			<point x="334" y="-1"/>
			<point x="334" y="1" type="curve"/>
			<point x="320" y="1" type="line"/>
			<point x="320" y="-1"/>
			<point x="320" y="-2"/>
			<point x="320" y="-4" type="curve" smooth="yes"/>
			<point x="320" y="-121"/>
			<point x="391" y="-195"/>
		</contour>
		<component base="O"/>
	</outline>
</glyph>
<glyph name="R" format="2">
  <advance width="583"/>
  <unicode hex="0052"/>
  <anchor x="331" y="0" name="bottom"/>
  <anchor x="548" y="0" name="ogonek"/>
  <anchor x="282" y="660" name="top"/>
  <outline>
    <contour>
      <point x="324" y="660" type="curve" smooth="yes"/>
      <point x="99" y="660" type="line"/>
      <point x="99" y="0" type="line"/>
      <point x="115" y="0" type="line"/>
      <point x="115" y="300" type="line"/>
      <point x="321" y="300" type="line"/>
      <point x="324" y="300" type="line" smooth="yes"/>
      <point x="445" y="300"/>
      <point x="521" y="368"/>
      <point x="521" y="480" type="curve" smooth="yes"/>
      <point x="521" y="592"/>
      <point x="445" y="660"/>
    </contour>
    <contour>
      <point x="324" y="314" type="curve" smooth="yes"/>
      <point x="115" y="314" type="line"/>
      <point x="115" y="646" type="line"/>
      <point x="324" y="646" type="line" smooth="yes"/>
      <point x="437" y="646"/>
      <point x="505" y="584"/>
      <point x="505" y="480" type="curve" smooth="yes"/>
      <point x="505" y="376"/>
      <point x="437" y="314"/>
    </contour>
    <contour>
      <point x="353" y="314" type="line"/>
      <point x="340" y="304" type="line"/>
      <point x="530" y="0" type="line"/>
      <point x="548" y="0" type="line"/>
    </contour>
  </outline>
</glyph>
<glyph name="S" format="2">
  <advance width="566"/>
  <unicode hex="0053"/>
  <anchor x="293" y="0" name="bottom"/>
  <anchor x="373" y="0" name="ogonek"/>
  <anchor x="277" y="660" name="top"/>
  <outline>
    <contour>
      <point x="281" y="670" type="curve" smooth="yes"/>
      <point x="144" y="670"/>
      <point x="61" y="586"/>
      <point x="61" y="492" type="curve" smooth="yes"/>
      <point x="61" y="399"/>
      <point x="116" y="355"/>
      <point x="234" y="329" type="curve" smooth="yes"/>
      <point x="343" y="305" type="line" smooth="yes"/>
      <point x="459" y="279"/>
      <point x="504" y="238"/>
      <point x="504" y="167" type="curve" smooth="yes"/>
      <point x="504" y="61"/>
      <point x="411" y="4"/>
      <point x="294" y="4" type="curve" smooth="yes"/>
      <point x="172" y="4"/>
      <point x="74" y="57"/>
      <point x="57" y="174" type="curve"/>
      <point x="42" y="166" type="line"/>
      <point x="63" y="45"/>
      <point x="165" y="-10"/>
      <point x="294" y="-10" type="curve" smooth="yes"/>
      <point x="427" y="-10"/>
      <point x="520" y="61"/>
      <point x="520" y="167" type="curve" smooth="yes"/>
      <point x="520" y="248"/>
      <point x="472" y="293"/>
      <point x="349" y="320" type="curve" smooth="yes"/>
      <point x="240" y="344" type="line" smooth="yes"/>
      <point x="120" y="370"/>
      <point x="77" y="414"/>
      <point x="77" y="492" type="curve" smooth="yes"/>
      <point x="77" y="584"/>
      <point x="157" y="656"/>
      <point x="281" y="656" type="curve" smooth="yes"/>
      <point x="394" y="656"/>
      <point x="470" y="610"/>
      <point x="496" y="507" type="curve"/>
      <point x="509" y="517" type="line"/>
      <point x="479" y="623"/>
      <point x="399" y="670"/>
    </contour>
  </outline>
</glyph>
<glyph name="T" format="2">
  <advance width="516"/>
  <unicode hex="0054"/>
  <anchor x="258" y="0" name="bottom"/>
  <anchor x="258" y="341" name="center"/>
  <anchor x="266" y="0" name="ogonek"/>
  <anchor x="258" y="660" name="top"/>
  <outline>
    <contour>
      <point x="505" y="660" type="line"/>
      <point x="11" y="660" type="line"/>
      <point x="11" y="646" type="line"/>
      <point x="250" y="646" type="line"/>
      <point x="250" y="0" type="line"/>
      <point x="266" y="0" type="line"/>
      <point x="266" y="646" type="line"/>
      <point x="505" y="646" type="line"/>
    </contour>
  </outline>
</glyph>
<glyph name="U" format="2">
	<unicode hex="0055"/>
	<advance width="636"/>
	<outline>
		<contour>
			<point x="553" y="660" type="line"/>
			<point x="537" y="660" type="line"/>
			<point x="537" y="235" type="line" smooth="yes"/>
			<point x="537" y="88"/>
			<point x="455" y="4"/>
			<point x="318" y="4" type="curve" smooth="yes"/>
			<point x="181" y="4"/>
			<point x="99" y="88"/>
			<point x="99" y="235" type="curve" smooth="yes"/>
			<point x="99" y="660" type="line"/>
			<point x="83" y="660" type="line"/>
			<point x="83" y="235" type="line" smooth="yes"/>
			<point x="83" y="78"/>
			<point x="171" y="-10"/>
			<point x="318" y="-10" type="curve" smooth="yes"/>
			<point x="465" y="-10"/>
			<point x="553" y="78"/>
			<point x="553" y="235" type="curve" smooth="yes"/>
		</contour>
	</outline>
	<anchor name="bottom" x="318" y="0"/>
	<anchor name="ogonek" x="409" y="8"/>
	<anchor name="top" x="318" y="620"/>
	<anchor name="top_ring" x="318" y="598"/>
	<anchor name="topright" x="595" y="660"/>
</glyph>
<glyph name="V" format="2">
	<advance width="548"/>
	<unicode hex="0056"/>
	<anchor x="285" y="0" name="ogonek"/>
	<anchor x="274" y="0" name="bottom"/>
	<anchor x="274" y="660" name="top"/>
	<outline>
		<contour>
			<point x="531" y="660" type="line"/>
			<point x="514" y="660" type="line"/>
			<point x="300" y="87" type="line"/>
			<point x="274" y="18" type="line"/>
			<point x="248" y="87" type="line"/>
			<point x="34" y="660" type="line"/>
			<point x="17" y="660" type="line"/>
			<point x="263" y="0" type="line"/>
			<point x="285" y="0" type="line"/>
		</contour>
	</outline>
</glyph>
<glyph name="W" format="2">
	<unicode hex="0057"/>
	<advance width="881"/>
	<outline>
		<contour>
			<point x="234" y="0" type="line"/>
			<point x="255" y="0" type="line"/>
			<point x="401" y="502" type="line"/>
			<point x="440" y="638" type="line"/>
			<point x="441" y="638" type="line"/>
			<point x="481" y="502" type="line"/>
			<point x="626" y="0" type="line"/>
			<point x="647" y="0" type="line"/>
			<point x="858" y="660" type="line"/>
			<point x="841" y="660" type="line"/>
			<point x="636" y="16" type="line"/>
			<point x="451" y="660" type="line"/>
			<point x="430" y="660" type="line"/>
			<point x="245" y="16" type="line"/>
			<point x="40" y="660" type="line"/>
			<point x="23" y="660" type="line"/>
		</contour>
	</outline>
	<anchor name="bottom" x="441" y="0"/>
	<anchor name="ogonek" x="647" y="0"/>
	<anchor name="top" x="441" y="660"/>
</glyph>
<glyph name="X" format="2">
  <advance width="498"/>
  <unicode hex="0058"/>
  <anchor x="249" y="0" name="bottom"/>
  <anchor x="481" y="0" name="ogonek"/>
  <anchor x="249" y="660" name="top"/>
  <outline>
    <contour>
      <point x="481" y="0" type="line"/>
      <point x="260" y="340" type="line"/>
      <point x="473" y="660" type="line"/>
      <point x="451" y="660" type="line"/>
      <point x="249" y="356" type="line"/>
      <point x="52" y="660" type="line"/>
      <point x="32" y="660" type="line"/>
      <point x="239" y="342" type="line"/>
      <point x="12" y="0" type="line"/>
      <point x="33" y="0" type="line"/>
      <point x="249" y="326" type="line"/>
      <point x="461" y="0" type="line"/>
    </contour>
  </outline>
</glyph>
<glyph name="Y" format="2">
	<advance width="484"/>
	<unicode hex="0059"/>
	<anchor x="250" y="0" name="ogonek"/>
	<anchor x="242" y="0" name="bottom"/>
	<anchor x="242" y="620" name="top"/>
	<outline>
		<contour>
			<point x="468" y="660" type="line"/>
			<point x="449" y="660" type="line"/>
			<point x="328" y="434" type="line"/>
			<point x="242" y="273" type="line"/>
			<point x="156" y="434" type="line"/>
			<point x="35" y="660" type="line"/>
			<point x="16" y="660" type="line"/>
			<point x="234" y="256" type="line"/>
			<point x="234" y="0" type="line"/>
			<point x="250" y="0" type="line"/>
			<point x="250" y="256" type="line"/>
		</contour>
	</outline>
</glyph>
<glyph name="Z" format="2">
  <advance width="524"/>
  <unicode hex="005A"/>
  <anchor x="263" y="0" name="bottom"/>
  <anchor x="500" y="0" name="ogonek"/>
  <anchor x="263" y="660" name="top"/>
  <outline>
    <contour>
      <point x="43" y="8" type="line"/>
      <point x="481" y="646" type="line"/>
      <point x="481" y="660" type="line"/>
      <point x="36" y="660" type="line"/>
      <point x="36" y="646" type="line"/>
      <point x="470" y="646" type="line"/>
      <point x="467" y="652" type="line"/>
      <point x="29" y="14" type="line"/>
      <point x="29" y="0" type="line"/>
      <point x="500" y="0" type="line"/>
      <point x="500" y="14" type="line"/>
      <point x="40" y="14" type="line"/>
    </contour>
  </outline>
</glyph>
<glyph name="bracketleft" format="2">
  <advance width="268"/>
  <unicode hex="005B"/>
  <outline>
    <contour>
      <point x="257" y="716" type="line"/>
      <point x="257" y="730" type="line"/>
      <point x="76" y="730" type="line"/>
      <point x="76" y="-168" type="line"/>
      <point x="257" y="-168" type="line"/>
      <point x="257" y="-154" type="line"/>
      <point x="91" y="-154" type="line"/>
      <point x="91" y="716" type="line"/>
    </contour>
  </outline>
</glyph>
<glyph name="asciicircum" format="2">
	<unicode hex="005E"/>
	<advance width="533"/>
	<outline>
		<contour>
			<point x="37" y="355" type="line"/>
			<point x="56" y="355" type="line"/>
			<point x="267" y="714" type="line"/>
			<point x="477" y="355" type="line"/>
			<point x="496" y="355" type="line"/>
			<point x="276" y="730" type="line"/>
			<point x="257" y="730" type="line"/>
		</contour>
	</outline>
</glyph>
<glyph name="underscore" format="2">
  <advance width="499"/>
  <unicode hex="005F"/>
  <outline>
    <contour>
      <point x="499" y="-97" type="line"/>
      <point x="0" y="-97" type="line"/>
      <point x="0" y="-111" type="line"/>
      <point x="499" y="-111" type="line"/>
    </contour>
  </outline>
</glyph>
<glyph name="a" format="2">
	<advance width="489"/>
	<unicode hex="0061"/>
	<anchor x="487" y="0" name="ogonek"/>
	<anchor x="231" y="0" name="bottom"/>
	<anchor x="231" y="500" name="top"/>
	<outline>
		<contour>
			<point x="385" y="336" type="curve" smooth="yes"/>
			<point x="385" y="165" type="line" smooth="yes"/>
			<point x="385" y="51"/>
			<point x="275" y="4"/>
			<point x="201" y="4" type="curve" smooth="yes"/>
			<point x="113" y="4"/>
			<point x="65" y="43"/>
			<point x="65" y="114" type="curve" smooth="yes"/>
			<point x="65" y="176"/>
			<point x="108" y="215"/>
			<point x="195" y="233" type="curve" smooth="yes"/>
			<point x="388" y="273" type="line"/>
			<point x="388" y="287" type="line"/>
			<point x="184" y="245" type="line" smooth="yes"/>
			<point x="98" y="227"/>
			<point x="49" y="187"/>
			<point x="49" y="112" type="curve" smooth="yes"/>
			<point x="49" y="34"/>
			<point x="105" y="-10"/>
			<point x="199" y="-10" type="curve" smooth="yes"/>
			<point x="285" y="-10"/>
			<point x="378" y="37"/>
			<point x="392" y="136" type="curve"/>
			<point x="385" y="130" type="line"/>
			<point x="385" y="84" type="line" smooth="yes"/>
			<point x="385" y="6"/>
			<point x="424" y="-8"/>
			<point x="453" y="-8" type="curve" smooth="yes"/>
			<point x="470" y="-8"/>
			<point x="480" y="-4"/>
			<point x="487" y="0" type="curve"/>
			<point x="488" y="14" type="line"/>
			<point x="479" y="8"/>
			<point x="470" y="6"/>
			<point x="456" y="6" type="curve" smooth="yes"/>
			<point x="420" y="6"/>
			<point x="401" y="29"/>
			<point x="401" y="78" type="curve" smooth="yes"/>
			<point x="401" y="336" type="line" smooth="yes"/>
			<point x="401" y="446"/>
			<point x="341" y="510"/>
			<point x="236" y="510" type="curve" smooth="yes"/>
			<point x="148" y="510"/>
			<point x="85" y="471"/>
			<point x="56" y="388" type="curve"/>
			<point x="69" y="378" type="line"/>
			<point x="97" y="462"/>
			<point x="157" y="496"/>
			<point x="236" y="496" type="curve" smooth="yes"/>
			<point x="331" y="496"/>
			<point x="385" y="434"/>
		</contour>
	</outline>
</glyph>
<glyph name="b" format="2">
	<advance width="557"/>
	<unicode hex="0062"/>
	<anchor x="401" y="21" name="ogonek"/>
	<anchor x="288" y="0" name="bottom"/>
	<anchor x="93" y="680" name="top"/>
	<outline>
		<contour>
			<point x="294" y="-10" type="curve" smooth="yes"/>
			<point x="422" y="-10"/>
			<point x="506" y="87"/>
			<point x="506" y="250" type="curve" smooth="yes"/>
			<point x="506" y="413"/>
			<point x="422" y="510"/>
			<point x="294" y="510" type="curve" smooth="yes"/>
			<point x="200" y="510"/>
			<point x="123" y="450"/>
			<point x="100" y="345" type="curve"/>
			<point x="101" y="343" type="line"/>
			<point x="101" y="730" type="line"/>
			<point x="85" y="730" type="line"/>
			<point x="85" y="0" type="line"/>
			<point x="101" y="0" type="line"/>
			<point x="101" y="159" type="line"/>
			<point x="100" y="157" type="line"/>
			<point x="121" y="51"/>
			<point x="198" y="-10"/>
		</contour>
		<contour>
			<point x="291" y="4" type="curve" smooth="yes"/>
			<point x="183" y="4"/>
			<point x="101" y="100"/>
			<point x="101" y="250" type="curve" smooth="yes"/>
			<point x="101" y="400"/>
			<point x="182" y="496"/>
			<point x="291" y="496" type="curve" smooth="yes"/>
			<point x="411" y="496"/>
			<point x="490" y="405"/>
			<point x="490" y="250" type="curve" smooth="yes"/>
			<point x="490" y="95"/>
			<point x="411" y="4"/>
		</contour>
	</outline>
</glyph>
<glyph name="c" format="2">
	<unicode hex="0063"/>
	<advance width="496"/>
	<outline>
		<contour>
			<point x="266" y="510" type="curve" smooth="yes"/>
			<point x="143" y="510"/>
			<point x="51" y="412"/>
			<point x="51" y="250" type="curve" smooth="yes"/>
			<point x="51" y="88"/>
			<point x="140" y="-10"/>
			<point x="263" y="-10" type="curve" smooth="yes"/>
			<point x="357" y="-10"/>
			<point x="438" y="47"/>
			<point x="454" y="137" type="curve"/>
			<point x="440" y="142" type="line"/>
			<point x="427" y="57"/>
			<point x="349" y="4"/>
			<point x="263" y="4" type="curve" smooth="yes"/>
			<point x="150" y="4"/>
			<point x="67" y="97"/>
			<point x="67" y="250" type="curve" smooth="yes"/>
			<point x="67" y="403"/>
			<point x="153" y="496"/>
			<point x="266" y="496" type="curve" smooth="yes"/>
			<point x="352" y="496"/>
			<point x="416" y="449"/>
			<point x="436" y="366" type="curve"/>
			<point x="450" y="373" type="line"/>
			<point x="428" y="461"/>
			<point x="358" y="510"/>
		</contour>
	</outline>
	<anchor name="bottom" x="262" y="0"/>
	<anchor name="ogonek" x="373" y="21"/>
	<anchor name="top" x="260" y="500"/>
</glyph>
<glyph name="d" format="2">
	<advance width="557"/>
	<unicode hex="0064"/>
	<anchor x="285" y="281" name="center"/>
	<anchor x="372" y="21" name="ogonek"/>
	<anchor x="464" y="680" name="top"/>
	<anchor x="575" y="730" name="topright"/>
	<anchor x="269" y="0" name="bottom"/>
	<outline>
		<contour>
			<point x="265" y="-10" type="curve" smooth="yes"/>
			<point x="361" y="-10"/>
			<point x="436" y="51"/>
			<point x="457" y="157" type="curve"/>
			<point x="456" y="159" type="line"/>
			<point x="456" y="0" type="line"/>
			<point x="472" y="0" type="line"/>
			<point x="472" y="730" type="line"/>
			<point x="456" y="730" type="line"/>
			<point x="456" y="343" type="line"/>
			<point x="457" y="345" type="line"/>
			<point x="434" y="450"/>
			<point x="360" y="510"/>
			<point x="266" y="510" type="curve" smooth="yes"/>
			<point x="138" y="510"/>
			<point x="51" y="413"/>
			<point x="51" y="250" type="curve" smooth="yes"/>
			<point x="51" y="87"/>
			<point x="138" y="-10"/>
		</contour>
		<contour>
			<point x="268" y="4" type="curve" smooth="yes"/>
			<point x="148" y="4"/>
			<point x="67" y="96"/>
			<point x="67" y="250" type="curve" smooth="yes"/>
			<point x="67" y="404"/>
			<point x="148" y="496"/>
			<point x="268" y="496" type="curve" smooth="yes"/>
			<point x="377" y="496"/>
			<point x="456" y="401"/>
			<point x="456" y="250" type="curve" smooth="yes"/>
			<point x="456" y="99"/>
			<point x="376" y="4"/>
		</contour>
	</outline>
</glyph>
<glyph name="e" format="2">
	<unicode hex="0065"/>
	<advance width="506"/>
	<outline>
		<contour>
			<point x="268" y="-10" type="curve" smooth="yes"/>
			<point x="351" y="-10"/>
			<point x="421" y="35"/>
			<point x="454" y="109" type="curve"/>
			<point x="441" y="116" type="line"/>
			<point x="410" y="46"/>
			<point x="344" y="4"/>
			<point x="268" y="4" type="curve" smooth="yes"/>
			<point x="153" y="4"/>
			<point x="67" y="96"/>
			<point x="67" y="250" type="curve" smooth="yes"/>
			<point x="67" y="404"/>
			<point x="152" y="496"/>
			<point x="261" y="496" type="curve" smooth="yes"/>
			<point x="378" y="496"/>
			<point x="443" y="401"/>
			<point x="444" y="264" type="curve"/>
			<point x="451" y="270" type="line"/>
			<point x="59" y="270" type="line"/>
			<point x="59" y="255" type="line"/>
			<point x="458" y="255" type="line"/>
			<point x="458" y="257"/>
			<point x="458" y="260"/>
			<point x="458" y="262" type="curve" smooth="yes"/>
			<point x="458" y="416"/>
			<point x="384" y="510"/>
			<point x="261" y="510" type="curve" smooth="yes"/>
			<point x="143" y="510"/>
			<point x="51" y="413"/>
			<point x="51" y="250" type="curve" smooth="yes"/>
			<point x="51" y="87"/>
			<point x="144" y="-10"/>
		</contour>
	</outline>
	<anchor name="bottom" x="269" y="0"/>
	<anchor name="ogonek" x="347" y="5"/>
	<anchor name="top" x="257" y="500"/>
</glyph>
<glyph name="f" format="2">
	<unicode hex="0066"/>
	<advance width="292"/>
	<outline>
		<contour>
			<point x="224" y="735" type="curve" smooth="yes"/>
			<point x="148" y="735"/>
			<point x="103" y="677"/>
			<point x="103" y="583" type="curve" smooth="yes"/>
			<point x="103" y="0" type="line"/>
			<point x="119" y="0" type="line"/>
			<point x="119" y="491" type="line"/>
			<point x="119" y="500" type="line"/>
			<point x="119" y="583" type="line" smooth="yes"/>
			<point x="119" y="669"/>
			<point x="159" y="721"/>
			<point x="224" y="721" type="curve" smooth="yes"/>
			<point x="253" y="721"/>
			<point x="271" y="713"/>
			<point x="287" y="692" type="curve"/>
			<point x="294" y="704" type="line"/>
			<point x="279" y="722"/>
			<point x="259" y="735"/>
		</contour>
		<contour>
			<point x="287" y="500" type="line"/>
			<point x="12" y="500" type="line"/>
			<point x="12" y="486" type="line"/>
			<point x="287" y="486" type="line"/>
		</contour>
	</outline>
	<anchor name="bottom" x="111" y="0"/>
	<anchor name="ogonek" x="119" y="0"/>
	<anchor name="top" x="198" y="730"/>
</glyph>
<glyph name="g" format="2">
	<unicode hex="0067"/>
	<advance width="468"/>
	<outline>
		<contour>
			<point x="463" y="592" type="line"/>
			<point x="461" y="592"/>
			<point x="462" y="592"/>
			<point x="460" y="592" type="curve" smooth="yes"/>
			<point x="398" y="592"/>
			<point x="358" y="543"/>
			<point x="358" y="470" type="curve"/>
			<point x="370" y="465" type="line"/>
			<point x="370" y="530"/>
			<point x="404" y="578"/>
			<point x="465" y="578" type="curve" smooth="yes"/>
			<point x="466" y="578"/>
			<point x="467" y="578"/>
			<point x="468" y="578" type="curve"/>
		</contour>
		<contour>
			<point x="308" y="37" type="curve" smooth="yes"/>
			<point x="193" y="37" type="line" smooth="yes"/>
			<point x="137" y="37"/>
			<point x="89" y="64"/>
			<point x="89" y="119" type="curve" smooth="yes"/>
			<point x="89" y="173"/>
			<point x="140" y="199"/>
			<point x="195" y="199" type="curve" smooth="yes"/>
			<point x="224" y="199" type="line"/>
			<point x="177" y="207" type="line"/>
			<point x="120" y="207"/>
			<point x="73" y="173"/>
			<point x="73" y="117" type="curve" smooth="yes"/>
			<point x="73" y="68"/>
			<point x="112" y="40"/>
			<point x="149" y="30" type="curve"/>
			<point x="150" y="32" type="line"/>
			<point x="82" y="22"/>
			<point x="34" y="-22"/>
			<point x="34" y="-81" type="curve" smooth="yes"/>
			<point x="34" y="-161"/>
			<point x="116" y="-215"/>
			<point x="250" y="-215" type="curve" smooth="yes"/>
			<point x="377" y="-215"/>
			<point x="464" y="-157"/>
			<point x="464" y="-73" type="curve" smooth="yes"/>
			<point x="464" y="-7"/>
			<point x="404" y="37"/>
		</contour>
		<contour>
			<point x="252" y="-201" type="curve" smooth="yes"/>
			<point x="127" y="-201"/>
			<point x="50" y="-151"/>
			<point x="50" y="-79" type="curve" smooth="yes"/>
			<point x="50" y="-19"/>
			<point x="107" y="23"/>
			<point x="187" y="23" type="curve" smooth="yes"/>
			<point x="307" y="23" type="line" smooth="yes"/>
			<point x="393" y="23"/>
			<point x="448" y="-16"/>
			<point x="448" y="-75" type="curve" smooth="yes"/>
			<point x="448" y="-150"/>
			<point x="362" y="-201"/>
		</contour>
		<contour>
			<point x="244" y="510" type="curve" smooth="yes"/>
			<point x="133" y="510"/>
			<point x="58" y="448"/>
			<point x="58" y="353" type="curve" smooth="yes"/>
			<point x="58" y="258"/>
			<point x="133" y="196"/>
			<point x="244" y="196" type="curve" smooth="yes"/>
			<point x="354" y="196"/>
			<point x="428" y="258"/>
			<point x="428" y="353" type="curve" smooth="yes"/>
			<point x="428" y="448"/>
			<point x="354" y="510"/>
		</contour>
		<contour>
			<point x="244" y="496" type="curve" smooth="yes"/>
			<point x="345" y="496"/>
			<point x="412" y="439"/>
			<point x="412" y="353" type="curve" smooth="yes"/>
			<point x="412" y="267"/>
			<point x="345" y="210"/>
			<point x="244" y="210" type="curve" smooth="yes"/>
			<point x="142" y="210"/>
			<point x="74" y="267"/>
			<point x="74" y="353" type="curve" smooth="yes"/>
			<point x="74" y="439"/>
			<point x="142" y="496"/>
		</contour>
	</outline>
	<anchor name="bottom" x="240" y="-210"/>
	<anchor name="ogonek" x="376" y="-189"/>
	<anchor name="top" x="240" y="500"/>
</glyph>
<glyph name="h" format="2">
	<unicode hex="0068"/>
	<advance width="546"/>
	<outline>
		<contour>
			<point x="85" y="0" type="line"/>
			<point x="101" y="0" type="line"/>
			<point x="101" y="302" type="line" smooth="yes"/>
			<point x="101" y="406"/>
			<point x="183" y="497"/>
			<point x="291" y="497" type="curve" smooth="yes"/>
			<point x="388" y="497"/>
			<point x="451" y="435"/>
			<point x="451" y="328" type="curve" smooth="yes"/>
			<point x="451" y="1" type="line"/>
			<point x="467" y="1" type="line"/>
			<point x="467" y="330" type="line" smooth="yes"/>
			<point x="467" y="445"/>
			<point x="400" y="511"/>
			<point x="294" y="511" type="curve" smooth="yes"/>
			<point x="197" y="511"/>
			<point x="123" y="450"/>
			<point x="101" y="368" type="curve"/>
			<point x="101" y="730" type="line"/>
			<point x="85" y="730" type="line"/>
		</contour>
	</outline>
	<anchor name="bottom" x="307" y="0"/>
	<anchor name="ogonek" x="467" y="0"/>
	<anchor name="top" x="93" y="680"/>
</glyph>
<glyph name="k" format="2">
  <advance width="454"/>
  <unicode hex="006B"/>
  <anchor x="293" y="0" name="bottom"/>
  <anchor x="93" y="680" name="top"/>
  <outline>
    <contour>
      <point x="437" y="500" type="line"/>
      <point x="414" y="500" type="line"/>
      <point x="93" y="177" type="line"/>
      <point x="93" y="155" type="line"/>
      <point x="226" y="289" type="line"/>
      <point x="230" y="292" type="line"/>
    </contour>
    <contour>
      <point x="101" y="730" type="line"/>
      <point x="85" y="730" type="line"/>
      <point x="85" y="0" type="line"/>
      <point x="101" y="0" type="line"/>
    </contour>
    <contour>
      <point x="230" y="302" type="line"/>
      <point x="218" y="291" type="line"/>
      <point x="422" y="0" type="line"/>
      <point x="442" y="0" type="line"/>
    </contour>
  </outline>
</glyph>
<glyph name="l" format="2">
	<unicode hex="006C"/>
	<advance width="209"/>
	<outline>
		<contour>
			<point x="97" y="730" type="line"/>
			<point x="81" y="730" type="line"/>
			<point x="81" y="107" type="line" smooth="yes"/>
			<point x="81" y="33"/>
			<point x="100" y="-10"/>
			<point x="153" y="-10" type="curve" smooth="yes"/>
			<point x="173" y="-10"/>
			<point x="189" y="-5"/>
			<point x="199" y="2" type="curve"/>
			<point x="200" y="16" type="line"/>
			<point x="187" y="8"/>
			<point x="176" y="4"/>
			<point x="154" y="4" type="curve" smooth="yes"/>
			<point x="112" y="4"/>
			<point x="97" y="41"/>
			<point x="97" y="107" type="curve" smooth="yes"/>
		</contour>
	</outline>
	<anchor name="bottom" x="144" y="0"/>
	<anchor name="center" x="190" y="360"/>
	<anchor name="ogonek" x="193" y="0"/>
	<anchor name="top" x="89" y="730"/>
	<anchor name="topright" x="185" y="730"/>
</glyph>
<glyph name="m" format="2">
	<advance width="940"/>
	<unicode hex="006D"/>
	<anchor x="861" y="2" name="ogonek"/>
	<anchor x="473" y="0" name="bottom"/>
	<anchor x="473" y="500" name="top"/>
	<outline>
		<contour>
			<point x="85" y="0" type="line"/>
			<point x="101" y="0" type="line"/>
			<point x="101" y="301" type="line" smooth="yes"/>
			<point x="101" y="405"/>
			<point x="186" y="496"/>
			<point x="298" y="496" type="curve" smooth="yes"/>
			<point x="400" y="496"/>
			<point x="465" y="434"/>
			<point x="465" y="327" type="curve" smooth="yes"/>
			<point x="465" y="0" type="line"/>
			<point x="481" y="0" type="line"/>
			<point x="481" y="303" type="line" smooth="yes"/>
			<point x="481" y="407"/>
			<point x="566" y="498"/>
			<point x="678" y="498" type="curve" smooth="yes"/>
			<point x="780" y="498"/>
			<point x="845" y="436"/>
			<point x="845" y="329" type="curve" smooth="yes"/>
			<point x="845" y="2" type="line"/>
			<point x="861" y="2" type="line"/>
			<point x="861" y="331" type="line" smooth="yes"/>
			<point x="861" y="446"/>
			<point x="792" y="512"/>
			<point x="681" y="512" type="curve" smooth="yes"/>
			<point x="578" y="512"/>
			<point x="498" y="447"/>
			<point x="479" y="361" type="curve"/>
			<point x="467" y="456"/>
			<point x="401" y="510"/>
			<point x="301" y="510" type="curve" smooth="yes"/>
			<point x="201" y="510"/>
			<point x="123" y="449"/>
			<point x="101" y="367" type="curve"/>
			<point x="101" y="500" type="line"/>
			<point x="85" y="500" type="line"/>
		</contour>
	</outline>
</glyph>
<glyph name="n" format="2">
	<unicode hex="006E"/>
	<advance width="546"/>
	<outline>
		<contour>
			<point x="85" y="0" type="line"/>
			<point x="101" y="0" type="line"/>
			<point x="101" y="301" type="line" smooth="yes"/>
			<point x="101" y="405"/>
			<point x="183" y="496"/>
			<point x="291" y="496" type="curve" smooth="yes"/>
			<point x="388" y="496"/>
			<point x="451" y="434"/>
			<point x="451" y="327" type="curve" smooth="yes"/>
			<point x="451" y="0" type="line"/>
			<point x="467" y="0" type="line"/>
			<point x="467" y="329" type="line" smooth="yes"/>
			<point x="467" y="444"/>
			<point x="400" y="510"/>
			<point x="294" y="510" type="curve" smooth="yes"/>
			<point x="197" y="510"/>
			<point x="120" y="449"/>
			<point x="100" y="363" type="curve"/>
			<point x="101" y="360" type="line"/>
			<point x="101" y="500" type="line"/>
			<point x="85" y="500" type="line"/>
		</contour>
	</outline>
	<anchor name="bottom" x="307" y="0"/>
	<anchor name="ogonek" x="467" y="0"/>
	<anchor name="top" x="279" y="500"/>
</glyph>
<glyph name="o" format="2">
	<unicode hex="006F"/>
	<advance width="541"/>
	<outline>
		<contour>
			<point x="271" y="510" type="curve" smooth="yes"/>
			<point x="142" y="510"/>
			<point x="51" y="412"/>
			<point x="51" y="250" type="curve" smooth="yes"/>
			<point x="51" y="88"/>
			<point x="142" y="-10"/>
			<point x="271" y="-10" type="curve" smooth="yes"/>
			<point x="400" y="-10"/>
			<point x="490" y="88"/>
			<point x="490" y="250" type="curve" smooth="yes"/>
			<point x="490" y="412"/>
			<point x="400" y="510"/>
		</contour>
		<contour>
			<point x="271" y="496" type="curve" smooth="yes"/>
			<point x="390" y="496"/>
			<point x="474" y="403"/>
			<point x="474" y="250" type="curve" smooth="yes"/>
			<point x="474" y="97"/>
			<point x="390" y="4"/>
			<point x="271" y="4" type="curve" smooth="yes"/>
			<point x="151" y="4"/>
			<point x="67" y="98"/>
			<point x="67" y="250" type="curve" smooth="yes"/>
			<point x="67" y="402"/>
			<point x="151" y="496"/>
		</contour>
	</outline>
	<anchor name="bottom" x="271" y="0"/>
	<anchor name="center" x="271" y="250"/>
	<anchor name="ogonek" x="361" y="9"/>
	<anchor name="top" x="271" y="496"/>
	<anchor name="topright" x="396" y="500"/>
</glyph>
<glyph name="p" format="2">
	<advance width="557"/>
	<unicode hex="0070"/>
	<anchor x="402" y="21" name="ogonek"/>
	<anchor x="93" y="-210" name="bottom"/>
	<anchor x="288" y="500" name="top"/>
	<outline>
		<contour>
			<point x="85" y="-210" type="line"/>
			<point x="101" y="-210" type="line"/>
			<point x="101" y="157" type="line"/>
			<point x="100" y="155" type="line"/>
			<point x="123" y="50"/>
			<point x="200" y="-10"/>
			<point x="294" y="-10" type="curve" smooth="yes"/>
			<point x="422" y="-10"/>
			<point x="506" y="87"/>
			<point x="506" y="250" type="curve" smooth="yes"/>
			<point x="506" y="413"/>
			<point x="422" y="510"/>
			<point x="294" y="510" type="curve" smooth="yes"/>
			<point x="199" y="510"/>
			<point x="121" y="449"/>
			<point x="100" y="343" type="curve"/>
			<point x="101" y="341" type="line"/>
			<point x="101" y="500" type="line"/>
			<point x="85" y="500" type="line"/>
		</contour>
		<contour>
			<point x="291" y="4" type="curve" smooth="yes"/>
			<point x="182" y="4"/>
			<point x="101" y="100"/>
			<point x="101" y="250" type="curve" smooth="yes"/>
			<point x="101" y="400"/>
			<point x="183" y="496"/>
			<point x="291" y="496" type="curve" smooth="yes"/>
			<point x="411" y="496"/>
			<point x="490" y="405"/>
			<point x="490" y="250" type="curve" smooth="yes"/>
			<point x="490" y="95"/>
			<point x="411" y="4"/>
		</contour>
	</outline>
</glyph>
<glyph name="q" format="2">
	<unicode hex="0071"/>
	<advance width="557"/>
	<outline>
		<contour>
			<point x="456" y="-210" type="line"/>
			<point x="472" y="-210" type="line"/>
			<point x="472" y="500" type="line"/>
			<point x="456" y="500" type="line"/>
			<point x="456" y="341" type="line"/>
			<point x="457" y="343" type="line"/>
			<point x="436" y="449"/>
			<point x="361" y="510"/>
			<point x="266" y="510" type="curve" smooth="yes"/>
			<point x="138" y="510"/>
			<point x="51" y="413"/>
			<point x="51" y="250" type="curve" smooth="yes"/>
			<point x="51" y="87"/>
			<point x="138" y="-10"/>
			<point x="265" y="-10" type="curve" smooth="yes"/>
			<point x="360" y="-10"/>
			<point x="434" y="50"/>
			<point x="457" y="155" type="curve"/>
			<point x="456" y="157" type="line"/>
		</contour>
		<contour>
			<point x="268" y="4" type="curve" smooth="yes"/>
			<point x="148" y="4"/>
			<point x="67" y="96"/>
			<point x="67" y="250" type="curve" smooth="yes"/>
			<point x="67" y="404"/>
			<point x="148" y="496"/>
			<point x="268" y="496" type="curve" smooth="yes"/>
			<point x="376" y="496"/>
			<point x="456" y="401"/>
			<point x="456" y="250" type="curve" smooth="yes"/>
			<point x="456" y="99"/>
			<point x="377" y="4"/>
		</contour>
	</outline>
	<anchor name="bottom" x="464" y="-210"/>
	<anchor name="ogonek" x="371" y="21"/>
	<anchor name="top" x="268" y="500"/>
</glyph>
<glyph name="r" format="2">
  <advance width="315"/>
  <unicode hex="0072"/>
  <anchor x="93" y="0" name="bottom"/>
  <anchor x="101" y="0" name="ogonek"/>
  <anchor x="189" y="500" name="top"/>
  <outline>
    <contour>
      <point x="85" y="0" type="line"/>
      <point x="101" y="0" type="line"/>
      <point x="101" y="291" type="line" smooth="yes"/>
      <point x="101" y="394"/>
      <point x="162" y="496"/>
      <point x="243" y="496" type="curve" smooth="yes"/>
      <point x="276" y="496"/>
      <point x="288" y="487"/>
      <point x="300" y="474" type="curve"/>
      <point x="308" y="486" type="line"/>
      <point x="296" y="500"/>
      <point x="276" y="510"/>
      <point x="246" y="510" type="curve" smooth="yes"/>
      <point x="174" y="510"/>
      <point x="121" y="449"/>
      <point x="101" y="370" type="curve"/>
      <point x="101" y="500" type="line"/>
      <point x="85" y="500" type="line"/>
    </contour>
  </outline>
</glyph>
<glyph name="s" format="2">
	<unicode hex="0073"/>
	<advance width="451"/>
	<outline>
		<contour>
			<point x="226" y="-10" type="curve" smooth="yes"/>
			<point x="335" y="-10"/>
			<point x="404" y="41"/>
			<point x="404" y="124" type="curve" smooth="yes"/>
			<point x="404" y="193"/>
			<point x="360" y="225"/>
			<point x="285" y="243" type="curve" smooth="yes"/>
			<point x="177" y="269" type="line" smooth="yes"/>
			<point x="101" y="287"/>
			<point x="73" y="328"/>
			<point x="73" y="378" type="curve" smooth="yes"/>
			<point x="73" y="445"/>
			<point x="139" y="496"/>
			<point x="229" y="496" type="curve" smooth="yes"/>
			<point x="316" y="496"/>
			<point x="371" y="459"/>
			<point x="387" y="377" type="curve"/>
			<point x="401" y="385" type="line"/>
			<point x="383" y="472"/>
			<point x="324" y="510"/>
			<point x="229" y="510" type="curve" smooth="yes"/>
			<point x="130" y="510"/>
			<point x="57" y="451"/>
			<point x="57" y="374" type="curve" smooth="yes"/>
			<point x="57" y="317"/>
			<point x="91" y="273"/>
			<point x="176" y="253" type="curve" smooth="yes"/>
			<point x="282" y="228" type="line" smooth="yes"/>
			<point x="360" y="210"/>
			<point x="388" y="177"/>
			<point x="388" y="124" type="curve" smooth="yes"/>
			<point x="388" y="51"/>
			<point x="326" y="4"/>
			<point x="229" y="4" type="curve" smooth="yes"/>
			<point x="135" y="4"/>
			<point x="68" y="43"/>
			<point x="52" y="118" type="curve"/>
			<point x="37" y="111" type="line"/>
			<point x="55" y="31"/>
			<point x="130" y="-10"/>
		</contour>
	</outline>
	<anchor name="bottom" x="232" y="0"/>
	<anchor name="ogonek" x="346" y="21"/>
	<anchor name="top" x="225" y="500"/>
</glyph>
<glyph name="t" format="2">
	<advance width="301"/>
	<unicode hex="0074"/>
	<anchor x="151" y="250" name="center"/>
	<anchor x="276" y="9" name="ogonek"/>
	<anchor x="110" y="602" name="top"/>
	<anchor x="226" y="767" name="topright"/>
	<anchor x="201" y="0" name="bottom"/>
	<outline>
		<contour>
			<point x="118" y="635" type="line"/>
			<point x="102" y="630" type="line"/>
			<point x="102" y="126" type="line" smooth="yes"/>
			<point x="102" y="37"/>
			<point x="138" y="-10"/>
			<point x="211" y="-10" type="curve" smooth="yes"/>
			<point x="248" y="-10"/>
			<point x="281" y="7"/>
			<point x="299" y="28" type="curve"/>
			<point x="291" y="41" type="line"/>
			<point x="270" y="15"/>
			<point x="243" y="4"/>
			<point x="211" y="4" type="curve" smooth="yes"/>
			<point x="147" y="4"/>
			<point x="118" y="46"/>
			<point x="118" y="126" type="curve" smooth="yes"/>
		</contour>
		<contour>
			<point x="293" y="500" type="line"/>
			<point x="11" y="500" type="line"/>
			<point x="11" y="486" type="line"/>
			<point x="293" y="486" type="line"/>
		</contour>
	</outline>
</glyph>
<glyph name="u" format="2">
  <advance width="536"/>
  <unicode hex="0075"/>
  <anchor x="266" y="0" name="bottom"/>
  <anchor x="451" y="0" name="ogonek"/>
  <anchor x="266" y="480" name="top"/>
  <anchor x="492" y="506" name="topright"/>
  <outline>
    <contour>
      <point x="242" y="-10" type="curve" smooth="yes"/>
      <point x="343" y="-10"/>
      <point x="415" y="55"/>
      <point x="435" y="133" type="curve"/>
      <point x="435" y="0" type="line"/>
      <point x="451" y="0" type="line"/>
      <point x="451" y="500" type="line"/>
      <point x="435" y="500" type="line"/>
      <point x="435" y="196" type="line" smooth="yes"/>
      <point x="435" y="122"/>
      <point x="377" y="4"/>
      <point x="245" y="4" type="curve" smooth="yes"/>
      <point x="150" y="4"/>
      <point x="95" y="64"/>
      <point x="95" y="169" type="curve" smooth="yes"/>
      <point x="95" y="500" type="line"/>
      <point x="79" y="500" type="line"/>
      <point x="79" y="167" type="line" smooth="yes"/>
      <point x="79" y="54"/>
      <point x="139" y="-10"/>
    </contour>
  </outline>
</glyph>
<glyph name="w" format="2">
  <advance width="751"/>
  <unicode hex="0077"/>
  <anchor x="376" y="0" name="bottom"/>
  <anchor x="563" y="0" name="ogonek"/>
  <anchor x="376" y="500" name="top"/>
  <outline>
    <contour>
      <point x="705" y="500" type="line"/>
      <point x="554" y="23" type="line"/>
      <point x="384" y="500" type="line"/>
      <point x="367" y="500" type="line"/>
      <point x="197" y="23" type="line"/>
      <point x="46" y="500" type="line"/>
      <point x="29" y="500" type="line"/>
      <point x="188" y="0" type="line"/>
      <point x="204" y="0" type="line"/>
      <point x="376" y="477" type="line"/>
      <point x="547" y="0" type="line"/>
      <point x="563" y="0" type="line"/>
      <point x="722" y="500" type="line"/>
    </contour>
  </outline>
</glyph>
<glyph name="x" format="2">
	<advance width="444"/>
	<unicode hex="0078"/>
	<anchor x="434" y="0" name="ogonek"/>
	<anchor x="222" y="0" name="bottom"/>
	<anchor x="222" y="500" name="top"/>
	<outline>
		<contour>
			<point x="49" y="500" type="line"/>
			<point x="26" y="500" type="line"/>
			<point x="214" y="256" type="line"/>
			<point x="217" y="251" type="line"/>
			<point x="410" y="0" type="line"/>
			<point x="434" y="0" type="line"/>
			<point x="227" y="268" type="line"/>
			<point x="224" y="273" type="line"/>
		</contour>
		<contour>
			<point x="407" y="500" type="line"/>
			<point x="386" y="500" type="line"/>
			<point x="217" y="269" type="line"/>
			<point x="214" y="265" type="line"/>
			<point x="19" y="0" type="line"/>
			<point x="41" y="0" type="line"/>
			<point x="224" y="250" type="line"/>
			<point x="230" y="259" type="line"/>
		</contour>
	</outline>
</glyph>
<glyph name="y" format="2">
  <advance width="453"/>
  <unicode hex="0079"/>
  <anchor x="339" y="-75" name="bottom"/>
  <anchor x="107" y="-210" name="ogonek"/>
  <anchor x="229" y="480" name="top"/>
  <anchor x="235" y="427" name="top_hook"/>
  <outline>
    <contour>
      <point x="431" y="500" type="line"/>
      <point x="413" y="500" type="line"/>
      <point x="244" y="61" type="line"/>
      <point x="228" y="18" type="line"/>
      <point x="211" y="60" type="line"/>
      <point x="38" y="500" type="line"/>
      <point x="20" y="500" type="line"/>
      <point x="168" y="128" type="line"/>
      <point x="220" y="-1" type="line"/>
      <point x="183" y="-98" type="line" smooth="yes"/>
      <point x="154" y="-174"/>
      <point x="122" y="-201"/>
      <point x="71" y="-201" type="curve" smooth="yes"/>
      <point x="45" y="-201"/>
      <point x="19" y="-193"/>
      <point x="5" y="-170" type="curve"/>
      <point x="-4" y="-183" type="line"/>
      <point x="9" y="-204"/>
      <point x="37" y="-215"/>
      <point x="70" y="-215" type="curve" smooth="yes"/>
      <point x="129" y="-215"/>
      <point x="164" y="-188"/>
      <point x="198" y="-101" type="curve" smooth="yes"/>
    </contour>
  </outline>
</glyph>
<glyph name="z" format="2">
	<advance width="444"/>
	<unicode hex="007A"/>
	<anchor x="417" y="0" name="ogonek"/>
	<anchor x="223" y="0" name="bottom"/>
	<anchor x="223" y="500" name="top"/>
	<outline>
		<contour>
			<point x="38" y="0" type="line"/>
			<point x="417" y="0" type="line"/>
			<point x="417" y="14" type="line"/>
			<point x="136" y="14" type="line"/>
			<point x="59" y="14" type="line"/>
			<point x="112" y="83" type="line"/>
			<point x="402" y="486" type="line"/>
			<point x="402" y="500" type="line"/>
			<point x="31" y="500" type="line"/>
			<point x="31" y="486" type="line"/>
			<point x="320" y="486" type="line"/>
			<point x="383" y="486" type="line"/>
			<point x="346" y="437" type="line"/>
			<point x="38" y="14" type="line"/>
		</contour>
	</outline>
</glyph>
<glyph name="braceleft" format="2">
	<unicode hex="007B"/>
	<advance width="259"/>
	<outline>
		<contour>
			<point x="239" y="-170" type="curve"/>
			<point x="239" y="-156" type="line"/>
			<point x="176" y="-156"/>
			<point x="138" y="-119"/>
			<point x="138" y="-58" type="curve" smooth="yes"/>
			<point x="138" y="185" type="line" smooth="yes"/>
			<point x="138" y="236"/>
			<point x="109" y="272"/>
			<point x="60" y="286" type="curve"/>
			<point x="109" y="299"/>
			<point x="138" y="335"/>
			<point x="138" y="386" type="curve" smooth="yes"/>
			<point x="138" y="628" type="line" smooth="yes"/>
			<point x="138" y="689"/>
			<point x="176" y="726"/>
			<point x="239" y="726" type="curve"/>
			<point x="239" y="740" type="line"/>
			<point x="166" y="740"/>
			<point x="122" y="698"/>
			<point x="122" y="628" type="curve" smooth="yes"/>
			<point x="122" y="386" type="line" smooth="yes"/>
			<point x="122" y="327"/>
			<point x="79" y="292"/>
			<point x="8" y="292" type="curve"/>
			<point x="8" y="279" type="line"/>
			<point x="79" y="279"/>
			<point x="122" y="244"/>
			<point x="122" y="185" type="curve" smooth="yes"/>
			<point x="122" y="-58" type="line" smooth="yes"/>
			<point x="122" y="-128"/>
			<point x="166" y="-170"/>
		</contour>
	</outline>
</glyph>
<glyph name="bar" format="2">
  <advance width="167"/>
  <unicode hex="007C"/>
  <outline>
    <contour>
      <point x="91" y="730" type="line"/>
      <point x="76" y="730" type="line"/>
      <point x="76" y="-168" type="line"/>
      <point x="91" y="-168" type="line"/>
    </contour>
  </outline>
</glyph>
<glyph name="asciitilde" format="2">
  <advance width="479"/>
  <unicode hex="007E"/>
  <outline>
    <contour>
      <point x="436" y="395" type="curve"/>
      <point x="420" y="395" type="line"/>
      <point x="411" y="341"/>
      <point x="388" y="315"/>
      <point x="341" y="315" type="curve" smooth="yes"/>
      <point x="261" y="315"/>
      <point x="227" y="389"/>
      <point x="138" y="389" type="curve" smooth="yes"/>
      <point x="83" y="389"/>
      <point x="52" y="358"/>
      <point x="43" y="295" type="curve"/>
      <point x="59" y="295" type="line"/>
      <point x="68" y="349"/>
      <point x="91" y="375"/>
      <point x="138" y="375" type="curve" smooth="yes"/>
      <point x="218" y="375"/>
      <point x="252" y="301"/>
      <point x="341" y="301" type="curve" smooth="yes"/>
      <point x="396" y="301"/>
      <point x="427" y="332"/>
    </contour>
  </outline>
</glyph>
<glyph name="cent" format="2">
	<advance width="509"/>
	<unicode hex="00A2"/>
	<outline>
		<contour>
			<point x="268" y="-10" type="curve" smooth="yes"/>
			<point x="362" y="-10"/>
			<point x="443" y="47"/>
			<point x="459" y="137" type="curve"/>
			<point x="445" y="142" type="line"/>
			<point x="432" y="57"/>
			<point x="355" y="4"/>
			<point x="268" y="4" type="curve" smooth="yes"/>
			<point x="143" y="4"/>
			<point x="72" y="97"/>
			<point x="72" y="250" type="curve" smooth="yes"/>
			<point x="72" y="403"/>
			<point x="146" y="496"/>
			<point x="271" y="496" type="curve" smooth="yes"/>
			<point x="357" y="496"/>
			<point x="421" y="449"/>
			<point x="441" y="366" type="curve"/>
			<point x="455" y="373" type="line"/>
			<point x="433" y="461"/>
			<point x="363" y="510"/>
			<point x="271" y="510" type="curve" smooth="yes"/>
			<point x="136" y="510"/>
			<point x="56" y="412"/>
			<point x="56" y="250" type="curve" smooth="yes"/>
			<point x="56" y="88"/>
			<point x="133" y="-10"/>
		</contour>
		<contour>
			<point x="256" y="-100" type="line"/>
			<point x="270" y="-100" type="line"/>
			<point x="270" y="600" type="line"/>
			<point x="256" y="600" type="line"/>
		</contour>
	</outline>
</glyph>
<glyph name="sterling" format="2">
	<unicode hex="00A3"/>
	<advance width="545"/>
	<outline>
		<contour>
			<point x="94" y="303" type="line"/>
			<point x="419" y="303" type="line"/>
			<point x="419" y="317" type="line"/>
			<point x="94" y="317" type="line"/>
		</contour>
		<component base="sterling.part" xOffset="14"/>
	</outline>
</glyph>
<glyph name="currency" format="2">
  <advance width="602"/>
  <unicode hex="00A4"/>
  <outline>
    <contour>
      <point x="301" y="516" type="curve" smooth="yes"/>
      <point x="194" y="516"/>
      <point x="124" y="444"/>
      <point x="124" y="333" type="curve" smooth="yes"/>
      <point x="124" y="221"/>
      <point x="194" y="148"/>
      <point x="301" y="148" type="curve" smooth="yes"/>
      <point x="407" y="148"/>
      <point x="477" y="221"/>
      <point x="477" y="333" type="curve" smooth="yes"/>
      <point x="477" y="444"/>
      <point x="407" y="516"/>
    </contour>
    <contour>
      <point x="301" y="502" type="curve" smooth="yes"/>
      <point x="399" y="502"/>
      <point x="461" y="436"/>
      <point x="461" y="333" type="curve" smooth="yes"/>
      <point x="461" y="228"/>
      <point x="399" y="162"/>
      <point x="301" y="162" type="curve" smooth="yes"/>
      <point x="203" y="162"/>
      <point x="140" y="228"/>
      <point x="140" y="333" type="curve" smooth="yes"/>
      <point x="140" y="436"/>
      <point x="203" y="502"/>
    </contour>
    <contour>
      <point x="74" y="569" type="line"/>
      <point x="62" y="557" type="line"/>
      <point x="168" y="451" type="line"/>
      <point x="180" y="462" type="line"/>
    </contour>
    <contour>
      <point x="170" y="211" type="line"/>
      <point x="62" y="103" type="line"/>
      <point x="74" y="91" type="line"/>
      <point x="182" y="199" type="line"/>
    </contour>
    <contour>
      <point x="431" y="211" type="line"/>
      <point x="421" y="199" type="line"/>
      <point x="529" y="91" type="line"/>
      <point x="540" y="102" type="line"/>
    </contour>
    <contour>
      <point x="529" y="569" type="line"/>
      <point x="422" y="463" type="line"/>
      <point x="433" y="450" type="line"/>
      <point x="540" y="558" type="line"/>
    </contour>
  </outline>
</glyph>
<glyph name="yen" format="2">
	<advance width="540"/>
	<unicode hex="00A5"/>
	<outline>
		<contour>
			<point x="262" y="0" type="line"/>
			<point x="278" y="0" type="line"/>
			<point x="278" y="133" type="line"/>
			<point x="472" y="133" type="line"/>
			<point x="472" y="147" type="line"/>
			<point x="278" y="147" type="line"/>
			<point x="278" y="256" type="line"/>
			<point x="472" y="256" type="line"/>
			<point x="472" y="270" type="line"/>
			<point x="319" y="270" type="line"/>
			<point x="284" y="270" type="line"/>
			<point x="496" y="660" type="line"/>
			<point x="477" y="660" type="line"/>
			<point x="285" y="297" type="line"/>
			<point x="271" y="273" type="line"/>
			<point x="269" y="273" type="line"/>
			<point x="255" y="297" type="line"/>
			<point x="63" y="660" type="line"/>
			<point x="44" y="660" type="line"/>
			<point x="256" y="270" type="line"/>
			<point x="221" y="270" type="line"/>
			<point x="69" y="270" type="line"/>
			<point x="69" y="256" type="line"/>
			<point x="262" y="256" type="line"/>
			<point x="262" y="147" type="line"/>
			<point x="69" y="147" type="line"/>
			<point x="69" y="133" type="line"/>
			<point x="262" y="133" type="line"/>
		</contour>
	</outline>
</glyph>
<glyph name="brokenbar" format="2">
  <advance width="167"/>
  <unicode hex="00A6"/>
  <outline>
    <contour>
      <point x="91" y="730" type="line"/>
      <point x="76" y="730" type="line"/>
      <point x="76" y="364" type="line"/>
      <point x="91" y="364" type="line"/>
    </contour>
    <contour>
      <point x="91" y="198" type="line"/>
      <point x="76" y="198" type="line"/>
      <point x="76" y="-168" type="line"/>
      <point x="91" y="-168" type="line"/>
    </contour>
  </outline>
</glyph>
<glyph name="section" format="2">
	<unicode hex="00A7"/>
	<advance width="508"/>
	<outline>
		<contour>
			<point x="327" y="139" type="line"/>
			<point x="408" y="149"/>
			<point x="475" y="192"/>
			<point x="475" y="266" type="curve" smooth="yes"/>
			<point x="475" y="345"/>
			<point x="419" y="371"/>
			<point x="337" y="390" type="curve" smooth="yes"/>
			<point x="249" y="410" type="line" smooth="yes"/>
			<point x="154" y="432"/>
			<point x="112" y="456"/>
			<point x="112" y="532" type="curve" smooth="yes"/>
			<point x="112" y="603"/>
			<point x="167" y="656"/>
			<point x="266" y="656" type="curve" smooth="yes"/>
			<point x="343" y="656"/>
			<point x="399" y="633"/>
			<point x="417" y="576" type="curve"/>
			<point x="430" y="585" type="line"/>
			<point x="408" y="644"/>
			<point x="348" y="670"/>
			<point x="266" y="670" type="curve" smooth="yes"/>
			<point x="155" y="670"/>
			<point x="96" y="606"/>
			<point x="96" y="531" type="curve" smooth="yes"/>
			<point x="96" y="454"/>
			<point x="137" y="421"/>
			<point x="246" y="396" type="curve" smooth="yes"/>
			<point x="336" y="375" type="line" smooth="yes"/>
			<point x="421" y="355"/>
			<point x="459" y="330"/>
			<point x="459" y="266" type="curve" smooth="yes"/>
			<point x="459" y="194"/>
			<point x="386" y="158"/>
			<point x="320" y="148" type="curve"/>
		</contour>
		<contour>
			<point x="258" y="-110" type="curve" smooth="yes"/>
			<point x="369" y="-110"/>
			<point x="428" y="-46"/>
			<point x="428" y="29" type="curve" smooth="yes"/>
			<point x="428" y="117"/>
			<point x="368" y="146"/>
			<point x="287" y="163" type="curve" smooth="yes"/>
			<point x="208" y="180" type="line" smooth="yes"/>
			<point x="112" y="201"/>
			<point x="65" y="225"/>
			<point x="65" y="294" type="curve" smooth="yes"/>
			<point x="65" y="366"/>
			<point x="138" y="402"/>
			<point x="203" y="412" type="curve"/>
			<point x="196" y="421" type="line"/>
			<point x="116" y="411"/>
			<point x="49" y="367"/>
			<point x="49" y="294" type="curve" smooth="yes"/>
			<point x="49" y="217"/>
			<point x="97" y="187"/>
			<point x="204" y="165" type="curve" smooth="yes"/>
			<point x="282" y="149" type="line" smooth="yes"/>
			<point x="359" y="133"/>
			<point x="412" y="107"/>
			<point x="412" y="28" type="curve" smooth="yes"/>
			<point x="412" y="-43"/>
			<point x="357" y="-96"/>
			<point x="258" y="-96" type="curve" smooth="yes"/>
			<point x="182" y="-96"/>
			<point x="124" y="-73"/>
			<point x="107" y="-16" type="curve"/>
			<point x="94" y="-25" type="line"/>
			<point x="115" y="-84"/>
			<point x="176" y="-110"/>
		</contour>
	</outline>
</glyph>
<glyph name="copyright" format="2">
  <advance width="784"/>
  <unicode hex="00A9"/>
  <outline>
    <contour>
      <point x="392" y="-10" type="curve" smooth="yes"/>
      <point x="591" y="-10"/>
      <point x="724" y="136"/>
      <point x="724" y="330" type="curve" smooth="yes"/>
      <point x="724" y="524"/>
      <point x="591" y="670"/>
      <point x="392" y="670" type="curve" smooth="yes"/>
      <point x="193" y="670"/>
      <point x="60" y="524"/>
      <point x="60" y="330" type="curve" smooth="yes"/>
      <point x="60" y="136"/>
      <point x="193" y="-10"/>
    </contour>
    <contour>
      <point x="392" y="4" type="curve" smooth="yes"/>
      <point x="203" y="4"/>
      <point x="76" y="145"/>
      <point x="76" y="330" type="curve" smooth="yes"/>
      <point x="76" y="515"/>
      <point x="203" y="656"/>
      <point x="392" y="656" type="curve" smooth="yes"/>
      <point x="580" y="656"/>
      <point x="708" y="515"/>
      <point x="708" y="330" type="curve" smooth="yes"/>
      <point x="708" y="145"/>
      <point x="581" y="4"/>
    </contour>
    <contour>
      <point x="404" y="143" type="curve" smooth="yes"/>
      <point x="479" y="143"/>
      <point x="540" y="186"/>
      <point x="558" y="253" type="curve"/>
      <point x="543" y="259" type="line"/>
      <point x="528" y="197"/>
      <point x="473" y="157"/>
      <point x="403" y="157" type="curve" smooth="yes"/>
      <point x="300" y="157"/>
      <point x="238" y="221"/>
      <point x="238" y="328" type="curve" smooth="yes"/>
      <point x="238" y="435"/>
      <point x="300" y="499"/>
      <point x="403" y="499" type="curve" smooth="yes"/>
      <point x="474" y="499"/>
      <point x="520" y="468"/>
      <point x="539" y="406" type="curve"/>
      <point x="553" y="413" type="line"/>
      <point x="531" y="479"/>
      <point x="480" y="513"/>
      <point x="404" y="513" type="curve" smooth="yes"/>
      <point x="290" y="513"/>
      <point x="222" y="444"/>
      <point x="222" y="328" type="curve" smooth="yes"/>
      <point x="222" y="212"/>
      <point x="290" y="143"/>
    </contour>
  </outline>
</glyph>
<glyph name="ordfeminine" format="2">
	<unicode hex="00AA"/>
	<advance width="376"/>
	<outline>
		<contour>
			<point x="151" y="326" type="curve" smooth="yes"/>
			<point x="206" y="326"/>
			<point x="277" y="351"/>
			<point x="293" y="420" type="curve"/>
			<point x="287" y="413" type="line"/>
			<point x="287" y="385" type="line" smooth="yes"/>
			<point x="287" y="337"/>
			<point x="312" y="326"/>
			<point x="335" y="326" type="curve" smooth="yes"/>
			<point x="347" y="326"/>
			<point x="354" y="328"/>
			<point x="361" y="332" type="curve"/>
			<point x="361" y="346" type="line"/>
			<point x="355" y="342"/>
			<point x="348" y="340"/>
			<point x="336" y="340" type="curve" smooth="yes"/>
			<point x="314" y="340"/>
			<point x="303" y="354"/>
			<point x="303" y="383" type="curve" smooth="yes"/>
			<point x="303" y="558" type="line" smooth="yes"/>
			<point x="303" y="628"/>
			<point x="258" y="665"/>
			<point x="185" y="665" type="curve" smooth="yes"/>
			<point x="118" y="665"/>
			<point x="71" y="636"/>
			<point x="54" y="584" type="curve"/>
			<point x="67" y="579" type="line"/>
			<point x="85" y="628"/>
			<point x="123" y="651"/>
			<point x="185" y="651" type="curve" smooth="yes"/>
			<point x="252" y="651"/>
			<point x="287" y="615"/>
			<point x="287" y="556" type="curve" smooth="yes"/>
			<point x="287" y="453" type="line" smooth="yes"/>
			<point x="287" y="369"/>
			<point x="206" y="340"/>
			<point x="151" y="340" type="curve" smooth="yes"/>
			<point x="99" y="340"/>
			<point x="66" y="368"/>
			<point x="66" y="409" type="curve" smooth="yes"/>
			<point x="66" y="451"/>
			<point x="92" y="477"/>
			<point x="163" y="489" type="curve" smooth="yes"/>
			<point x="290" y="511" type="line"/>
			<point x="290" y="525" type="line"/>
			<point x="156" y="502" type="line" smooth="yes"/>
			<point x="83" y="489"/>
			<point x="51" y="461"/>
			<point x="51" y="410" type="curve" smooth="yes"/>
			<point x="51" y="358"/>
			<point x="92" y="326"/>
		</contour>
		<contour>
			<point x="52" y="223" type="line"/>
			<point x="349" y="223" type="line"/>
			<point x="349" y="237" type="line"/>
			<point x="52" y="237" type="line"/>
		</contour>
	</outline>
</glyph>
<glyph name="logicalnot" format="2">
  <advance width="604"/>
  <unicode hex="00AC"/>
  <outline>
    <contour>
      <point x="527" y="317" type="line"/>
      <point x="511" y="317" type="line"/>
      <point x="511" y="176" type="line"/>
      <point x="527" y="176" type="line"/>
    </contour>
    <contour>
      <point x="527" y="323" type="line"/>
      <point x="77" y="323" type="line"/>
      <point x="77" y="309" type="line"/>
      <point x="527" y="309" type="line"/>
    </contour>
  </outline>
</glyph>
<glyph name="registered" format="2">
	<advance width="784"/>
	<unicode hex="00AE"/>
	<outline>
		<contour>
			<point x="392" y="-10" type="curve" smooth="yes"/>
			<point x="591" y="-10"/>
			<point x="724" y="136"/>
			<point x="724" y="330" type="curve" smooth="yes"/>
			<point x="724" y="524"/>
			<point x="591" y="670"/>
			<point x="392" y="670" type="curve" smooth="yes"/>
			<point x="193" y="670"/>
			<point x="60" y="524"/>
			<point x="60" y="330" type="curve" smooth="yes"/>
			<point x="60" y="136"/>
			<point x="193" y="-10"/>
		</contour>
		<contour>
			<point x="537" y="143" type="line"/>
			<point x="555" y="143" type="line"/>
			<point x="440" y="322" type="line"/>
			<point x="426" y="316" type="line"/>
		</contour>
		<contour>
			<point x="392" y="4" type="curve" smooth="yes"/>
			<point x="203" y="4"/>
			<point x="76" y="145"/>
			<point x="76" y="330" type="curve" smooth="yes"/>
			<point x="76" y="515"/>
			<point x="203" y="656"/>
			<point x="392" y="656" type="curve" smooth="yes"/>
			<point x="580" y="656"/>
			<point x="708" y="515"/>
			<point x="708" y="330" type="curve" smooth="yes"/>
			<point x="708" y="145"/>
			<point x="581" y="4"/>
		</contour>
		<contour>
			<point x="275" y="143" type="line"/>
			<point x="291" y="143" type="line"/>
			<point x="291" y="311" type="line"/>
			<point x="430" y="311" type="line" smooth="yes"/>
			<point x="509" y="311"/>
			<point x="549" y="346"/>
			<point x="549" y="412" type="curve" smooth="yes"/>
			<point x="549" y="479"/>
			<point x="509" y="513"/>
			<point x="430" y="513" type="curve" smooth="yes"/>
			<point x="275" y="513" type="line"/>
		</contour>
		<contour>
			<point x="291" y="324" type="line"/>
			<point x="291" y="499" type="line"/>
			<point x="430" y="499" type="line" smooth="yes"/>
			<point x="499" y="499"/>
			<point x="534" y="470"/>
			<point x="534" y="412" type="curve" smooth="yes"/>
			<point x="534" y="355"/>
			<point x="499" y="324"/>
			<point x="430" y="324" type="curve" smooth="yes"/>
		</contour>
	</outline>
</glyph>
<glyph name="degree" format="2">
	<advance width="370"/>
	<unicode hex="00B0"/>
	<outline>
		<contour>
			<point x="185" y="400" type="curve" smooth="yes"/>
			<point x="266" y="400"/>
			<point x="319" y="455"/>
			<point x="319" y="535" type="curve" smooth="yes"/>
			<point x="319" y="615"/>
			<point x="266" y="670"/>
			<point x="185" y="670" type="curve" smooth="yes"/>
			<point x="104" y="670"/>
			<point x="51" y="615"/>
			<point x="51" y="535" type="curve" smooth="yes"/>
			<point x="51" y="455"/>
			<point x="104" y="400"/>
		</contour>
		<contour>
			<point x="185" y="414" type="curve" smooth="yes"/>
			<point x="113" y="414"/>
			<point x="67" y="464"/>
			<point x="67" y="535" type="curve" smooth="yes"/>
			<point x="67" y="606"/>
			<point x="113" y="656"/>
			<point x="185" y="656" type="curve" smooth="yes"/>
			<point x="257" y="656"/>
			<point x="303" y="606"/>
			<point x="303" y="535" type="curve" smooth="yes"/>
			<point x="303" y="464"/>
			<point x="257" y="414"/>
		</contour>
	</outline>
</glyph>
<glyph name="plusminus" format="2">
	<unicode hex="00B1"/>
	<advance width="604"/>
	<outline>
		<contour>
			<point x="310" y="622" type="line"/>
			<point x="295" y="622" type="line"/>
			<point x="295" y="106" type="line"/>
			<point x="310" y="106" type="line"/>
		</contour>
		<contour>
			<point x="527" y="374" type="line"/>
			<point x="77" y="374" type="line"/>
			<point x="77" y="360" type="line"/>
			<point x="527" y="360" type="line"/>
		</contour>
		<contour>
			<point x="527" y="14" type="line"/>
			<point x="77" y="14" type="line"/>
			<point x="77" y="0" type="line"/>
			<point x="527" y="0" type="line"/>
		</contour>
	</outline>
</glyph>
<glyph name="twosuperior" format="2">
	<unicode hex="00B2"/>
	<advance width="349"/>
	<outline>
		<contour>
			<point x="47" y="333" type="line"/>
			<point x="308" y="333" type="line"/>
			<point x="308" y="347" type="line"/>
			<point x="95" y="347" type="line" smooth="yes"/>
			<point x="86" y="347"/>
			<point x="78" y="347"/>
			<point x="69" y="347" type="curve"/>
			<point x="69" y="348" type="line"/>
			<point x="103" y="376"/>
			<point x="136" y="405"/>
			<point x="170" y="433" type="curve" smooth="yes"/>
			<point x="229" y="483"/>
			<point x="292" y="551"/>
			<point x="292" y="616" type="curve" smooth="yes"/>
			<point x="292" y="690"/>
			<point x="244" y="735"/>
			<point x="169" y="735" type="curve" smooth="yes"/>
			<point x="92" y="735"/>
			<point x="46" y="683"/>
			<point x="40" y="612" type="curve"/>
			<point x="55" y="609" type="line"/>
			<point x="59" y="678"/>
			<point x="101" y="721"/>
			<point x="169" y="721" type="curve" smooth="yes"/>
			<point x="235" y="721"/>
			<point x="276" y="680"/>
			<point x="276" y="617" type="curve" smooth="yes"/>
			<point x="276" y="555"/>
			<point x="221" y="496"/>
			<point x="161" y="445" type="curve" smooth="yes"/>
			<point x="123" y="413"/>
			<point x="85" y="380"/>
			<point x="47" y="348" type="curve"/>
		</contour>
	</outline>
	<anchor name="_indexring" x="171" y="517"/>
</glyph>
<glyph name="threesuperior" format="2">
	<advance width="326"/>
	<unicode hex="00B3"/>
	<anchor x="151" y="530" name="_indexring"/>
	<outline>
		<contour>
			<point x="152" y="735" type="curve" smooth="yes"/>
			<point x="94" y="735"/>
			<point x="50" y="703"/>
			<point x="36" y="655" type="curve"/>
			<point x="50" y="648" type="line"/>
			<point x="60" y="692"/>
			<point x="97" y="721"/>
			<point x="153" y="721" type="curve" smooth="yes"/>
			<point x="215" y="721"/>
			<point x="251" y="686"/>
			<point x="251" y="630" type="curve" smooth="yes"/>
			<point x="251" y="573"/>
			<point x="209" y="539"/>
			<point x="154" y="539" type="curve" smooth="yes"/>
			<point x="149" y="539"/>
			<point x="143" y="539"/>
			<point x="134" y="540" type="curve"/>
			<point x="134" y="526" type="line"/>
			<point x="142" y="527"/>
			<point x="148" y="527"/>
			<point x="152" y="527" type="curve" smooth="yes"/>
			<point x="218" y="527"/>
			<point x="261" y="500"/>
			<point x="261" y="437" type="curve" smooth="yes"/>
			<point x="261" y="376"/>
			<point x="216" y="341"/>
			<point x="154" y="341" type="curve" smooth="yes"/>
			<point x="85" y="341"/>
			<point x="49" y="375"/>
			<point x="37" y="426" type="curve"/>
			<point x="24" y="418" type="line"/>
			<point x="40" y="362"/>
			<point x="83" y="327"/>
			<point x="152" y="327" type="curve" smooth="yes"/>
			<point x="223" y="327"/>
			<point x="277" y="369"/>
			<point x="277" y="438" type="curve" smooth="yes"/>
			<point x="277" y="486"/>
			<point x="245" y="526"/>
			<point x="194" y="532" type="curve"/>
			<point x="194" y="534" type="line"/>
			<point x="242" y="548"/>
			<point x="267" y="582"/>
			<point x="267" y="630" type="curve" smooth="yes"/>
			<point x="267" y="690"/>
			<point x="225" y="735"/>
		</contour>
	</outline>
</glyph>
<glyph name="micro" format="2">
  <advance width="542"/>
  <unicode hex="00B5"/>
  <outline>
    <contour>
      <point x="85" y="-210" type="line"/>
      <point x="101" y="-210" type="line"/>
      <point x="101" y="94" type="line"/>
      <point x="101" y="94" type="line"/>
      <point x="124" y="27"/>
      <point x="180" y="-10"/>
      <point x="248" y="-10" type="curve" smooth="yes"/>
      <point x="345" y="-10"/>
      <point x="420" y="51"/>
      <point x="441" y="133" type="curve"/>
      <point x="441" y="0" type="line"/>
      <point x="457" y="0" type="line"/>
      <point x="457" y="500" type="line"/>
      <point x="441" y="500" type="line"/>
      <point x="441" y="199" type="line" smooth="yes"/>
      <point x="441" y="95"/>
      <point x="360" y="4"/>
      <point x="251" y="4" type="curve" smooth="yes"/>
      <point x="163" y="4"/>
      <point x="101" y="63"/>
      <point x="101" y="169" type="curve" smooth="yes"/>
      <point x="101" y="500" type="line"/>
      <point x="85" y="500" type="line"/>
    </contour>
  </outline>
</glyph>
<glyph name="paragraph" format="2">
	<advance width="516"/>
	<unicode hex="00B6"/>
	<outline>
		<contour>
			<point x="264" y="-100" type="line"/>
			<point x="280" y="-100" type="line"/>
			<point x="280" y="646" type="line"/>
			<point x="419" y="646" type="line"/>
			<point x="419" y="-100" type="line"/>
			<point x="435" y="-100" type="line"/>
			<point x="435" y="660" type="line"/>
			<point x="259" y="660" type="line" smooth="yes"/>
			<point x="121" y="660"/>
			<point x="30" y="579"/>
			<point x="30" y="457" type="curve" smooth="yes"/>
			<point x="30" y="335"/>
			<point x="123" y="254"/>
			<point x="264" y="254" type="curve"/>
		</contour>
		<contour>
			<point x="264" y="268" type="line"/>
			<point x="133" y="268"/>
			<point x="46" y="343"/>
			<point x="46" y="457" type="curve" smooth="yes"/>
			<point x="46" y="571"/>
			<point x="133" y="646"/>
			<point x="264" y="646" type="curve"/>
		</contour>
	</outline>
</glyph>
<glyph name="periodcentered" format="2">
	<unicode hex="00B7"/>
	<advance width="192"/>
	<outline>
		<contour>
			<point x="96" y="338" type="curve" smooth="yes"/>
			<point x="109" y="338"/>
			<point x="118" y="347"/>
			<point x="118" y="360" type="curve" smooth="yes"/>
			<point x="118" y="373"/>
			<point x="109" y="382"/>
			<point x="96" y="382" type="curve" smooth="yes"/>
			<point x="83" y="382"/>
			<point x="74" y="373"/>
			<point x="74" y="360" type="curve" smooth="yes"/>
			<point x="74" y="347"/>
			<point x="83" y="338"/>
		</contour>
	</outline>
	<anchor name="_center" x="74" y="360"/>
</glyph>
<glyph name="onesuperior" format="2">
	<advance width="214"/>
	<unicode hex="00B9"/>
	<anchor x="124" y="527" name="_indexring"/>
	<outline>
		<contour>
			<point x="133" y="730" type="line"/>
			<point x="112" y="691"/>
			<point x="56" y="658"/>
			<point x="21" y="646" type="curve"/>
			<point x="21" y="633" type="line"/>
			<point x="61" y="649"/>
			<point x="106" y="673"/>
			<point x="132" y="708" type="curve"/>
			<point x="131" y="686"/>
			<point x="130" y="665"/>
			<point x="130" y="643" type="curve" smooth="yes"/>
			<point x="130" y="333" type="line"/>
			<point x="146" y="333" type="line"/>
			<point x="146" y="730" type="line"/>
		</contour>
	</outline>
</glyph>
<glyph name="ordmasculine" format="2">
	<advance width="364"/>
	<unicode hex="00BA"/>
	<outline>
		<contour>
			<point x="182" y="327" type="curve" smooth="yes"/>
			<point x="278" y="327"/>
			<point x="321" y="379"/>
			<point x="321" y="496" type="curve" smooth="yes"/>
			<point x="321" y="613"/>
			<point x="278" y="665"/>
			<point x="182" y="665" type="curve" smooth="yes"/>
			<point x="86" y="665"/>
			<point x="43" y="613"/>
			<point x="43" y="496" type="curve" smooth="yes"/>
			<point x="43" y="379"/>
			<point x="86" y="327"/>
		</contour>
		<contour>
			<point x="49" y="223" type="line"/>
			<point x="315" y="223" type="line"/>
			<point x="315" y="237" type="line"/>
			<point x="49" y="237" type="line"/>
		</contour>
		<contour>
			<point x="182" y="341" type="curve" smooth="yes"/>
			<point x="97" y="341"/>
			<point x="59" y="389"/>
			<point x="59" y="496" type="curve" smooth="yes"/>
			<point x="59" y="603"/>
			<point x="97" y="651"/>
			<point x="182" y="651" type="curve" smooth="yes"/>
			<point x="267" y="651"/>
			<point x="305" y="603"/>
			<point x="305" y="496" type="curve" smooth="yes"/>
			<point x="305" y="389"/>
			<point x="267" y="341"/>
		</contour>
	</outline>
</glyph>
<glyph name="AE" format="2">
	<advance width="857"/>
	<unicode hex="00C6"/>
	<anchor x="827" y="0" name="ogonek"/>
	<anchor x="431" y="0" name="bottom"/>
	<anchor x="431" y="660" name="top"/>
	<outline>
		<contour>
			<point x="439" y="14" type="line"/>
			<point x="439" y="328" type="line"/>
			<point x="737" y="328" type="line"/>
			<point x="737" y="342" type="line"/>
			<point x="439" y="342" type="line"/>
			<point x="439" y="646" type="line"/>
			<point x="812" y="646" type="line"/>
			<point x="812" y="660" type="line"/>
			<point x="398" y="660" type="line"/>
			<point x="-8" y="0" type="line"/>
			<point x="15" y="0" type="line"/>
			<point x="168" y="254" type="line"/>
			<point x="423" y="254" type="line"/>
			<point x="423" y="0" type="line"/>
			<point x="827" y="0" type="line"/>
			<point x="827" y="14" type="line"/>
		</contour>
		<contour>
			<point x="177" y="268" type="line"/>
			<point x="406" y="646" type="line"/>
			<point x="423" y="646" type="line"/>
			<point x="423" y="268" type="line"/>
		</contour>
	</outline>
</glyph>
<glyph name="Idieresis" format="2">
  <advance width="214"/>
  <unicode hex="00CF"/>
  <anchor x="107" y="0" name="bottom"/>
  <anchor x="115" y="0" name="ogonek"/>
  <anchor x="107" y="660" name="top"/>
  <outline>
    <contour>
      <point x="48" y="802" type="curve" smooth="yes"/>
      <point x="35" y="802"/>
      <point x="26" y="793"/>
      <point x="26" y="780" type="curve" smooth="yes"/>
      <point x="26" y="767"/>
      <point x="35" y="758"/>
      <point x="48" y="758" type="curve" smooth="yes"/>
      <point x="61" y="758"/>
      <point x="70" y="767"/>
      <point x="70" y="780" type="curve" smooth="yes"/>
      <point x="70" y="793"/>
      <point x="61" y="802"/>
    </contour>
    <contour>
      <point x="166" y="802" type="curve" smooth="yes"/>
      <point x="153" y="802"/>
      <point x="144" y="793"/>
      <point x="144" y="780" type="curve" smooth="yes"/>
      <point x="144" y="767"/>
      <point x="153" y="758"/>
      <point x="166" y="758" type="curve" smooth="yes"/>
      <point x="179" y="758"/>
      <point x="188" y="767"/>
      <point x="188" y="780" type="curve" smooth="yes"/>
      <point x="188" y="793"/>
      <point x="179" y="802"/>
    </contour>
    <component base="I"/>
  </outline>
</glyph>
<glyph name="Eth" format="2">
  <advance width="691"/>
  <unicode hex="00D0"/>
  <anchor x="298" y="0" name="bottom"/>
  <anchor x="341" y="330" name="center"/>
  <anchor x="291" y="0" name="ogonek"/>
  <anchor x="298" y="660" name="top"/>
  <outline>
    <contour>
      <point x="5" y="327" type="line"/>
      <point x="330" y="327" type="line"/>
      <point x="330" y="341" type="line"/>
      <point x="5" y="341" type="line"/>
    </contour>
    <component base="D"/>
  </outline>
</glyph>
<glyph name="Oslash" format="2">
	<unicode hex="00D8"/>
	<advance width="686"/>
	<outline>
		<contour>
			<point x="170" y="59" type="line"/>
			<point x="555" y="590" type="line"/>
			<point x="542" y="599" type="line"/>
			<point x="160" y="71" type="line"/>
		</contour>
		<contour>
			<point x="86" y="-30" type="line"/>
			<point x="106" y="-30" type="line"/>
			<point x="170" y="59" type="line"/>
			<point x="160" y="71" type="line"/>
		</contour>
		<contour>
			<point x="555" y="590" type="line"/>
			<point x="628" y="690" type="line"/>
			<point x="608" y="690" type="line"/>
			<point x="542" y="599" type="line"/>
		</contour>
		<component base="O"/>
	</outline>
	<anchor name="bottom" x="343" y="0"/>
	<anchor name="center" x="343" y="330"/>
	<anchor name="ogonek" x="416" y="0"/>
	<anchor name="top" x="343" y="660"/>
	<anchor name="topleft" x="22" y="660"/>
	<anchor name="topright" x="506" y="660"/>
</glyph>
<glyph name="Thorn" format="2">
  <advance width="539"/>
  <unicode hex="00DE"/>
  <anchor x="107" y="0" name="bottom"/>
  <anchor x="115" y="0" name="ogonek"/>
  <anchor x="107" y="660" name="top"/>
  <outline>
    <contour>
      <point x="281" y="525" type="curve" smooth="yes"/>
      <point x="108" y="525" type="line"/>
      <point x="108" y="511" type="line"/>
      <point x="290" y="511" type="line" smooth="yes"/>
      <point x="417" y="511"/>
      <point x="483" y="453"/>
      <point x="483" y="340" type="curve" smooth="yes"/>
      <point x="483" y="227"/>
      <point x="417" y="169"/>
      <point x="290" y="169" type="curve" smooth="yes"/>
      <point x="108" y="169" type="line"/>
      <point x="108" y="155" type="line"/>
      <point x="281" y="155" type="line" smooth="yes"/>
      <point x="425" y="155"/>
      <point x="499" y="218"/>
      <point x="499" y="340" type="curve" smooth="yes"/>
      <point x="499" y="462"/>
      <point x="425" y="525"/>
    </contour>
    <contour>
      <point x="115" y="660" type="line"/>
      <point x="99" y="660" type="line"/>
      <point x="99" y="0" type="line"/>
      <point x="115" y="0" type="line"/>
    </contour>
  </outline>
</glyph>
<glyph name="germandbls" format="2">
  <advance width="555"/>
  <unicode hex="00DF"/>
  <anchor x="296" y="0" name="bottom"/>
  <anchor x="428" y="21" name="ogonek"/>
  <anchor x="296" y="730" name="top"/>
  <outline>
    <contour>
      <point x="326" y="378" type="curve"/>
      <point x="326" y="379" type="line"/>
      <point x="409" y="382"/>
      <point x="477" y="453"/>
      <point x="477" y="561" type="curve" smooth="yes"/>
      <point x="477" y="671"/>
      <point x="407" y="735"/>
      <point x="293" y="735" type="curve" smooth="yes"/>
      <point x="157" y="735"/>
      <point x="85" y="660"/>
      <point x="85" y="516" type="curve" smooth="yes"/>
      <point x="85" y="0" type="line"/>
      <point x="100" y="0" type="line"/>
      <point x="100" y="505" type="line" smooth="yes"/>
      <point x="100" y="647"/>
      <point x="167" y="721"/>
      <point x="293" y="721" type="curve" smooth="yes"/>
      <point x="397" y="721"/>
      <point x="461" y="662"/>
      <point x="461" y="563" type="curve" smooth="yes"/>
      <point x="461" y="449"/>
      <point x="390" y="384"/>
      <point x="292" y="384" type="curve" smooth="yes"/>
      <point x="248" y="384" type="line"/>
      <point x="248" y="370" type="line"/>
      <point x="292" y="370" type="line" smooth="yes"/>
      <point x="408" y="370"/>
      <point x="490" y="313"/>
      <point x="490" y="185" type="curve" smooth="yes"/>
      <point x="490" y="76"/>
      <point x="430" y="3"/>
      <point x="330" y="3" type="curve" smooth="yes"/>
      <point x="284" y="3"/>
      <point x="250" y="15"/>
      <point x="219" y="40" type="curve"/>
      <point x="209" y="28" type="line"/>
      <point x="237" y="4"/>
      <point x="276" y="-10"/>
      <point x="330" y="-10" type="curve" smooth="yes"/>
      <point x="439" y="-10"/>
      <point x="506" y="68"/>
      <point x="506" y="185" type="curve" smooth="yes"/>
      <point x="506" y="302"/>
      <point x="440" y="371"/>
    </contour>
  </outline>
</glyph>
<glyph name="ae" format="2">
  <advance width="845"/>
  <unicode hex="00E6"/>
  <anchor x="408" y="0" name="bottom"/>
  <anchor x="676" y="0" name="ogonek"/>
  <anchor x="413" y="500" name="top"/>
  <outline>
    <contour>
      <point x="203" y="-10" type="curve" smooth="yes"/>
      <point x="290" y="-10"/>
      <point x="401" y="34"/>
      <point x="407" y="168" type="curve"/>
      <point x="405" y="167" type="line"/>
      <point x="422" y="58"/>
      <point x="503" y="-10"/>
      <point x="611" y="-10" type="curve" smooth="yes"/>
      <point x="690" y="-10"/>
      <point x="763" y="35"/>
      <point x="797" y="109" type="curve"/>
      <point x="784" y="116" type="line"/>
      <point x="752" y="46"/>
      <point x="684" y="4"/>
      <point x="611" y="4" type="curve" smooth="yes"/>
      <point x="480" y="4"/>
      <point x="409" y="97"/>
      <point x="409" y="250" type="curve" smooth="yes"/>
      <point x="409" y="271" type="line"/>
      <point x="796" y="271" type="line"/>
      <point x="796" y="273"/>
      <point x="796" y="276"/>
      <point x="796" y="278" type="curve" smooth="yes"/>
      <point x="796" y="416"/>
      <point x="724" y="510"/>
      <point x="603" y="510" type="curve" smooth="yes"/>
      <point x="509" y="510"/>
      <point x="425" y="442"/>
      <point x="406" y="335" type="curve"/>
      <point x="409" y="332" type="line"/>
      <point x="409" y="450"/>
      <point x="343" y="510"/>
      <point x="241" y="510" type="curve" smooth="yes"/>
      <point x="151" y="510"/>
      <point x="86" y="471"/>
      <point x="56" y="388" type="curve"/>
      <point x="69" y="378" type="line"/>
      <point x="98" y="462"/>
      <point x="160" y="496"/>
      <point x="241" y="496" type="curve" smooth="yes"/>
      <point x="339" y="496"/>
      <point x="394" y="433"/>
      <point x="394" y="336" type="curve" smooth="yes"/>
      <point x="394" y="284" type="line"/>
      <point x="188" y="245" type="line" smooth="yes"/>
      <point x="99" y="228"/>
      <point x="49" y="187"/>
      <point x="49" y="112" type="curve" smooth="yes"/>
      <point x="49" y="34"/>
      <point x="107" y="-10"/>
    </contour>
    <contour>
      <point x="205" y="4" type="curve" smooth="yes"/>
      <point x="115" y="4"/>
      <point x="65" y="43"/>
      <point x="65" y="114" type="curve" smooth="yes"/>
      <point x="65" y="176"/>
      <point x="109" y="216"/>
      <point x="199" y="233" type="curve" smooth="yes"/>
      <point x="394" y="270" type="line"/>
      <point x="394" y="175" type="line" smooth="yes"/>
      <point x="394" y="51"/>
      <point x="290" y="4"/>
    </contour>
    <contour>
      <point x="411" y="286" type="line"/>
      <point x="422" y="418"/>
      <point x="500" y="496"/>
      <point x="603" y="496" type="curve" smooth="yes"/>
      <point x="717" y="496"/>
      <point x="779" y="404"/>
      <point x="782" y="286" type="curve"/>
    </contour>
  </outline>
</glyph>
<glyph name="idieresis" format="2">
	<unicode hex="00EF"/>
	<advance width="186"/>
	<outline>
		<contour>
			<point x="143" y="598" type="curve" smooth="yes"/>
			<point x="156" y="598"/>
			<point x="165" y="607"/>
			<point x="165" y="620" type="curve" smooth="yes"/>
			<point x="165" y="633"/>
			<point x="156" y="642"/>
			<point x="143" y="642" type="curve" smooth="yes"/>
			<point x="130" y="642"/>
			<point x="121" y="633"/>
			<point x="121" y="620" type="curve" smooth="yes"/>
			<point x="121" y="607"/>
			<point x="130" y="598"/>
		</contour>
		<contour>
			<point x="43" y="598" type="curve" smooth="yes"/>
			<point x="56" y="598"/>
			<point x="65" y="607"/>
			<point x="65" y="620" type="curve" smooth="yes"/>
			<point x="65" y="633"/>
			<point x="56" y="642"/>
			<point x="43" y="642" type="curve" smooth="yes"/>
			<point x="30" y="642"/>
			<point x="21" y="633"/>
			<point x="21" y="620" type="curve" smooth="yes"/>
			<point x="21" y="607"/>
			<point x="30" y="598"/>
		</contour>
		<component base="idotless"/>
	</outline>
	<anchor name="bottom" x="93" y="0"/>
	<anchor name="ogonek" x="101" y="0"/>
	<anchor name="top" x="93" y="500"/>
</glyph>
<glyph name="eth" format="2">
  <advance width="549"/>
  <unicode hex="00F0"/>
  <anchor x="268" y="0" name="bottom"/>
  <anchor x="374" y="21" name="ogonek"/>
  <anchor x="268" y="730" name="top"/>
  <outline>
    <contour>
      <point x="273" y="-10" type="curve" smooth="yes"/>
      <point x="403" y="-10"/>
      <point x="484" y="85"/>
      <point x="484" y="283" type="curve" smooth="yes"/>
      <point x="484" y="549"/>
      <point x="379" y="672"/>
      <point x="258" y="730" type="curve"/>
      <point x="227" y="730" type="line"/>
      <point x="360" y="676"/>
      <point x="468" y="536"/>
      <point x="470" y="294" type="curve"/>
      <point x="475" y="304" type="line"/>
      <point x="461" y="413"/>
      <point x="384" y="485"/>
      <point x="266" y="485" type="curve" smooth="yes"/>
      <point x="137" y="485"/>
      <point x="51" y="388"/>
      <point x="51" y="237" type="curve" smooth="yes"/>
      <point x="51" y="88"/>
      <point x="136" y="-10"/>
    </contour>
    <contour>
      <point x="273" y="4" type="curve" smooth="yes"/>
      <point x="145" y="4"/>
      <point x="67" y="95"/>
      <point x="67" y="237" type="curve" smooth="yes"/>
      <point x="67" y="379"/>
      <point x="146" y="471"/>
      <point x="266" y="471" type="curve" smooth="yes"/>
      <point x="379" y="471"/>
      <point x="468" y="391"/>
      <point x="468" y="259" type="curve" smooth="yes"/>
      <point x="468" y="117"/>
      <point x="405" y="4"/>
    </contour>
    <contour>
      <point x="217" y="574" type="line"/>
      <point x="393" y="613" type="line"/>
      <point x="385" y="625" type="line"/>
      <point x="213" y="587" type="line"/>
    </contour>
    <contour>
      <point x="393" y="613" type="line"/>
      <point x="502" y="638" type="line"/>
      <point x="498" y="651" type="line"/>
      <point x="385" y="625" type="line"/>
    </contour>
  </outline>
</glyph>
<glyph name="divide" format="2">
	<advance width="604"/>
	<unicode hex="00F7"/>
	<anchor x="280" y="132" name="_center"/>
	<outline>
		<contour>
			<point x="527" y="323" type="line"/>
			<point x="77" y="323" type="line"/>
			<point x="77" y="309" type="line"/>
			<point x="527" y="309" type="line"/>
		</contour>
		<contour>
			<point x="302" y="110" type="curve" smooth="yes"/>
			<point x="315" y="110"/>
			<point x="324" y="119"/>
			<point x="324" y="132" type="curve" smooth="yes"/>
			<point x="324" y="145"/>
			<point x="315" y="154"/>
			<point x="302" y="154" type="curve" smooth="yes"/>
			<point x="289" y="154"/>
			<point x="280" y="145"/>
			<point x="280" y="132" type="curve" smooth="yes"/>
			<point x="280" y="119"/>
			<point x="289" y="110"/>
		</contour>
		<contour>
			<point x="302" y="480" type="curve" smooth="yes"/>
			<point x="315" y="480"/>
			<point x="324" y="489"/>
			<point x="324" y="502" type="curve" smooth="yes"/>
			<point x="324" y="515"/>
			<point x="315" y="524"/>
			<point x="302" y="524" type="curve" smooth="yes"/>
			<point x="289" y="524"/>
			<point x="280" y="515"/>
			<point x="280" y="502" type="curve" smooth="yes"/>
			<point x="280" y="489"/>
			<point x="289" y="480"/>
		</contour>
	</outline>
</glyph>
<glyph name="thorn" format="2">
  <advance width="557"/>
  <unicode hex="00FE"/>
  <anchor x="93" y="-210" name="bottom"/>
  <anchor x="404" y="21" name="ogonek"/>
  <anchor x="93" y="730" name="top"/>
  <outline>
    <contour>
      <point x="85" y="-210" type="line"/>
      <point x="101" y="-210" type="line"/>
      <point x="101" y="157" type="line"/>
      <point x="100" y="155" type="line"/>
      <point x="123" y="50"/>
      <point x="200" y="-10"/>
      <point x="294" y="-10" type="curve" smooth="yes"/>
      <point x="422" y="-10"/>
      <point x="506" y="87"/>
      <point x="506" y="250" type="curve" smooth="yes"/>
      <point x="506" y="413"/>
      <point x="422" y="510"/>
      <point x="294" y="510" type="curve" smooth="yes"/>
      <point x="199" y="510"/>
      <point x="122" y="450"/>
      <point x="100" y="343" type="curve"/>
      <point x="101" y="341" type="line"/>
      <point x="101" y="730" type="line"/>
      <point x="85" y="730" type="line"/>
    </contour>
    <contour>
      <point x="291" y="4" type="curve" smooth="yes"/>
      <point x="182" y="4"/>
      <point x="101" y="100"/>
      <point x="101" y="250" type="curve" smooth="yes"/>
      <point x="101" y="400"/>
      <point x="183" y="496"/>
      <point x="291" y="496" type="curve" smooth="yes"/>
      <point x="411" y="496"/>
      <point x="490" y="405"/>
      <point x="490" y="250" type="curve" smooth="yes"/>
      <point x="490" y="95"/>
      <point x="411" y="4"/>
    </contour>
  </outline>
</glyph>
<glyph name="idotless" format="2">
  <advance width="186"/>
  <unicode hex="0131"/>
  <anchor x="93" y="0" name="bottom"/>
  <anchor x="101" y="0" name="ogonek"/>
  <anchor x="93" y="500" name="top"/>
  <outline>
    <contour>
      <point x="101" y="500" type="line"/>
      <point x="85" y="500" type="line"/>
      <point x="85" y="0" type="line"/>
      <point x="101" y="0" type="line"/>
    </contour>
  </outline>
</glyph>
<glyph name="OE" format="2">
	<advance width="1022"/>
	<unicode hex="0152"/>
	<anchor x="992" y="0" name="ogonek"/>
	<anchor x="556" y="0" name="bottom"/>
	<anchor x="556" y="660" name="top"/>
	<outline>
		<contour>
			<point x="592" y="14" type="line"/>
			<point x="592" y="330" type="line"/>
			<point x="906" y="330" type="line"/>
			<point x="906" y="344" type="line"/>
			<point x="592" y="344" type="line"/>
			<point x="592" y="646" type="line"/>
			<point x="976" y="646" type="line"/>
			<point x="976" y="660" type="line"/>
			<point x="576" y="660" type="line"/>
			<point x="576" y="473" type="line"/>
			<point x="547" y="605"/>
			<point x="467" y="670"/>
			<point x="329" y="670" type="curve" smooth="yes"/>
			<point x="164" y="670"/>
			<point x="56" y="539"/>
			<point x="56" y="330" type="curve" smooth="yes"/>
			<point x="56" y="121"/>
			<point x="164" y="-10"/>
			<point x="329" y="-10" type="curve" smooth="yes"/>
			<point x="467" y="-10"/>
			<point x="547" y="55"/>
			<point x="576" y="187" type="curve"/>
			<point x="576" y="0" type="line"/>
			<point x="992" y="0" type="line"/>
			<point x="992" y="14" type="line"/>
		</contour>
		<contour>
			<point x="329" y="4" type="curve" smooth="yes"/>
			<point x="174" y="4"/>
			<point x="72" y="130"/>
			<point x="72" y="330" type="curve" smooth="yes"/>
			<point x="72" y="530"/>
			<point x="174" y="656"/>
			<point x="329" y="656" type="curve" smooth="yes"/>
			<point x="503" y="656"/>
			<point x="576" y="550"/>
			<point x="576" y="330" type="curve" smooth="yes"/>
			<point x="576" y="110"/>
			<point x="503" y="4"/>
		</contour>
	</outline>
</glyph>
<glyph name="oe" format="2">
	<advance width="956"/>
	<unicode hex="0153"/>
	<anchor x="496" y="500" name="top"/>
	<anchor x="496" y="0" name="bottom"/>
	<outline>
		<contour>
			<point x="278" y="-10" type="curve" smooth="yes"/>
			<point x="391" y="-10"/>
			<point x="474" y="61"/>
			<point x="496" y="181" type="curve"/>
			<point x="494" y="181" type="line"/>
			<point x="517" y="60"/>
			<point x="602" y="-10"/>
			<point x="711" y="-10" type="curve" smooth="yes"/>
			<point x="796" y="-10"/>
			<point x="870" y="35"/>
			<point x="904" y="109" type="curve"/>
			<point x="891" y="116" type="line"/>
			<point x="859" y="46"/>
			<point x="789" y="4"/>
			<point x="711" y="4" type="curve" smooth="yes"/>
			<point x="592" y="4"/>
			<point x="502" y="96"/>
			<point x="502" y="250" type="curve" smooth="yes"/>
			<point x="502" y="404"/>
			<point x="591" y="496"/>
			<point x="704" y="496" type="curve" smooth="yes"/>
			<point x="824" y="496"/>
			<point x="891" y="404"/>
			<point x="894" y="270" type="curve"/>
			<point x="495" y="270" type="line"/>
			<point x="495" y="255" type="line"/>
			<point x="908" y="255" type="line"/>
			<point x="908" y="257"/>
			<point x="908" y="260"/>
			<point x="908" y="262" type="curve" smooth="yes"/>
			<point x="908" y="416"/>
			<point x="831" y="510"/>
			<point x="704" y="510" type="curve" smooth="yes"/>
			<point x="600" y="510"/>
			<point x="517" y="440"/>
			<point x="494" y="320" type="curve"/>
			<point x="496" y="320" type="line"/>
			<point x="474" y="440"/>
			<point x="390" y="510"/>
			<point x="278" y="510" type="curve" smooth="yes"/>
			<point x="144" y="510"/>
			<point x="51" y="411"/>
			<point x="51" y="250" type="curve" smooth="yes"/>
			<point x="51" y="89"/>
			<point x="144" y="-10"/>
		</contour>
		<contour>
			<point x="278" y="4" type="curve" smooth="yes"/>
			<point x="154" y="4"/>
			<point x="67" y="97"/>
			<point x="67" y="250" type="curve" smooth="yes"/>
			<point x="67" y="403"/>
			<point x="154" y="496"/>
			<point x="278" y="496" type="curve" smooth="yes"/>
			<point x="401" y="496"/>
			<point x="487" y="403"/>
			<point x="487" y="250" type="curve" smooth="yes"/>
			<point x="487" y="97"/>
			<point x="401" y="4"/>
		</contour>
	</outline>
</glyph>
<glyph name="jdotless" format="2">
	<advance width="186"/>
	<unicode hex="0237"/>
	<anchor x="93" y="500" name="top"/>
	<outline>
		<contour>
			<point x="-31" y="-215" type="curve" smooth="yes"/>
			<point x="49" y="-215"/>
			<point x="101" y="-156"/>
			<point x="101" y="-64" type="curve" smooth="yes"/>
			<point x="101" y="500" type="line"/>
			<point x="85" y="500" type="line"/>
			<point x="85" y="-64" type="line" smooth="yes"/>
			<point x="85" y="-147"/>
			<point x="39" y="-201"/>
			<point x="-31" y="-201" type="curve" smooth="yes"/>
			<point x="-55" y="-201"/>
			<point x="-81" y="-194"/>
			<point x="-97" y="-179" type="curve"/>
			<point x="-102" y="-193" type="line"/>
			<point x="-86" y="-207"/>
			<point x="-59" y="-215"/>
		</contour>
	</outline>
</glyph>
<glyph name="gravecomb" format="2">
	<unicode hex="0300"/>
	<outline>
		<contour>
			<point x="-74" y="730" type="line"/>
			<point x="-92" y="730" type="line"/>
			<point x="-4" y="583" type="line"/>
			<point x="11" y="583" type="line"/>
		</contour>
	</outline>
	<anchor name="_top" x="0" y="500"/>
	<anchor name="top" x="0" y="672"/>
</glyph>
<glyph name="acutecomb" format="2">
  <unicode hex="0301"/>
  <anchor x="0" y="500" name="_top"/>
  <anchor x="0" y="661" name="top"/>
  <outline>
    <contour>
      <point x="78" y="730" type="line"/>
      <point x="-7" y="583" type="line"/>
      <point x="8" y="583" type="line"/>
      <point x="96" y="730" type="line"/>
    </contour>
  </outline>
</glyph>
<glyph name="circumflexcomb" format="2">
	<unicode hex="0302"/>
	<outline>
		<contour>
			<point x="117" y="583" type="line"/>
			<point x="9" y="725" type="line"/>
			<point x="-9" y="725" type="line"/>
			<point x="-117" y="583" type="line"/>
			<point x="-100" y="583" type="line"/>
			<point x="0" y="712" type="line"/>
			<point x="100" y="583" type="line"/>
		</contour>
	</outline>
	<anchor name="_top" x="0" y="500"/>
	<anchor name="top" x="0" y="692"/>
</glyph>
<glyph name="tildecomb" format="2">
  <unicode hex="0303"/>
  <anchor x="0" y="500" name="_top"/>
  <anchor x="0" y="659" name="top"/>
  <outline>
    <contour>
      <point x="159" y="683" type="curve"/>
      <point x="144" y="683" type="line"/>
      <point x="134" y="638"/>
      <point x="116" y="613"/>
      <point x="76" y="613" type="curve" smooth="yes"/>
      <point x="18" y="613"/>
      <point x="-5" y="682"/>
      <point x="-70" y="682" type="curve" smooth="yes"/>
      <point x="-113" y="682"/>
      <point x="-146" y="655"/>
      <point x="-157" y="598" type="curve"/>
      <point x="-142" y="598" type="line"/>
      <point x="-132" y="643"/>
      <point x="-110" y="668"/>
      <point x="-71" y="668" type="curve" smooth="yes"/>
      <point x="-15" y="668"/>
      <point x="7" y="599"/>
      <point x="76" y="599" type="curve" smooth="yes"/>
      <point x="120" y="599"/>
      <point x="148" y="626"/>
    </contour>
  </outline>
</glyph>
<glyph name="macroncomb" format="2">
	<unicode hex="0304"/>
	<outline>
		<contour>
			<point x="144" y="619" type="line"/>
			<point x="-144" y="619" type="line"/>
			<point x="-144" y="605" type="line"/>
			<point x="144" y="605" type="line"/>
		</contour>
	</outline>
	<anchor name="_top" x="0" y="500"/>
	<anchor name="top" x="0" y="617"/>
</glyph>
<glyph name="brevecomb" format="2">
	<unicode hex="0306"/>
	<outline>
		<contour>
			<point x="121" y="702" type="curve"/>
			<point x="107" y="702" type="line"/>
			<point x="107" y="637"/>
			<point x="68" y="595"/>
			<point x="0" y="595" type="curve" smooth="yes"/>
			<point x="-68" y="595"/>
			<point x="-107" y="637"/>
			<point x="-107" y="702" type="curve"/>
			<point x="-121" y="702" type="line"/>
			<point x="-121" y="626"/>
			<point x="-76" y="581"/>
			<point x="0" y="581" type="curve" smooth="yes"/>
			<point x="76" y="581"/>
			<point x="121" y="626"/>
		</contour>
	</outline>
	<anchor name="_top" x="0" y="500"/>
	<anchor name="top" x="0" y="630"/>
	<anchor name="top_viet" x="0" y="628"/>
</glyph>
<glyph name="dotaccentcomb" format="2">
  <unicode hex="0307"/>
  <anchor x="0" y="500" name="_top"/>
  <anchor x="0" y="638" name="top"/>
  <outline>
    <contour>
      <point x="0" y="642" type="curve" smooth="yes"/>
      <point x="-13" y="642"/>
      <point x="-22" y="633"/>
      <point x="-22" y="620" type="curve" smooth="yes"/>
      <point x="-22" y="607"/>
      <point x="-13" y="598"/>
      <point x="0" y="598" type="curve" smooth="yes"/>
      <point x="13" y="598"/>
      <point x="22" y="607"/>
      <point x="22" y="620" type="curve" smooth="yes"/>
      <point x="22" y="633"/>
      <point x="13" y="642"/>
    </contour>
  </outline>
</glyph>
<glyph name="dieresiscomb" format="2">
	<unicode hex="0308"/>
	<outline>
		<contour>
			<point x="-93" y="642" type="curve" smooth="yes"/>
			<point x="-106" y="642"/>
			<point x="-115" y="633"/>
			<point x="-115" y="620" type="curve" smooth="yes"/>
			<point x="-115" y="607"/>
			<point x="-106" y="598"/>
			<point x="-93" y="598" type="curve" smooth="yes"/>
			<point x="-80" y="598"/>
			<point x="-71" y="607"/>
			<point x="-71" y="620" type="curve" smooth="yes"/>
			<point x="-71" y="633"/>
			<point x="-80" y="642"/>
		</contour>
		<contour>
			<point x="91" y="642" type="curve" smooth="yes"/>
			<point x="78" y="642"/>
			<point x="69" y="633"/>
			<point x="69" y="620" type="curve" smooth="yes"/>
			<point x="69" y="607"/>
			<point x="78" y="598"/>
			<point x="91" y="598" type="curve" smooth="yes"/>
			<point x="104" y="598"/>
			<point x="113" y="607"/>
			<point x="113" y="620" type="curve" smooth="yes"/>
			<point x="113" y="633"/>
			<point x="104" y="642"/>
		</contour>
	</outline>
	<anchor name="_top" x="0" y="500"/>
	<anchor name="top" x="0" y="638"/>
</glyph>
<glyph name="ringcomb" format="2">
  <unicode hex="030A"/>
  <anchor x="0" y="500" name="_top"/>
  <anchor x="0" y="721" name="top"/>
  <outline>
    <contour>
      <point x="-2" y="735" type="curve" smooth="yes"/>
      <point x="-49" y="735"/>
      <point x="-84" y="700"/>
      <point x="-84" y="655" type="curve" smooth="yes"/>
      <point x="-84" y="610"/>
      <point x="-49" y="575"/>
      <point x="-2" y="575" type="curve" smooth="yes"/>
      <point x="45" y="575"/>
      <point x="80" y="610"/>
      <point x="80" y="655" type="curve" smooth="yes"/>
      <point x="80" y="700"/>
      <point x="45" y="735"/>
    </contour>
    <contour>
      <point x="-2" y="721" type="curve" smooth="yes"/>
      <point x="35" y="721"/>
      <point x="64" y="692"/>
      <point x="64" y="655" type="curve" smooth="yes"/>
      <point x="64" y="618"/>
      <point x="35" y="589"/>
      <point x="-2" y="589" type="curve" smooth="yes"/>
      <point x="-39" y="589"/>
      <point x="-68" y="618"/>
      <point x="-68" y="655" type="curve" smooth="yes"/>
      <point x="-68" y="692"/>
      <point x="-39" y="721"/>
    </contour>
  </outline>
</glyph>
<glyph name="cedillacomb" format="2">
	<unicode hex="0327"/>
	<outline>
		<contour>
			<point x="-27" y="3" type="line"/>
			<point x="49" y="-40"/>
			<point x="71" y="-73"/>
			<point x="71" y="-115" type="curve" smooth="yes"/>
			<point x="71" y="-161"/>
			<point x="41" y="-189"/>
			<point x="-2" y="-189" type="curve" smooth="yes"/>
			<point x="-36" y="-189"/>
			<point x="-62" y="-178"/>
			<point x="-88" y="-148" type="curve"/>
			<point x="-96" y="-160" type="line"/>
			<point x="-71" y="-190"/>
			<point x="-42" y="-202"/>
			<point x="-2" y="-202" type="curve" smooth="yes"/>
			<point x="50" y="-202"/>
			<point x="86" y="-168"/>
			<point x="86" y="-114" type="curve" smooth="yes"/>
			<point x="86" y="-67"/>
			<point x="62" y="-31"/>
			<point x="-6" y="3" type="curve"/>
		</contour>
	</outline>
	<anchor name="_bottom" x="9" y="0"/>
	<anchor name="bottom" x="-2" y="-202"/>
</glyph>
<glyph name="slashlongcomb" format="2">
	<advance width="0"/>
	<unicode hex="0338"/>
	<anchor x="285" y="250" name="_center"/>
	<outline>
		<contour>
			<point x="52" y="-30" type="line"/>
			<point x="71" y="-30" type="line"/>
			<point x="517" y="530" type="line"/>
			<point x="498" y="530" type="line"/>
		</contour>
	</outline>
</glyph>
<glyph name="ka-khmer" format="2">
  <advance width="594"/>
  <unicode hex="1780"/>
  <anchor x="297" y="0" name="bottom"/>
  <anchor x="486" y="0" name="bottomright"/>
  <anchor x="297" y="592" name="top"/>
  <anchor x="486" y="592" name="topright"/>
  <outline>
    <contour>
      <point x="108" y="288" type="curve" smooth="yes"/>
      <point x="108" y="0" type="line"/>
      <point x="124" y="0" type="line"/>
      <point x="124" y="288" type="line" smooth="yes"/>
      <point x="124" y="399"/>
      <point x="187" y="462"/>
      <point x="297" y="462" type="curve" smooth="yes"/>
      <point x="407" y="462"/>
      <point x="470" y="399"/>
      <point x="470" y="288" type="curve" smooth="yes"/>
      <point x="470" y="0" type="line"/>
      <point x="486" y="0" type="line"/>
      <point x="486" y="288" type="line" smooth="yes"/>
      <point x="486" y="409"/>
      <point x="418" y="478"/>
      <point x="297" y="478" type="curve" smooth="yes"/>
      <point x="176" y="478"/>
      <point x="108" y="409"/>
    </contour>
    <contour>
      <point x="104" y="576" type="line"/>
      <point x="490" y="576" type="line"/>
      <point x="490" y="592" type="line"/>
      <point x="103" y="592" type="line"/>
    </contour>
  </outline>
</glyph>
<glyph name="kha-khmer" format="2">
  <advance width="566"/>
  <unicode hex="1781"/>
  <anchor x="273" y="0" name="bottom"/>
  <anchor x="444" y="0" name="bottomright"/>
  <anchor x="276" y="592" name="top"/>
  <anchor x="458" y="592" name="topright"/>
  <outline>
    <contour>
      <point x="272" y="-6" type="curve" smooth="yes"/>
      <point x="387" y="-6"/>
      <point x="454" y="59"/>
      <point x="454" y="143" type="curve" smooth="yes"/>
      <point x="454" y="176"/>
      <point x="444" y="206"/>
      <point x="427" y="231" type="curve"/>
      <point x="412" y="223" type="line"/>
      <point x="430" y="196"/>
      <point x="438" y="171"/>
      <point x="438" y="143" type="curve" smooth="yes"/>
      <point x="438" y="66"/>
      <point x="376" y="10"/>
      <point x="273" y="10" type="curve" smooth="yes"/>
      <point x="171" y="10"/>
      <point x="114" y="64"/>
      <point x="114" y="146" type="curve" smooth="yes"/>
      <point x="114" y="233" type="line"/>
      <point x="310" y="256"/>
      <point x="468" y="297"/>
      <point x="468" y="443" type="curve" smooth="yes"/>
      <point x="468" y="544"/>
      <point x="393" y="602"/>
      <point x="277" y="602" type="curve" smooth="yes"/>
      <point x="166" y="602"/>
      <point x="92" y="549"/>
      <point x="92" y="463" type="curve" smooth="yes"/>
      <point x="92" y="405"/>
      <point x="125" y="365"/>
      <point x="179" y="365" type="curve" smooth="yes"/>
      <point x="200" y="365"/>
      <point x="218" y="371"/>
      <point x="227" y="375" type="curve"/>
      <point x="227" y="391" type="line"/>
      <point x="216" y="386"/>
      <point x="198" y="381"/>
      <point x="181" y="381" type="curve" smooth="yes"/>
      <point x="135" y="381"/>
      <point x="108" y="415"/>
      <point x="108" y="463" type="curve" smooth="yes"/>
      <point x="108" y="540"/>
      <point x="176" y="586"/>
      <point x="276" y="586" type="curve" smooth="yes"/>
      <point x="383" y="586"/>
      <point x="452" y="534"/>
      <point x="452" y="442" type="curve" smooth="yes"/>
      <point x="452" y="313"/>
      <point x="317" y="273"/>
      <point x="98" y="247" type="curve"/>
      <point x="98" y="146" type="line" smooth="yes"/>
      <point x="98" y="47"/>
      <point x="169" y="-6"/>
    </contour>
  </outline>
</glyph>
<glyph name="kho-khmer" format="2">
	<unicode hex="1783"/>
	<advance width="896"/>
	<outline>
		<contour>
			<point x="277" y="-10" type="curve" smooth="yes"/>
			<point x="375" y="-10"/>
			<point x="438" y="43"/>
			<point x="449" y="122" type="curve"/>
			<point x="447" y="122" type="line"/>
			<point x="458" y="43"/>
			<point x="522" y="-10"/>
			<point x="619" y="-10" type="curve" smooth="yes"/>
			<point x="720" y="-10"/>
			<point x="788" y="58"/>
			<point x="788" y="160" type="curve" smooth="yes"/>
			<point x="788" y="448" type="line" smooth="yes"/>
			<point x="788" y="480"/>
			<point x="775" y="505"/>
			<point x="734" y="523" type="curve"/>
			<point x="734" y="534" type="line" smooth="yes"/>
			<point x="734" y="562"/>
			<point x="747" y="576"/>
			<point x="769" y="576" type="curve" smooth="yes"/>
			<point x="816" y="576" type="line"/>
			<point x="816" y="592" type="line"/>
			<point x="769" y="592" type="line" smooth="yes"/>
			<point x="738" y="592"/>
			<point x="719" y="571"/>
			<point x="719" y="534" type="curve" smooth="yes"/>
			<point x="719" y="516" type="line"/>
			<point x="763" y="496"/>
			<point x="772" y="478"/>
			<point x="772" y="448" type="curve" smooth="yes"/>
			<point x="772" y="160" type="line" smooth="yes"/>
			<point x="772" y="67"/>
			<point x="711" y="6"/>
			<point x="615" y="6" type="curve" smooth="yes"/>
			<point x="518" y="6"/>
			<point x="456" y="62"/>
			<point x="456" y="160" type="curve" smooth="yes"/>
			<point x="456" y="448" type="line" smooth="yes"/>
			<point x="456" y="480"/>
			<point x="443" y="505"/>
			<point x="402" y="523" type="curve"/>
			<point x="402" y="534" type="line" smooth="yes"/>
			<point x="402" y="562"/>
			<point x="415" y="576"/>
			<point x="437" y="576" type="curve" smooth="yes"/>
			<point x="484" y="576" type="line"/>
			<point x="484" y="592" type="line"/>
			<point x="437" y="592" type="line" smooth="yes"/>
			<point x="406" y="592"/>
			<point x="387" y="571"/>
			<point x="387" y="534" type="curve" smooth="yes"/>
			<point x="387" y="516" type="line"/>
			<point x="431" y="496"/>
			<point x="440" y="478"/>
			<point x="440" y="448" type="curve" smooth="yes"/>
			<point x="440" y="160" type="line" smooth="yes"/>
			<point x="440" y="62"/>
			<point x="378" y="6"/>
			<point x="281" y="6" type="curve" smooth="yes"/>
			<point x="185" y="6"/>
			<point x="124" y="67"/>
			<point x="124" y="160" type="curve" smooth="yes"/>
			<point x="124" y="315" type="line"/>
			<point x="145" y="440" type="line"/>
			<point x="145" y="580" type="line" smooth="yes"/>
			<point x="145" y="589"/>
			<point x="139" y="594"/>
			<point x="130" y="594" type="curve" smooth="yes"/>
			<point x="85" y="594"/>
			<point x="62" y="568"/>
			<point x="62" y="515" type="curve" smooth="yes"/>
			<point x="62" y="462"/>
			<point x="85" y="436"/>
			<point x="129" y="436" type="curve" smooth="yes"/>
			<point x="132" y="436" type="line"/>
			<point x="129" y="440" type="line"/>
			<point x="108" y="315" type="line"/>
			<point x="108" y="160" type="line" smooth="yes"/>
			<point x="108" y="58"/>
			<point x="176" y="-10"/>
		</contour>
		<contour>
			<point x="130" y="580" type="curve"/>
			<point x="130" y="450" type="line"/>
			<point x="94" y="450"/>
			<point x="77" y="471"/>
			<point x="77" y="515" type="curve" smooth="yes"/>
			<point x="77" y="559"/>
			<point x="94" y="580"/>
		</contour>
	</outline>
	<anchor name="bottom" x="614" y="0"/>
	<anchor name="bottomright" x="778" y="0"/>
	<anchor name="top" x="614" y="592"/>
	<anchor name="topright" x="788" y="592"/>
</glyph>
<glyph name="ngo-khmer" format="2">
	<advance width="560"/>
	<unicode hex="1784"/>
	<anchor x="286" y="594" name="top"/>
	<anchor x="472" y="594" name="topright"/>
	<anchor x="472" y="0" name="bottomright"/>
	<anchor x="286" y="0" name="bottom"/>
	<outline>
		<contour>
			<point x="100" y="0" type="line"/>
			<point x="116" y="0" type="line"/>
			<point x="286" y="174" type="line"/>
			<point x="456" y="0" type="line"/>
			<point x="472" y="0" type="line"/>
			<point x="472" y="360" type="line" smooth="yes"/>
			<point x="472" y="415"/>
			<point x="452" y="446"/>
			<point x="396" y="468" type="curve"/>
			<point x="391" y="457" type="line"/>
			<point x="446" y="434"/>
			<point x="456" y="409"/>
			<point x="456" y="360" type="curve" smooth="yes"/>
			<point x="456" y="23" type="line"/>
			<point x="286" y="197" type="line"/>
			<point x="116" y="23" type="line"/>
			<point x="116" y="334" type="line"/>
			<point x="54" y="334" type="line"/>
			<point x="54" y="319" type="line"/>
			<point x="100" y="319" type="line"/>
		</contour>
		<contour>
			<point x="236" y="419" type="curve" smooth="yes"/>
			<point x="306" y="419"/>
			<point x="359" y="432"/>
			<point x="397" y="461" type="curve"/>
			<point x="428" y="470"/>
			<point x="451" y="493"/>
			<point x="451" y="528" type="curve" smooth="yes"/>
			<point x="451" y="568"/>
			<point x="422" y="598"/>
			<point x="383" y="598" type="curve" smooth="yes"/>
			<point x="343" y="598"/>
			<point x="313" y="568"/>
			<point x="313" y="528" type="curve" smooth="yes"/>
			<point x="313" y="490"/>
			<point x="342" y="460"/>
			<point x="381" y="460" type="curve"/>
			<point x="379" y="463" type="line"/>
			<point x="339" y="442"/>
			<point x="299" y="434"/>
			<point x="239" y="434" type="curve" smooth="yes"/>
			<point x="155" y="434"/>
			<point x="112" y="460"/>
			<point x="112" y="505" type="curve" smooth="yes"/>
			<point x="112" y="535"/>
			<point x="132" y="557"/>
			<point x="132" y="591" type="curve" smooth="yes"/>
			<point x="132" y="619"/>
			<point x="118" y="634"/>
			<point x="90" y="634" type="curve" smooth="yes"/>
			<point x="80" y="634" type="line"/>
			<point x="80" y="618" type="line"/>
			<point x="90" y="618" type="line" smooth="yes"/>
			<point x="107" y="618"/>
			<point x="116" y="609"/>
			<point x="116" y="590" type="curve" smooth="yes"/>
			<point x="116" y="561"/>
			<point x="96" y="540"/>
			<point x="96" y="504" type="curve" smooth="yes"/>
			<point x="96" y="450"/>
			<point x="148" y="419"/>
		</contour>
		<contour>
			<point x="382" y="473" type="curve" smooth="yes"/>
			<point x="352" y="473"/>
			<point x="329" y="497"/>
			<point x="329" y="528" type="curve" smooth="yes"/>
			<point x="329" y="559"/>
			<point x="352" y="583"/>
			<point x="382" y="583" type="curve" smooth="yes"/>
			<point x="412" y="583"/>
			<point x="435" y="559"/>
			<point x="435" y="528" type="curve" smooth="yes"/>
			<point x="435" y="497"/>
			<point x="412" y="473"/>
		</contour>
	</outline>
</glyph>
<glyph name="ca-khmer" format="2">
	<unicode hex="1785"/>
	<advance width="594"/>
	<outline>
		<contour>
			<point x="297" y="-10" type="curve" smooth="yes"/>
			<point x="418" y="-10"/>
			<point x="486" y="59"/>
			<point x="486" y="180" type="curve" smooth="yes"/>
			<point x="486" y="438" type="line" smooth="yes"/>
			<point x="486" y="447"/>
			<point x="481" y="452"/>
			<point x="471" y="452" type="curve" smooth="yes"/>
			<point x="425" y="452"/>
			<point x="403" y="426"/>
			<point x="403" y="373" type="curve" smooth="yes"/>
			<point x="403" y="320"/>
			<point x="425" y="294"/>
			<point x="470" y="294" type="curve" smooth="yes"/>
			<point x="473" y="294" type="line"/>
			<point x="470" y="298" type="line"/>
			<point x="470" y="180" type="line" smooth="yes"/>
			<point x="470" y="69"/>
			<point x="407" y="6"/>
			<point x="297" y="6" type="curve" smooth="yes"/>
			<point x="187" y="6"/>
			<point x="124" y="69"/>
			<point x="124" y="180" type="curve" smooth="yes"/>
			<point x="124" y="458" type="line" smooth="yes"/>
			<point x="124" y="486"/>
			<point x="117" y="503"/>
			<point x="95" y="523" type="curve"/>
			<point x="95" y="534" type="line" smooth="yes"/>
			<point x="95" y="562"/>
			<point x="110" y="576"/>
			<point x="136" y="576" type="curve" smooth="yes"/>
			<point x="490" y="576" type="line"/>
			<point x="490" y="592" type="line"/>
			<point x="136" y="592" type="line" smooth="yes"/>
			<point x="101" y="592"/>
			<point x="80" y="571"/>
			<point x="80" y="534" type="curve" smooth="yes"/>
			<point x="80" y="516" type="line"/>
			<point x="103" y="493"/>
			<point x="108" y="483"/>
			<point x="108" y="458" type="curve" smooth="yes"/>
			<point x="108" y="180" type="line" smooth="yes"/>
			<point x="108" y="59"/>
			<point x="176" y="-10"/>
		</contour>
		<contour>
			<point x="470" y="438" type="curve"/>
			<point x="470" y="308" type="line"/>
			<point x="435" y="308"/>
			<point x="418" y="329"/>
			<point x="418" y="373" type="curve" smooth="yes"/>
			<point x="418" y="417"/>
			<point x="435" y="438"/>
		</contour>
	</outline>
	<anchor name="bottom" x="297" y="0"/>
	<anchor name="bottomright" x="476" y="0"/>
	<anchor name="top" x="297" y="592"/>
	<anchor name="topright" x="486" y="592"/>
</glyph>
<glyph name="cha-khmer" format="2">
  <advance width="594"/>
  <unicode hex="1786"/>
  <anchor x="297" y="0" name="bottom"/>
  <anchor x="476" y="0" name="bottomright"/>
  <anchor x="297" y="592" name="top"/>
  <anchor x="486" y="592" name="topright"/>
  <outline>
    <contour>
      <point x="108" y="0" type="curve"/>
      <point x="124" y="0" type="line"/>
      <point x="124" y="458" type="line" smooth="yes"/>
      <point x="124" y="486"/>
      <point x="117" y="503"/>
      <point x="95" y="523" type="curve"/>
      <point x="95" y="534" type="line" smooth="yes"/>
      <point x="95" y="562"/>
      <point x="110" y="576"/>
      <point x="136" y="576" type="curve" smooth="yes"/>
      <point x="490" y="576" type="line"/>
      <point x="490" y="592" type="line"/>
      <point x="136" y="592" type="line" smooth="yes"/>
      <point x="101" y="592"/>
      <point x="80" y="571"/>
      <point x="80" y="534" type="curve" smooth="yes"/>
      <point x="80" y="516" type="line"/>
      <point x="103" y="493"/>
      <point x="108" y="483"/>
      <point x="108" y="458" type="curve" smooth="yes"/>
      <point x="108" y="161" type="line"/>
      <point x="98" y="158"/>
      <point x="88" y="144"/>
      <point x="88" y="119" type="curve" smooth="yes"/>
      <point x="88" y="80"/>
      <point x="96" y="39"/>
    </contour>
    <contour>
      <point x="396" y="-4" type="curve" smooth="yes"/>
      <point x="453" y="-4"/>
      <point x="486" y="30"/>
      <point x="486" y="86" type="curve" smooth="yes"/>
      <point x="486" y="438" type="line" smooth="yes"/>
      <point x="486" y="447"/>
      <point x="481" y="452"/>
      <point x="471" y="452" type="curve" smooth="yes"/>
      <point x="425" y="452"/>
      <point x="403" y="426"/>
      <point x="403" y="373" type="curve" smooth="yes"/>
      <point x="403" y="320"/>
      <point x="425" y="294"/>
      <point x="470" y="294" type="curve" smooth="yes"/>
      <point x="473" y="294" type="line"/>
      <point x="470" y="298" type="line"/>
      <point x="470" y="86" type="line" smooth="yes"/>
      <point x="470" y="40"/>
      <point x="443" y="12"/>
      <point x="396" y="12" type="curve" smooth="yes"/>
      <point x="343" y="12"/>
      <point x="319" y="42"/>
      <point x="289" y="83" type="curve" smooth="yes"/>
      <point x="253" y="131"/>
      <point x="229" y="161"/>
      <point x="158" y="161" type="curve" smooth="yes"/>
      <point x="116" y="161" type="line"/>
      <point x="116" y="145" type="line"/>
      <point x="158" y="145" type="line" smooth="yes"/>
      <point x="220" y="145"/>
      <point x="241" y="120"/>
      <point x="276" y="74" type="curve" smooth="yes"/>
      <point x="309" y="31"/>
      <point x="336" y="-4"/>
    </contour>
    <contour>
      <point x="470" y="438" type="curve"/>
      <point x="470" y="308" type="line"/>
      <point x="435" y="308"/>
      <point x="418" y="329"/>
      <point x="418" y="373" type="curve" smooth="yes"/>
      <point x="418" y="417"/>
      <point x="435" y="438"/>
    </contour>
  </outline>
</glyph>
<glyph name="co-khmer" format="2">
  <advance width="582"/>
  <unicode hex="1787"/>
  <anchor x="291" y="0" name="bottom"/>
  <anchor x="474" y="0" name="bottomright"/>
  <anchor x="291" y="592" name="top"/>
  <anchor x="474" y="592" name="topright"/>
  <outline>
    <contour>
      <point x="108" y="458" type="curve" smooth="yes"/>
      <point x="108" y="0" type="line"/>
      <point x="124" y="0" type="line"/>
      <point x="291" y="176" type="line"/>
      <point x="458" y="0" type="line"/>
      <point x="474" y="0" type="line"/>
      <point x="474" y="408" type="line"/>
      <point x="458" y="408" type="line"/>
      <point x="458" y="22" type="line"/>
      <point x="291" y="198" type="line"/>
      <point x="124" y="22" type="line"/>
      <point x="124" y="458" type="line" smooth="yes"/>
      <point x="124" y="486"/>
      <point x="117" y="503"/>
      <point x="95" y="523" type="curve"/>
      <point x="95" y="534" type="line" smooth="yes"/>
      <point x="95" y="562"/>
      <point x="110" y="576"/>
      <point x="136" y="576" type="curve" smooth="yes"/>
      <point x="272" y="576" type="line"/>
      <point x="361" y="523" type="line"/>
      <point x="402" y="523" type="line" smooth="yes"/>
      <point x="450" y="523"/>
      <point x="474" y="545"/>
      <point x="474" y="590" type="curve" smooth="yes"/>
      <point x="474" y="634" type="line"/>
      <point x="458" y="634" type="line"/>
      <point x="458" y="590" type="line" smooth="yes"/>
      <point x="458" y="556"/>
      <point x="439" y="539"/>
      <point x="402" y="539" type="curve" smooth="yes"/>
      <point x="365" y="539" type="line"/>
      <point x="276" y="592" type="line"/>
      <point x="136" y="592" type="line" smooth="yes"/>
      <point x="101" y="592"/>
      <point x="80" y="571"/>
      <point x="80" y="534" type="curve" smooth="yes"/>
      <point x="80" y="516" type="line"/>
      <point x="103" y="493"/>
      <point x="108" y="483"/>
    </contour>
  </outline>
</glyph>
<glyph name="cho-khmer" format="2">
	<unicode hex="1788"/>
	<advance width="1134"/>
	<outline>
		<contour>
			<point x="562" y="-10" type="curve" smooth="yes"/>
			<point x="651" y="-10"/>
			<point x="708" y="43"/>
			<point x="718" y="116" type="curve"/>
			<point x="716" y="116" type="line"/>
			<point x="727" y="43"/>
			<point x="786" y="-10"/>
			<point x="872" y="-10" type="curve" smooth="yes"/>
			<point x="963" y="-10"/>
			<point x="1026" y="58"/>
			<point x="1026" y="160" type="curve" smooth="yes"/>
			<point x="1026" y="448" type="line" smooth="yes"/>
			<point x="1026" y="480"/>
			<point x="1013" y="505"/>
			<point x="972" y="523" type="curve"/>
			<point x="972" y="534" type="line" smooth="yes"/>
			<point x="972" y="562"/>
			<point x="985" y="576"/>
			<point x="1007" y="576" type="curve" smooth="yes"/>
			<point x="1054" y="576" type="line"/>
			<point x="1054" y="592" type="line"/>
			<point x="1007" y="592" type="line" smooth="yes"/>
			<point x="976" y="592"/>
			<point x="957" y="571"/>
			<point x="957" y="534" type="curve" smooth="yes"/>
			<point x="957" y="516" type="line"/>
			<point x="1001" y="496"/>
			<point x="1010" y="478"/>
			<point x="1010" y="448" type="curve" smooth="yes"/>
			<point x="1010" y="160" type="line" smooth="yes"/>
			<point x="1010" y="67"/>
			<point x="954" y="6"/>
			<point x="869" y="6" type="curve" smooth="yes"/>
			<point x="782" y="6"/>
			<point x="725" y="62"/>
			<point x="725" y="160" type="curve" smooth="yes"/>
			<point x="725" y="448" type="line" smooth="yes"/>
			<point x="725" y="480"/>
			<point x="712" y="505"/>
			<point x="671" y="523" type="curve"/>
			<point x="671" y="534" type="line" smooth="yes"/>
			<point x="671" y="562"/>
			<point x="684" y="576"/>
			<point x="706" y="576" type="curve" smooth="yes"/>
			<point x="753" y="576" type="line"/>
			<point x="753" y="592" type="line"/>
			<point x="706" y="592" type="line" smooth="yes"/>
			<point x="675" y="592"/>
			<point x="656" y="571"/>
			<point x="656" y="534" type="curve" smooth="yes"/>
			<point x="656" y="516" type="line"/>
			<point x="700" y="496"/>
			<point x="709" y="478"/>
			<point x="709" y="448" type="curve" smooth="yes"/>
			<point x="709" y="160" type="line" smooth="yes"/>
			<point x="709" y="62"/>
			<point x="652" y="6"/>
			<point x="566" y="6" type="curve" smooth="yes"/>
			<point x="481" y="6"/>
			<point x="425" y="67"/>
			<point x="425" y="160" type="curve" smooth="yes"/>
			<point x="425" y="423" type="line" smooth="yes"/>
			<point x="425" y="534"/>
			<point x="366" y="598"/>
			<point x="265" y="598" type="curve" smooth="yes"/>
			<point x="166" y="598"/>
			<point x="108" y="534"/>
			<point x="108" y="423" type="curve" smooth="yes"/>
			<point x="108" y="8" type="line" smooth="yes"/>
			<point x="108" y="-1"/>
			<point x="113" y="-6"/>
			<point x="123" y="-6" type="curve" smooth="yes"/>
			<point x="169" y="-6"/>
			<point x="191" y="20"/>
			<point x="191" y="73" type="curve" smooth="yes"/>
			<point x="191" y="126"/>
			<point x="169" y="152"/>
			<point x="124" y="152" type="curve" smooth="yes"/>
			<point x="121" y="152" type="line"/>
			<point x="124" y="148" type="line"/>
			<point x="124" y="423" type="line" smooth="yes"/>
			<point x="124" y="524"/>
			<point x="177" y="582"/>
			<point x="265" y="582" type="curve" smooth="yes"/>
			<point x="355" y="582"/>
			<point x="409" y="524"/>
			<point x="409" y="423" type="curve" smooth="yes"/>
			<point x="409" y="160" type="line" smooth="yes"/>
			<point x="409" y="58"/>
			<point x="471" y="-10"/>
		</contour>
		<contour>
			<point x="124" y="8" type="curve"/>
			<point x="124" y="138" type="line"/>
			<point x="159" y="138"/>
			<point x="176" y="117"/>
			<point x="176" y="73" type="curve" smooth="yes"/>
			<point x="176" y="29"/>
			<point x="159" y="8"/>
		</contour>
	</outline>
	<anchor name="bottom" x="868" y="0"/>
	<anchor name="bottomright" x="1016" y="0"/>
	<anchor name="top" x="868" y="592"/>
	<anchor name="topright" x="1026" y="592"/>
</glyph>
<glyph name="nyo-khmer" format="2">
	<advance width="896"/>
	<unicode hex="1789"/>
	<anchor x="619" y="592" name="top"/>
	<anchor x="778" y="592" name="topright"/>
	<anchor x="778" y="-258" name="bottomright"/>
	<anchor x="619" y="-258" name="bottom"/>
	<outline>
		<contour>
			<point x="600" y="-258" type="curve" smooth="yes"/>
			<point x="663" y="-258" type="line" smooth="yes"/>
			<point x="745" y="-258"/>
			<point x="792" y="-219"/>
			<point x="792" y="-151" type="curve" smooth="yes"/>
			<point x="792" y="-89"/>
			<point x="757" y="-54"/>
			<point x="696" y="-54" type="curve" smooth="yes"/>
			<point x="669" y="-54"/>
			<point x="641" y="-64"/>
			<point x="627" y="-72" type="curve"/>
			<point x="627" y="-87" type="line"/>
			<point x="642" y="-79"/>
			<point x="671" y="-68"/>
			<point x="696" y="-68" type="curve" smooth="yes"/>
			<point x="747" y="-68"/>
			<point x="776" y="-99"/>
			<point x="776" y="-154" type="curve" smooth="yes"/>
			<point x="776" y="-210"/>
			<point x="735" y="-242"/>
			<point x="663" y="-242" type="curve" smooth="yes"/>
			<point x="600" y="-242" type="line" smooth="yes"/>
			<point x="415" y="-242"/>
			<point x="351" y="-90"/>
			<point x="160" y="-90" type="curve" smooth="yes"/>
			<point x="128" y="-90" type="line"/>
			<point x="128" y="-106" type="line"/>
			<point x="160" y="-106" type="line" smooth="yes"/>
			<point x="343" y="-106"/>
			<point x="412" y="-258"/>
		</contour>
		<component base="nyo-khmer.less"/>
	</outline>
</glyph>
<glyph name="da-khmer" format="2">
	<unicode hex="178A"/>
	<advance width="582"/>
	<outline>
		<contour>
			<point x="108" y="0" type="line"/>
			<point x="124" y="0" type="line"/>
			<point x="291" y="176" type="line"/>
			<point x="458" y="0" type="line"/>
			<point x="474" y="0" type="line"/>
			<point x="474" y="390" type="line"/>
			<point x="458" y="390" type="line"/>
			<point x="458" y="22" type="line"/>
			<point x="291" y="198" type="line"/>
			<point x="124" y="22" type="line"/>
			<point x="124" y="390" type="line"/>
			<point x="108" y="390" type="line"/>
		</contour>
		<contour>
			<point x="275" y="434" type="curve" smooth="yes"/>
			<point x="406" y="434"/>
			<point x="480" y="488"/>
			<point x="480" y="583" type="curve" smooth="yes"/>
			<point x="480" y="634" type="line"/>
			<point x="464" y="634" type="line"/>
			<point x="464" y="583" type="line" smooth="yes"/>
			<point x="464" y="498"/>
			<point x="396" y="450"/>
			<point x="273" y="450" type="curve" smooth="yes"/>
			<point x="174" y="450"/>
			<point x="118" y="481"/>
			<point x="118" y="531" type="curve" smooth="yes"/>
			<point x="118" y="562"/>
			<point x="139" y="581"/>
			<point x="170" y="581" type="curve" smooth="yes"/>
			<point x="188" y="581"/>
			<point x="205" y="575"/>
			<point x="222" y="568" type="curve"/>
			<point x="222" y="583" type="line"/>
			<point x="209" y="590"/>
			<point x="188" y="596"/>
			<point x="170" y="596" type="curve" smooth="yes"/>
			<point x="129" y="596"/>
			<point x="102" y="571"/>
			<point x="102" y="531" type="curve" smooth="yes"/>
			<point x="102" y="471"/>
			<point x="165" y="434"/>
		</contour>
	</outline>
	<anchor name="bottom" x="291" y="0"/>
	<anchor name="bottomright" x="474" y="0"/>
	<anchor name="top" x="291" y="592"/>
	<anchor name="topright" x="474" y="592"/>
</glyph>
<glyph name="ttha-khmer" format="2">
	<unicode hex="178B"/>
	<advance width="588"/>
	<outline>
		<contour>
			<point x="294" y="-10" type="curve" smooth="yes"/>
			<point x="412" y="-10"/>
			<point x="480" y="63"/>
			<point x="480" y="190" type="curve" smooth="yes"/>
			<point x="480" y="443" type="line" smooth="yes"/>
			<point x="480" y="480"/>
			<point x="467" y="509"/>
			<point x="402" y="523" type="curve"/>
			<point x="402" y="534" type="line" smooth="yes"/>
			<point x="402" y="562"/>
			<point x="415" y="576"/>
			<point x="438" y="576" type="curve" smooth="yes"/>
			<point x="446" y="576" type="line"/>
			<point x="494" y="549" type="line"/>
			<point x="499" y="549" type="line" smooth="yes"/>
			<point x="507" y="549"/>
			<point x="511" y="554"/>
			<point x="511" y="563" type="curve" smooth="yes"/>
			<point x="511" y="634" type="line"/>
			<point x="496" y="634" type="line"/>
			<point x="496" y="558" type="line"/>
			<point x="501" y="562" type="line"/>
			<point x="448" y="592" type="line"/>
			<point x="438" y="592" type="line" smooth="yes"/>
			<point x="406" y="592"/>
			<point x="387" y="571"/>
			<point x="387" y="534" type="curve" smooth="yes"/>
			<point x="387" y="514" type="line"/>
			<point x="458" y="498"/>
			<point x="464" y="478"/>
			<point x="464" y="443" type="curve" smooth="yes"/>
			<point x="464" y="190" type="line" smooth="yes"/>
			<point x="464" y="73"/>
			<point x="402" y="6"/>
			<point x="294" y="6" type="curve" smooth="yes"/>
			<point x="186" y="6"/>
			<point x="124" y="73"/>
			<point x="124" y="190" type="curve" smooth="yes"/>
			<point x="124" y="315" type="line"/>
			<point x="145" y="440" type="line"/>
			<point x="145" y="580" type="line" smooth="yes"/>
			<point x="145" y="589"/>
			<point x="139" y="594"/>
			<point x="130" y="594" type="curve" smooth="yes"/>
			<point x="85" y="594"/>
			<point x="62" y="568"/>
			<point x="62" y="515" type="curve" smooth="yes"/>
			<point x="62" y="462"/>
			<point x="85" y="436"/>
			<point x="129" y="436" type="curve" smooth="yes"/>
			<point x="132" y="436" type="line"/>
			<point x="129" y="440" type="line"/>
			<point x="108" y="315" type="line"/>
			<point x="108" y="190" type="line" smooth="yes"/>
			<point x="108" y="63"/>
			<point x="176" y="-10"/>
		</contour>
		<contour>
			<point x="130" y="580" type="curve"/>
			<point x="130" y="450" type="line"/>
			<point x="94" y="450"/>
			<point x="77" y="471"/>
			<point x="77" y="515" type="curve" smooth="yes"/>
			<point x="77" y="559"/>
			<point x="94" y="580"/>
		</contour>
	</outline>
	<anchor name="bottom" x="294" y="0"/>
	<anchor name="bottomright" x="470" y="0"/>
	<anchor name="top" x="294" y="592"/>
	<anchor name="topright" x="480" y="592"/>
</glyph>
<glyph name="do-khmer" format="2">
  <advance width="528"/>
  <unicode hex="178C"/>
  <anchor x="263" y="0" name="bottom"/>
  <anchor x="440" y="0" name="bottomright"/>
  <anchor x="267" y="592" name="top"/>
  <anchor x="442" y="592" name="topright"/>
  <outline>
    <contour>
      <point x="221" y="-6" type="curve" smooth="yes"/>
      <point x="323" y="-6"/>
      <point x="406" y="57"/>
      <point x="432" y="138" type="curve"/>
      <point x="425" y="157" type="line"/>
      <point x="407" y="89"/>
      <point x="338" y="10"/>
      <point x="225" y="10" type="curve" smooth="yes"/>
      <point x="138" y="10"/>
      <point x="98" y="56"/>
      <point x="98" y="142" type="curve" smooth="yes"/>
      <point x="98" y="234" type="line"/>
      <point x="327" y="257"/>
      <point x="452" y="291"/>
      <point x="452" y="414" type="curve" smooth="yes"/>
      <point x="452" y="500" type="line"/>
      <point x="362" y="598" type="line"/>
      <point x="358" y="598" type="line"/>
      <point x="267" y="516" type="line"/>
      <point x="176" y="598" type="line"/>
      <point x="172" y="598" type="line"/>
      <point x="82" y="500" type="line"/>
      <point x="82" y="408" type="line" smooth="yes"/>
      <point x="82" y="367"/>
      <point x="105" y="343"/>
      <point x="145" y="343" type="curve" smooth="yes"/>
      <point x="162" y="343"/>
      <point x="175" y="347"/>
      <point x="183" y="351" type="curve"/>
      <point x="183" y="365" type="line"/>
      <point x="174" y="361"/>
      <point x="159" y="357"/>
      <point x="144" y="357" type="curve" smooth="yes"/>
      <point x="114" y="357"/>
      <point x="98" y="376"/>
      <point x="98" y="408" type="curve" smooth="yes"/>
      <point x="98" y="495" type="line"/>
      <point x="175" y="578" type="line"/>
      <point x="265" y="497" type="line"/>
      <point x="269" y="497" type="line"/>
      <point x="359" y="578" type="line"/>
      <point x="436" y="495" type="line"/>
      <point x="436" y="414" type="line" smooth="yes"/>
      <point x="436" y="300"/>
      <point x="321" y="272"/>
      <point x="82" y="247" type="curve"/>
      <point x="82" y="142" type="line" smooth="yes"/>
      <point x="82" y="44"/>
      <point x="131" y="-6"/>
    </contour>
    <contour>
      <point x="426" y="0" type="line"/>
      <point x="440" y="0" type="line"/>
      <point x="440" y="218" type="line"/>
      <point x="424" y="218" type="line"/>
      <point x="424" y="133" type="line"/>
    </contour>
  </outline>
</glyph>
<glyph name="ttho-khmer" format="2">
  <advance width="896"/>
  <unicode hex="178D"/>
  <anchor x="614" y="0" name="bottom"/>
  <anchor x="788" y="0" name="bottomright"/>
  <anchor x="614" y="592" name="top"/>
  <anchor x="788" y="592" name="topright"/>
  <outline>
    <contour>
      <point x="450" y="0" type="line"/>
      <point x="466" y="0" type="line"/>
      <point x="466" y="491" type="line"/>
      <point x="376" y="598" type="line"/>
      <point x="372" y="598" type="line"/>
      <point x="287" y="507" type="line"/>
      <point x="202" y="598" type="line"/>
      <point x="198" y="598" type="line"/>
      <point x="108" y="491" type="line"/>
      <point x="108" y="8" type="line" smooth="yes"/>
      <point x="108" y="-1"/>
      <point x="113" y="-6"/>
      <point x="123" y="-6" type="curve" smooth="yes"/>
      <point x="169" y="-6"/>
      <point x="191" y="20"/>
      <point x="191" y="73" type="curve" smooth="yes"/>
      <point x="191" y="126"/>
      <point x="169" y="152"/>
      <point x="124" y="152" type="curve" smooth="yes"/>
      <point x="121" y="152" type="line"/>
      <point x="124" y="148" type="line"/>
      <point x="124" y="486" type="line"/>
      <point x="200" y="578" type="line"/>
      <point x="285" y="488" type="line"/>
      <point x="289" y="488" type="line"/>
      <point x="374" y="578" type="line"/>
      <point x="450" y="486" type="line"/>
    </contour>
    <contour>
      <point x="124" y="8" type="curve"/>
      <point x="124" y="138" type="line"/>
      <point x="159" y="138"/>
      <point x="176" y="117"/>
      <point x="176" y="73" type="curve" smooth="yes"/>
      <point x="176" y="29"/>
      <point x="159" y="8"/>
    </contour>
    <contour>
      <point x="723" y="-4" type="curve" smooth="yes"/>
      <point x="762" y="-4"/>
      <point x="788" y="22"/>
      <point x="788" y="72" type="curve" smooth="yes"/>
      <point x="788" y="448" type="line" smooth="yes"/>
      <point x="788" y="480"/>
      <point x="775" y="505"/>
      <point x="734" y="523" type="curve"/>
      <point x="734" y="534" type="line" smooth="yes"/>
      <point x="734" y="562"/>
      <point x="747" y="576"/>
      <point x="769" y="576" type="curve" smooth="yes"/>
      <point x="816" y="576" type="line"/>
      <point x="816" y="592" type="line"/>
      <point x="769" y="592" type="line" smooth="yes"/>
      <point x="738" y="592"/>
      <point x="719" y="571"/>
      <point x="719" y="534" type="curve" smooth="yes"/>
      <point x="719" y="516" type="line"/>
      <point x="763" y="496"/>
      <point x="772" y="478"/>
      <point x="772" y="448" type="curve" smooth="yes"/>
      <point x="772" y="72" type="line" smooth="yes"/>
      <point x="772" y="32"/>
      <point x="753" y="12"/>
      <point x="723" y="12" type="curve" smooth="yes"/>
      <point x="680" y="12"/>
      <point x="659" y="46"/>
      <point x="632" y="99" type="curve" smooth="yes"/>
      <point x="596" y="169"/>
      <point x="579" y="191"/>
      <point x="540" y="191" type="curve" smooth="yes"/>
      <point x="503" y="191"/>
      <point x="471" y="160"/>
      <point x="452" y="101" type="curve"/>
      <point x="461" y="95" type="line"/>
      <point x="483" y="151"/>
      <point x="509" y="175"/>
      <point x="540" y="175" type="curve" smooth="yes"/>
      <point x="571" y="175"/>
      <point x="584" y="154"/>
      <point x="617" y="91" type="curve" smooth="yes"/>
      <point x="653" y="22"/>
      <point x="676" y="-4"/>
    </contour>
  </outline>
</glyph>
<glyph name="nno-khmer" format="2">
	<unicode hex="178E"/>
	<advance width="1134"/>
	<outline>
		<contour>
			<point x="414" y="428" type="curve" smooth="yes"/>
			<point x="414" y="0" type="line"/>
			<point x="430" y="0" type="line"/>
			<point x="567" y="174" type="line"/>
			<point x="704" y="0" type="line"/>
			<point x="720" y="0" type="line"/>
			<point x="720" y="428" type="line" smooth="yes"/>
			<point x="720" y="526"/>
			<point x="773" y="582"/>
			<point x="865" y="582" type="curve" smooth="yes"/>
			<point x="957" y="582"/>
			<point x="1010" y="526"/>
			<point x="1010" y="428" type="curve" smooth="yes"/>
			<point x="1010" y="0" type="line"/>
			<point x="1026" y="0" type="line"/>
			<point x="1026" y="428" type="line" smooth="yes"/>
			<point x="1026" y="536"/>
			<point x="967" y="598"/>
			<point x="865" y="598" type="curve" smooth="yes"/>
			<point x="763" y="598"/>
			<point x="704" y="536"/>
			<point x="704" y="428" type="curve" smooth="yes"/>
			<point x="704" y="24" type="line"/>
			<point x="567" y="198" type="line"/>
			<point x="430" y="24" type="line"/>
			<point x="430" y="428" type="line" smooth="yes"/>
			<point x="430" y="536"/>
			<point x="371" y="598"/>
			<point x="269" y="598" type="curve" smooth="yes"/>
			<point x="167" y="598"/>
			<point x="108" y="536"/>
			<point x="108" y="428" type="curve" smooth="yes"/>
			<point x="108" y="8" type="line" smooth="yes"/>
			<point x="108" y="-1"/>
			<point x="113" y="-6"/>
			<point x="123" y="-6" type="curve" smooth="yes"/>
			<point x="169" y="-6"/>
			<point x="191" y="20"/>
			<point x="191" y="73" type="curve" smooth="yes"/>
			<point x="191" y="126"/>
			<point x="169" y="152"/>
			<point x="124" y="152" type="curve" smooth="yes"/>
			<point x="121" y="152" type="line"/>
			<point x="124" y="148" type="line"/>
			<point x="124" y="428" type="line" smooth="yes"/>
			<point x="124" y="526"/>
			<point x="177" y="582"/>
			<point x="269" y="582" type="curve" smooth="yes"/>
			<point x="361" y="582"/>
			<point x="414" y="526"/>
		</contour>
		<contour>
			<point x="124" y="8" type="curve"/>
			<point x="124" y="138" type="line"/>
			<point x="159" y="138"/>
			<point x="176" y="117"/>
			<point x="176" y="73" type="curve" smooth="yes"/>
			<point x="176" y="29"/>
			<point x="159" y="8"/>
		</contour>
	</outline>
	<anchor name="bottom" x="567" y="0"/>
	<anchor name="bottomright" x="721" y="0"/>
	<anchor name="top" x="567" y="592"/>
	<anchor name="topright" x="1016" y="592"/>
</glyph>
<glyph name="ta-khmer" format="2">
	<advance width="594"/>
	<unicode hex="178F"/>
	<anchor x="297" y="592" name="top"/>
	<anchor x="486" y="592" name="topright"/>
	<anchor x="486" y="0" name="bottomright"/>
	<anchor x="297" y="0" name="bottom"/>
	<outline>
		<contour>
			<point x="470" y="278" type="curve" smooth="yes"/>
			<point x="470" y="0" type="line"/>
			<point x="486" y="0" type="line"/>
			<point x="486" y="278" type="line" smooth="yes"/>
			<point x="486" y="405"/>
			<point x="418" y="478"/>
			<point x="297" y="478" type="curve" smooth="yes"/>
			<point x="176" y="478"/>
			<point x="108" y="405"/>
			<point x="108" y="278" type="curve" smooth="yes"/>
			<point x="108" y="8" type="line" smooth="yes"/>
			<point x="108" y="-1"/>
			<point x="113" y="-6"/>
			<point x="123" y="-6" type="curve" smooth="yes"/>
			<point x="169" y="-6"/>
			<point x="191" y="20"/>
			<point x="191" y="73" type="curve" smooth="yes"/>
			<point x="191" y="126"/>
			<point x="169" y="152"/>
			<point x="124" y="152" type="curve" smooth="yes"/>
			<point x="121" y="152" type="line"/>
			<point x="124" y="148" type="line"/>
			<point x="124" y="278" type="line" smooth="yes"/>
			<point x="124" y="395"/>
			<point x="187" y="462"/>
			<point x="297" y="462" type="curve" smooth="yes"/>
			<point x="407" y="462"/>
			<point x="470" y="395"/>
		</contour>
		<contour>
			<point x="124" y="8" type="curve"/>
			<point x="124" y="138" type="line"/>
			<point x="159" y="138"/>
			<point x="176" y="117"/>
			<point x="176" y="73" type="curve" smooth="yes"/>
			<point x="176" y="29"/>
			<point x="159" y="8"/>
		</contour>
		<contour>
			<point x="104" y="576" type="line"/>
			<point x="490" y="576" type="line"/>
			<point x="490" y="592" type="line"/>
			<point x="104" y="592" type="line"/>
		</contour>
	</outline>
</glyph>
<glyph name="to-khmer" format="2">
	<unicode hex="1791"/>
	<advance width="526"/>
	<outline>
		<contour>
			<point x="368" y="222" type="curve"/>
			<point x="370" y="236" type="line"/>
			<point x="191" y="246"/>
			<point x="91" y="317"/>
			<point x="91" y="434" type="curve" smooth="yes"/>
			<point x="91" y="528"/>
			<point x="158" y="586"/>
			<point x="260" y="586" type="curve" smooth="yes"/>
			<point x="355" y="586"/>
			<point x="418" y="536"/>
			<point x="418" y="460" type="curve" smooth="yes"/>
			<point x="418" y="444"/>
			<point x="414" y="429"/>
			<point x="410" y="417" type="curve"/>
			<point x="426" y="417" type="line"/>
			<point x="430" y="427"/>
			<point x="434" y="441"/>
			<point x="434" y="460" type="curve" smooth="yes"/>
			<point x="434" y="546"/>
			<point x="364" y="602"/>
			<point x="259" y="602" type="curve" smooth="yes"/>
			<point x="144" y="602"/>
			<point x="75" y="533"/>
			<point x="75" y="433" type="curve" smooth="yes"/>
			<point x="75" y="309"/>
			<point x="178" y="232"/>
		</contour>
		<contour>
			<point x="251" y="-10" type="curve" smooth="yes"/>
			<point x="328" y="-10"/>
			<point x="381" y="36"/>
			<point x="381" y="107" type="curve" smooth="yes"/>
			<point x="381" y="226" type="line"/>
			<point x="377" y="222" type="line"/>
			<point x="380" y="222" type="line" smooth="yes"/>
			<point x="421" y="222"/>
			<point x="449" y="243"/>
			<point x="449" y="282" type="curve" smooth="yes"/>
			<point x="449" y="319"/>
			<point x="423" y="342"/>
			<point x="385" y="342" type="curve" smooth="yes"/>
			<point x="365" y="342"/>
			<point x="365" y="334"/>
			<point x="365" y="328" type="curve" smooth="yes"/>
			<point x="365" y="108" type="line" smooth="yes"/>
			<point x="365" y="47"/>
			<point x="318" y="6"/>
			<point x="251" y="6" type="curve" smooth="yes"/>
			<point x="184" y="6"/>
			<point x="137" y="47"/>
			<point x="137" y="108" type="curve" smooth="yes"/>
			<point x="137" y="183" type="line"/>
			<point x="121" y="183" type="line"/>
			<point x="121" y="108" type="line" smooth="yes"/>
			<point x="121" y="37"/>
			<point x="174" y="-10"/>
		</contour>
		<contour>
			<point x="381" y="236" type="curve"/>
			<point x="381" y="328" type="line"/>
			<point x="416" y="328"/>
			<point x="435" y="313"/>
			<point x="435" y="281" type="curve" smooth="yes"/>
			<point x="435" y="252"/>
			<point x="416" y="236"/>
		</contour>
	</outline>
	<anchor name="bottom" x="251" y="0"/>
	<anchor name="bottomright" x="371" y="0"/>
	<anchor name="top" x="256" y="592"/>
	<anchor name="topright" x="416" y="592"/>
</glyph>
<glyph name="no-khmer" format="2">
	<unicode hex="1793"/>
	<advance width="568"/>
	<outline>
		<contour>
			<point x="327" y="-6" type="curve" smooth="yes"/>
			<point x="417" y="-6"/>
			<point x="466" y="44"/>
			<point x="466" y="142" type="curve" smooth="yes"/>
			<point x="466" y="247" type="line"/>
			<point x="247" y="274"/>
			<point x="112" y="310"/>
			<point x="112" y="444" type="curve" smooth="yes"/>
			<point x="112" y="536"/>
			<point x="177" y="586"/>
			<point x="286" y="586" type="curve" smooth="yes"/>
			<point x="388" y="586"/>
			<point x="456" y="543"/>
			<point x="456" y="464" type="curve" smooth="yes"/>
			<point x="456" y="414"/>
			<point x="429" y="381"/>
			<point x="383" y="381" type="curve" smooth="yes"/>
			<point x="366" y="381"/>
			<point x="348" y="386"/>
			<point x="337" y="391" type="curve"/>
			<point x="337" y="375" type="line"/>
			<point x="348" y="370"/>
			<point x="367" y="365"/>
			<point x="385" y="365" type="curve" smooth="yes"/>
			<point x="439" y="365"/>
			<point x="472" y="405"/>
			<point x="472" y="464" type="curve" smooth="yes"/>
			<point x="472" y="550"/>
			<point x="400" y="602"/>
			<point x="287" y="602" type="curve" smooth="yes"/>
			<point x="168" y="602"/>
			<point x="96" y="545"/>
			<point x="96" y="444" type="curve" smooth="yes"/>
			<point x="96" y="300"/>
			<point x="241" y="258"/>
			<point x="450" y="234" type="curve"/>
			<point x="450" y="142" type="line" smooth="yes"/>
			<point x="450" y="56"/>
			<point x="410" y="10"/>
			<point x="323" y="10" type="curve" smooth="yes"/>
			<point x="210" y="10"/>
			<point x="141" y="89"/>
			<point x="123" y="157" type="curve"/>
			<point x="116" y="138" type="line"/>
			<point x="142" y="57"/>
			<point x="225" y="-6"/>
		</contour>
		<contour>
			<point x="108" y="0" type="line"/>
			<point x="122" y="0" type="line"/>
			<point x="124" y="123" type="line"/>
			<point x="124" y="218" type="line"/>
			<point x="108" y="218" type="line"/>
		</contour>
	</outline>
	<anchor name="bottom" x="275" y="0"/>
	<anchor name="bottomright" x="456" y="0"/>
	<anchor name="top" x="287" y="592"/>
	<anchor name="topright" x="462" y="592"/>
</glyph>
<glyph name="pha-khmer" format="2">
	<unicode hex="1795"/>
	<advance width="594"/>
	<outline>
		<contour>
			<point x="108" y="458" type="curve" smooth="yes"/>
			<point x="108" y="0" type="line"/>
			<point x="124" y="0" type="line"/>
			<point x="297" y="176" type="line"/>
			<point x="470" y="0" type="line"/>
			<point x="486" y="0" type="line"/>
			<point x="486" y="438" type="line" smooth="yes"/>
			<point x="486" y="447"/>
			<point x="481" y="452"/>
			<point x="471" y="452" type="curve" smooth="yes"/>
			<point x="425" y="452"/>
			<point x="403" y="426"/>
			<point x="403" y="373" type="curve" smooth="yes"/>
			<point x="403" y="320"/>
			<point x="425" y="294"/>
			<point x="470" y="294" type="curve" smooth="yes"/>
			<point x="473" y="294" type="line"/>
			<point x="470" y="298" type="line"/>
			<point x="470" y="22" type="line"/>
			<point x="297" y="198" type="line"/>
			<point x="124" y="22" type="line"/>
			<point x="124" y="458" type="line" smooth="yes"/>
			<point x="124" y="486"/>
			<point x="117" y="503"/>
			<point x="95" y="523" type="curve"/>
			<point x="95" y="534" type="line" smooth="yes"/>
			<point x="95" y="562"/>
			<point x="110" y="576"/>
			<point x="136" y="576" type="curve" smooth="yes"/>
			<point x="284" y="576" type="line"/>
			<point x="373" y="523" type="line"/>
			<point x="414" y="523" type="line" smooth="yes"/>
			<point x="462" y="523"/>
			<point x="486" y="545"/>
			<point x="486" y="590" type="curve" smooth="yes"/>
			<point x="486" y="634" type="line"/>
			<point x="470" y="634" type="line"/>
			<point x="470" y="590" type="line" smooth="yes"/>
			<point x="470" y="556"/>
			<point x="451" y="539"/>
			<point x="414" y="539" type="curve" smooth="yes"/>
			<point x="377" y="539" type="line"/>
			<point x="288" y="592" type="line"/>
			<point x="136" y="592" type="line" smooth="yes"/>
			<point x="101" y="592"/>
			<point x="80" y="571"/>
			<point x="80" y="534" type="curve" smooth="yes"/>
			<point x="80" y="516" type="line"/>
			<point x="103" y="493"/>
			<point x="108" y="483"/>
		</contour>
		<contour>
			<point x="470" y="438" type="curve"/>
			<point x="470" y="308" type="line"/>
			<point x="435" y="308"/>
			<point x="418" y="329"/>
			<point x="418" y="373" type="curve" smooth="yes"/>
			<point x="418" y="417"/>
			<point x="435" y="438"/>
		</contour>
	</outline>
	<anchor name="bottom" x="297" y="0"/>
	<anchor name="bottomright" x="486" y="0"/>
	<anchor name="top" x="297" y="592"/>
	<anchor name="topright" x="486" y="592"/>
</glyph>
<glyph name="po-khmer" format="2">
	<unicode hex="1796"/>
	<advance width="594"/>
	<outline>
		<contour>
			<point x="470" y="0" type="line"/>
			<point x="486" y="0" type="line"/>
			<point x="486" y="491" type="line"/>
			<point x="386" y="598" type="line"/>
			<point x="382" y="598" type="line"/>
			<point x="297" y="507" type="line"/>
			<point x="212" y="598" type="line"/>
			<point x="208" y="598" type="line"/>
			<point x="108" y="491" type="line"/>
			<point x="108" y="8" type="line" smooth="yes"/>
			<point x="108" y="-1"/>
			<point x="113" y="-6"/>
			<point x="123" y="-6" type="curve" smooth="yes"/>
			<point x="169" y="-6"/>
			<point x="191" y="20"/>
			<point x="191" y="73" type="curve" smooth="yes"/>
			<point x="191" y="126"/>
			<point x="169" y="152"/>
			<point x="124" y="152" type="curve" smooth="yes"/>
			<point x="121" y="152" type="line"/>
			<point x="124" y="148" type="line"/>
			<point x="124" y="486" type="line"/>
			<point x="210" y="578" type="line"/>
			<point x="295" y="488" type="line"/>
			<point x="299" y="488" type="line"/>
			<point x="384" y="578" type="line"/>
			<point x="470" y="486" type="line"/>
		</contour>
		<contour>
			<point x="124" y="8" type="curve"/>
			<point x="124" y="138" type="line"/>
			<point x="159" y="138"/>
			<point x="176" y="117"/>
			<point x="176" y="73" type="curve" smooth="yes"/>
			<point x="176" y="29"/>
			<point x="159" y="8"/>
		</contour>
	</outline>
	<anchor name="bottom" x="297" y="0"/>
	<anchor name="bottomright" x="486" y="0"/>
	<anchor name="top" x="297" y="592"/>
	<anchor name="topright" x="476" y="592"/>
</glyph>
<glyph name="pho-khmer" format="2">
	<advance width="594"/>
	<unicode hex="1797"/>
	<anchor x="297" y="592" name="top"/>
	<anchor x="486" y="592" name="topright"/>
	<anchor x="486" y="0" name="bottomright"/>
	<anchor x="297" y="0" name="bottom"/>
	<outline>
		<contour>
			<point x="153" y="-6" type="curve" smooth="yes"/>
			<point x="167" y="-6"/>
			<point x="180" y="3"/>
			<point x="180" y="46" type="curve" smooth="yes"/>
			<point x="180" y="144"/>
			<point x="124" y="197"/>
			<point x="124" y="288" type="curve" smooth="yes"/>
			<point x="124" y="399"/>
			<point x="187" y="462"/>
			<point x="297" y="462" type="curve" smooth="yes"/>
			<point x="407" y="462"/>
			<point x="470" y="399"/>
			<point x="470" y="288" type="curve" smooth="yes"/>
			<point x="470" y="0" type="line"/>
			<point x="486" y="0" type="line"/>
			<point x="486" y="288" type="line" smooth="yes"/>
			<point x="486" y="409"/>
			<point x="418" y="478"/>
			<point x="297" y="478" type="curve" smooth="yes"/>
			<point x="176" y="478"/>
			<point x="108" y="409"/>
			<point x="108" y="288" type="curve" smooth="yes"/>
			<point x="108" y="194"/>
			<point x="164" y="140"/>
			<point x="164" y="45" type="curve" smooth="yes"/>
			<point x="164" y="23"/>
			<point x="161" y="13"/>
			<point x="154" y="5" type="curve"/>
			<point x="152" y="5" type="line"/>
			<point x="122" y="19"/>
			<point x="96" y="56"/>
			<point x="91" y="115" type="curve"/>
			<point x="77" y="111" type="line"/>
			<point x="80" y="47"/>
			<point x="120" y="-6"/>
		</contour>
		<contour>
			<point x="104" y="576" type="line"/>
			<point x="490" y="576" type="line"/>
			<point x="490" y="592" type="line"/>
			<point x="104" y="592" type="line"/>
		</contour>
	</outline>
</glyph>
<glyph name="yo-khmer" format="2">
	<advance width="896"/>
	<unicode hex="1799"/>
	<anchor x="614" y="592" name="top"/>
	<anchor x="788" y="592" name="topright"/>
	<anchor x="778" y="0" name="bottomright"/>
	<anchor x="614" y="0" name="bottom"/>
	<outline>
		<contour>
			<point x="277" y="-10" type="curve" smooth="yes"/>
			<point x="375" y="-10"/>
			<point x="438" y="43"/>
			<point x="449" y="122" type="curve"/>
			<point x="447" y="122" type="line"/>
			<point x="458" y="43"/>
			<point x="522" y="-10"/>
			<point x="619" y="-10" type="curve" smooth="yes"/>
			<point x="720" y="-10"/>
			<point x="788" y="58"/>
			<point x="788" y="160" type="curve" smooth="yes"/>
			<point x="788" y="448" type="line" smooth="yes"/>
			<point x="788" y="480"/>
			<point x="775" y="505"/>
			<point x="734" y="523" type="curve"/>
			<point x="734" y="534" type="line" smooth="yes"/>
			<point x="734" y="562"/>
			<point x="747" y="576"/>
			<point x="769" y="576" type="curve" smooth="yes"/>
			<point x="816" y="576" type="line"/>
			<point x="816" y="592" type="line"/>
			<point x="769" y="592" type="line" smooth="yes"/>
			<point x="738" y="592"/>
			<point x="719" y="571"/>
			<point x="719" y="534" type="curve" smooth="yes"/>
			<point x="719" y="516" type="line"/>
			<point x="763" y="496"/>
			<point x="772" y="478"/>
			<point x="772" y="448" type="curve" smooth="yes"/>
			<point x="772" y="160" type="line" smooth="yes"/>
			<point x="772" y="67"/>
			<point x="711" y="6"/>
			<point x="615" y="6" type="curve" smooth="yes"/>
			<point x="518" y="6"/>
			<point x="456" y="62"/>
			<point x="456" y="160" type="curve" smooth="yes"/>
			<point x="456" y="448" type="line" smooth="yes"/>
			<point x="456" y="480"/>
			<point x="443" y="505"/>
			<point x="402" y="523" type="curve"/>
			<point x="402" y="534" type="line" smooth="yes"/>
			<point x="402" y="562"/>
			<point x="415" y="576"/>
			<point x="437" y="576" type="curve" smooth="yes"/>
			<point x="484" y="576" type="line"/>
			<point x="484" y="592" type="line"/>
			<point x="437" y="592" type="line" smooth="yes"/>
			<point x="406" y="592"/>
			<point x="387" y="571"/>
			<point x="387" y="534" type="curve" smooth="yes"/>
			<point x="387" y="516" type="line"/>
			<point x="431" y="496"/>
			<point x="440" y="478"/>
			<point x="440" y="448" type="curve" smooth="yes"/>
			<point x="440" y="160" type="line" smooth="yes"/>
			<point x="440" y="62"/>
			<point x="378" y="6"/>
			<point x="281" y="6" type="curve" smooth="yes"/>
			<point x="185" y="6"/>
			<point x="124" y="67"/>
			<point x="124" y="160" type="curve" smooth="yes"/>
			<point x="124" y="438" type="line"/>
			<point x="121" y="434" type="line"/>
			<point x="124" y="434" type="line" smooth="yes"/>
			<point x="168" y="434"/>
			<point x="191" y="460"/>
			<point x="191" y="513" type="curve" smooth="yes"/>
			<point x="191" y="566"/>
			<point x="168" y="592"/>
			<point x="123" y="592" type="curve" smooth="yes"/>
			<point x="114" y="592"/>
			<point x="108" y="587"/>
			<point x="108" y="578" type="curve" smooth="yes"/>
			<point x="108" y="160" type="line" smooth="yes"/>
			<point x="108" y="58"/>
			<point x="176" y="-10"/>
		</contour>
		<contour>
			<point x="123" y="448" type="curve"/>
			<point x="123" y="578" type="line"/>
			<point x="159" y="578"/>
			<point x="176" y="557"/>
			<point x="176" y="513" type="curve" smooth="yes"/>
			<point x="176" y="469"/>
			<point x="159" y="448"/>
		</contour>
	</outline>
</glyph>
<glyph name="lo-khmer" format="2">
	<unicode hex="179B"/>
	<advance width="896"/>
	<outline>
		<contour>
			<point x="617" y="-6" type="curve" smooth="yes"/>
			<point x="725" y="-6"/>
			<point x="788" y="54"/>
			<point x="788" y="160" type="curve" smooth="yes"/>
			<point x="788" y="448" type="line" smooth="yes"/>
			<point x="788" y="480"/>
			<point x="775" y="505"/>
			<point x="734" y="523" type="curve"/>
			<point x="734" y="534" type="line" smooth="yes"/>
			<point x="734" y="562"/>
			<point x="747" y="576"/>
			<point x="769" y="576" type="curve" smooth="yes"/>
			<point x="816" y="576" type="line"/>
			<point x="816" y="592" type="line"/>
			<point x="769" y="592" type="line" smooth="yes"/>
			<point x="738" y="592"/>
			<point x="719" y="571"/>
			<point x="719" y="534" type="curve" smooth="yes"/>
			<point x="719" y="516" type="line"/>
			<point x="763" y="496"/>
			<point x="772" y="478"/>
			<point x="772" y="448" type="curve" smooth="yes"/>
			<point x="772" y="160" type="line" smooth="yes"/>
			<point x="772" y="64"/>
			<point x="715" y="10"/>
			<point x="617" y="10" type="curve" smooth="yes"/>
			<point x="519" y="10"/>
			<point x="462" y="64"/>
			<point x="462" y="160" type="curve" smooth="yes"/>
			<point x="462" y="431" type="line" smooth="yes"/>
			<point x="462" y="537"/>
			<point x="396" y="598"/>
			<point x="285" y="598" type="curve" smooth="yes"/>
			<point x="174" y="598"/>
			<point x="108" y="537"/>
			<point x="108" y="431" type="curve" smooth="yes"/>
			<point x="108" y="8" type="line" smooth="yes"/>
			<point x="108" y="-1"/>
			<point x="113" y="-6"/>
			<point x="123" y="-6" type="curve" smooth="yes"/>
			<point x="169" y="-6"/>
			<point x="191" y="20"/>
			<point x="191" y="73" type="curve" smooth="yes"/>
			<point x="191" y="126"/>
			<point x="169" y="152"/>
			<point x="124" y="152" type="curve" smooth="yes"/>
			<point x="121" y="152" type="line"/>
			<point x="124" y="148" type="line"/>
			<point x="124" y="431" type="line" smooth="yes"/>
			<point x="124" y="527"/>
			<point x="184" y="582"/>
			<point x="285" y="582" type="curve" smooth="yes"/>
			<point x="386" y="582"/>
			<point x="446" y="527"/>
			<point x="446" y="431" type="curve" smooth="yes"/>
			<point x="446" y="160" type="line" smooth="yes"/>
			<point x="446" y="54"/>
			<point x="509" y="-6"/>
		</contour>
		<contour>
			<point x="124" y="8" type="curve"/>
			<point x="124" y="138" type="line"/>
			<point x="159" y="138"/>
			<point x="176" y="117"/>
			<point x="176" y="73" type="curve" smooth="yes"/>
			<point x="176" y="29"/>
			<point x="159" y="8"/>
		</contour>
	</outline>
	<anchor name="bottom" x="617" y="0"/>
	<anchor name="bottomright" x="778" y="0"/>
	<anchor name="top" x="617" y="592"/>
	<anchor name="topright" x="788" y="592"/>
</glyph>
